<svg xmlns="http://www.w3.org/2000/svg" width="124.6" height="126.26" viewBox="0 0 124.6 126.26">
  <g id="_x33_2" transform="translate(-2.181 -1.864)">
    <g id="Grupo_1221077" data-name="Grupo 1221077" transform="translate(2.181 1.864)">
      <g id="Grupo_1220986" data-name="Grupo 1220986" transform="translate(19.898)">
        <g id="Grupo_1220956" data-name="Grupo 1220956" transform="translate(0.01 0.004)">
          <g id="Grupo_1220955" data-name="Grupo 1220955">
            <g id="Grupo_1220954" data-name="Grupo 1220954">
              <g id="Grupo_1220953" data-name="Grupo 1220953">
                <path id="Trazado_1291922" data-name="Trazado 1291922" d="M71.52,94.16a11.439,11.439,0,0,1-5.153,8.919L24.2,127.4a3.642,3.642,0,0,1-3.688.366l-9-5.2a3.66,3.66,0,0,1-1.491-3.322L9.793,35.859a11.335,11.335,0,0,1,5.153-8.945L57.108,2.563A3.722,3.722,0,0,1,60.77,2.2l8.788,5.127c1.046.471,1.7,1.674,1.726,3.426Z" transform="translate(-9.793 -1.866)" fill="#1d2943"/>
              </g>
            </g>
          </g>
        </g>
        <g id="Grupo_1220973" data-name="Grupo 1220973">
          <g id="Grupo_1220961" data-name="Grupo 1220961">
            <g id="Grupo_1220960" data-name="Grupo 1220960">
              <g id="Grupo_1220957" data-name="Grupo 1220957">
                <path id="Trazado_1291923" data-name="Trazado 1291923" d="M60.783,2.212a3.639,3.639,0,0,0-3.672.36L14.963,26.907a11.409,11.409,0,0,0-5.174,8.949l.236,83.4a3.606,3.606,0,0,0,1.507,3.3l8.983,5.209a3.606,3.606,0,0,1-1.507-3.3l-.236-83.4a11.409,11.409,0,0,1,5.174-8.948L66.094,7.781a3.639,3.639,0,0,1,3.672-.36Z" transform="translate(-9.789 -1.864)" fill="#9ea9c9"/>
              </g>
              <g id="Grupo_1220959" data-name="Grupo 1220959" transform="translate(8.983 5.209)">
                <g id="Grupo_1220958" data-name="Grupo 1220958">
                  <path id="Trazado_1291924" data-name="Trazado 1291924" d="M60.545,4.564c2.864-1.654,5.175-.31,5.184,2.968l.236,83.4a11.336,11.336,0,0,1-5.151,8.922L18.667,124.189c-2.864,1.654-5.2.337-5.208-2.941l-.236-83.4A11.409,11.409,0,0,1,18.4,28.9Z" transform="translate(-13.223 -3.855)" fill="#1d2943"/>
                </g>
              </g>
            </g>
          </g>
          <g id="Grupo_1220972" data-name="Grupo 1220972" transform="translate(11.592 13.684)">
            <g id="Grupo_1220963" data-name="Grupo 1220963">
              <g id="Grupo_1220962" data-name="Grupo 1220962">
                <path id="Trazado_1291925" data-name="Trazado 1291925" d="M61.745,83.863,14.43,111.2,14.22,34.4,61.536,7.1Z" transform="translate(-14.22 -7.095)" fill="#57b3fe"/>
              </g>
            </g>
            <g id="Grupo_1220965" data-name="Grupo 1220965" transform="translate(15.932 4.496)">
              <g id="Grupo_1220964" data-name="Grupo 1220964">
                <path id="Trazado_1291926" data-name="Trazado 1291926" d="M34.83,8.941c.5-.29.9-.063.9.5a1.958,1.958,0,0,1-.9,1.554L21.227,18.854c-.5.29-.913.07-.915-.508a1.979,1.979,0,0,1,.909-1.548Z" transform="translate(-20.312 -8.815)" fill="#9ea9c9"/>
              </g>
            </g>
            <g id="Grupo_1220967" data-name="Grupo 1220967" transform="translate(32.955 2.555)">
              <g id="Grupo_1220966" data-name="Grupo 1220966">
                <path id="Trazado_1291927" data-name="Trazado 1291927" d="M27.706,8.2c.491-.284.878-.063.88.5a1.907,1.907,0,0,1-.874,1.527c-.491.283-.89.07-.891-.508A1.927,1.927,0,0,1,27.706,8.2Z" transform="translate(-26.82 -8.072)" fill="#9ea9c9"/>
              </g>
            </g>
            <g id="Grupo_1220969" data-name="Grupo 1220969" transform="translate(12.565 14.33)">
              <g id="Grupo_1220968" data-name="Grupo 1220968">
                <path id="Trazado_1291928" data-name="Trazado 1291928" d="M19.9,12.7c.5-.29.89-.07.891.495a1.91,1.91,0,0,1-.886,1.534c-.491.283-.878.063-.88-.515A1.9,1.9,0,0,1,19.9,12.7Z" transform="translate(-19.024 -12.574)" fill="#9ea9c9"/>
              </g>
            </g>
            <g id="Grupo_1220971" data-name="Grupo 1220971" transform="translate(18.677 90.829)">
              <g id="Grupo_1220970" data-name="Grupo 1220970">
                <path id="Trazado_1291929" data-name="Trazado 1291929" d="M30.007,42.063c.97-.56,1.78-.112,1.783,1.016a3.922,3.922,0,0,1-1.771,3.068l-6.886,3.976c-.97.56-1.768.106-1.771-1.023a3.9,3.9,0,0,1,1.76-3.061Z" transform="translate(-21.361 -41.822)" fill="#9ea9c9"/>
              </g>
            </g>
          </g>
        </g>
        <g id="Grupo_1220976" data-name="Grupo 1220976" transform="translate(44.738 3.744)">
          <g id="Grupo_1220974" data-name="Grupo 1220974">
            <path id="Trazado_1291930" data-name="Trazado 1291930" d="M32.727,3.859a5.452,5.452,0,0,0-4.827,0c-1.18.679-1.323,1.716-.429,2.467A2.233,2.233,0,0,1,27.9,6a5.454,5.454,0,0,1,4.827,0l.429.322c.858-.751.715-1.788-.429-2.467Z" transform="translate(-26.893 -3.295)" fill="#fff"/>
          </g>
          <g id="Grupo_1220975" data-name="Grupo 1220975" transform="translate(0.578 2.145)">
            <path id="Trazado_1291931" data-name="Trazado 1291931" d="M27.543,4.679A2.233,2.233,0,0,0,27.114,5a2.233,2.233,0,0,0,.429.322,5.231,5.231,0,0,0,4.827,0,2.99,2.99,0,0,0,.429-.286V5l-.429-.322A5.454,5.454,0,0,0,27.543,4.679Z" transform="translate(-27.114 -4.116)" fill="#111d33"/>
          </g>
        </g>
        <g id="Grupo_1220985" data-name="Grupo 1220985" transform="translate(1.856 41.874)">
          <g id="Grupo_1220980" data-name="Grupo 1220980" transform="translate(0.063)">
            <g id="Grupo_1220977" data-name="Grupo 1220977" transform="translate(0.635)">
              <path id="Trazado_1291932" data-name="Trazado 1291932" d="M13.487,18.158A1.487,1.487,0,0,0,12.029,18l-1.264.734c.383-.208.171,2.326.731,2.649,1.137.656,1.6.5,1.594,1.8l.063,9.633c0,.663.854,1.014.489,1.222l1.264-.734a1.444,1.444,0,0,0,.6-1.33L15.541,21.7a4.512,4.512,0,0,0-2.053-3.547Z" transform="translate(-10.765 -17.873)" fill="#fff"/>
            </g>
            <g id="Grupo_1220979" data-name="Grupo 1220979" transform="translate(0 0.734)">
              <g id="Grupo_1220978" data-name="Grupo 1220978">
                <path id="Trazado_1291933" data-name="Trazado 1291933" d="M12.616,18.439a1.487,1.487,0,0,0-1.458-.157,1.442,1.442,0,0,0-.6,1.33l-.036,10.274a4.511,4.511,0,0,0,2.045,3.552,1.488,1.488,0,0,0,1.467.152,1.444,1.444,0,0,0,.6-1.33l.036-10.274a4.512,4.512,0,0,0-2.054-3.547Z" transform="translate(-10.522 -18.154)" fill="#e9e7fc"/>
              </g>
            </g>
          </g>
          <g id="Grupo_1220984" data-name="Grupo 1220984" transform="translate(0 19.872)">
            <g id="Grupo_1220981" data-name="Grupo 1220981" transform="translate(0.635)">
              <path id="Trazado_1291934" data-name="Trazado 1291934" d="M13.463,25.749a1.481,1.481,0,0,0-1.458-.147l-1.264.734c.383-.208.317,2.526.876,2.849,1.137.656,1.316.4,1.312,1.709l-.889,9.2c0,.653,1.943,1.327,1.578,1.546l1.264-.734a1.467,1.467,0,0,0,.6-1.33l.036-10.274A4.53,4.53,0,0,0,13.463,25.749Z" transform="translate(-10.741 -25.471)" fill="#fff"/>
            </g>
            <g id="Grupo_1220983" data-name="Grupo 1220983" transform="translate(0 0.734)">
              <g id="Grupo_1220982" data-name="Grupo 1220982">
                <path id="Trazado_1291935" data-name="Trazado 1291935" d="M12.592,26.03a1.481,1.481,0,0,0-1.458-.147,1.442,1.442,0,0,0-.6,1.33L10.5,37.487a4.511,4.511,0,0,0,2.045,3.552,1.488,1.488,0,0,0,1.467.152,1.467,1.467,0,0,0,.6-1.33l.036-10.274a4.53,4.53,0,0,0-2.053-3.557Z" transform="translate(-10.498 -25.752)" fill="#e9e7fc"/>
              </g>
            </g>
          </g>
        </g>
      </g>
      <g id="Grupo_1220992" data-name="Grupo 1220992" transform="translate(38.086 6.685)">
        <g id="Grupo_1220991" data-name="Grupo 1220991">
          <g id="Grupo_1220990" data-name="Grupo 1220990">
            <g id="Grupo_1220989" data-name="Grupo 1220989">
              <g id="Grupo_1220988" data-name="Grupo 1220988">
                <g id="Grupo_1220987" data-name="Grupo 1220987">
                  <path id="Trazado_1291936" data-name="Trazado 1291936" d="M83.989,28.176a5.276,5.276,0,0,1-2.38,4.159L21.268,67.043a1.712,1.712,0,0,1-1.7.183l-.157-.1L17.475,66a1.639,1.639,0,0,1-.706-1.543l-.026-20.82a5.207,5.207,0,0,1,2.38-4.159L79.438,4.74a1.749,1.749,0,0,1,1.726-.157L83.152,5.76l.052.026.026.026h.026a1.667,1.667,0,0,1,.706,1.543Z" transform="translate(-16.742 -4.42)" fill="#dedffb"/>
                </g>
              </g>
            </g>
          </g>
        </g>
      </g>
      <g id="Grupo_1221063" data-name="Grupo 1221063" transform="translate(38.074 6.689)">
        <g id="Grupo_1221000" data-name="Grupo 1221000">
          <g id="Grupo_1220999" data-name="Grupo 1220999">
            <g id="Grupo_1220998" data-name="Grupo 1220998">
              <g id="Grupo_1220994" data-name="Grupo 1220994" transform="translate(2.097 1.218)">
                <g id="Grupo_1220993" data-name="Grupo 1220993">
                  <path id="Trazado_1291937" data-name="Trazado 1291937" d="M80.259,5.216c1.334-.77,2.409-.143,2.414,1.39l.035,20.813a5.267,5.267,0,0,1-2.4,4.153L19.988,66.292c-1.334.77-2.409.157-2.414-1.375L17.539,44.1a5.293,5.293,0,0,1,2.4-4.168Z" transform="translate(-17.539 -4.887)" fill="#f8f9fe"/>
                </g>
              </g>
              <g id="Grupo_1220997" data-name="Grupo 1220997">
                <g id="Grupo_1220996" data-name="Grupo 1220996">
                  <g id="Grupo_1220995" data-name="Grupo 1220995">
                    <path id="Trazado_1291938" data-name="Trazado 1291938" d="M19.57,67.215a1.687,1.687,0,0,1-.7-1.546l-.035-20.813a5.293,5.293,0,0,1,2.4-4.168L81.554,5.969A1.691,1.691,0,0,1,83.262,5.8l-2.1-1.218a1.692,1.692,0,0,0-1.708.167L19.135,39.47a5.292,5.292,0,0,0-2.4,4.168l.035,20.813a1.687,1.687,0,0,0,.7,1.546Z" transform="translate(-16.738 -4.421)" fill="#dedffb"/>
                  </g>
                </g>
              </g>
            </g>
          </g>
        </g>
        <g id="Grupo_1221013" data-name="Grupo 1221013" transform="translate(6.904 33.562)">
          <g id="Grupo_1221002" data-name="Grupo 1221002">
            <g id="Grupo_1221001" data-name="Grupo 1221001">
              <path id="Trazado_1291939" data-name="Trazado 1291939" d="M35.645,23.007a16.717,16.717,0,0,1-2.573,8.335,16.212,16.212,0,0,1-5.548,5.708c-2.144,1.26-4.1,1.42-5.575.7-1.581-.8-2.573-2.653-2.573-5.333-.027-5.172,3.591-11.444,8.094-14.043s8.147-.509,8.174,4.636Z" transform="translate(-19.377 -17.253)" fill="#72d561"/>
            </g>
          </g>
          <g id="Grupo_1221012" data-name="Grupo 1221012" transform="translate(2.576 3.895)">
            <g id="Grupo_1221011" data-name="Grupo 1221011">
              <g id="Grupo_1221004" data-name="Grupo 1221004" transform="translate(1.613 2.501)">
                <g id="Grupo_1221003" data-name="Grupo 1221003">
                  <path id="Trazado_1291940" data-name="Trazado 1291940" d="M26.762,19.7a.707.707,0,0,0,.045.057c.4.45,1.515.4,1.574.4-.044.448-.1.745-.1.761,1.239.617-.289,2.615-.369,2.72a7.243,7.243,0,0,1-.855,2.4,6.988,6.988,0,0,1-2.423,2.586,2.031,2.031,0,0,1-1.943.26,1.948,1.948,0,0,1-.845-1.627c-1.622-.2-.48-2.3-.42-2.414l-.034-.628a4.2,4.2,0,0,0,1.01-.438A20.147,20.147,0,0,0,26.762,19.7Z" transform="translate(-20.979 -19.698)" fill="#f4d6d4"/>
                </g>
              </g>
              <g id="Grupo_1221006" data-name="Grupo 1221006" transform="translate(1.957)">
                <g id="Grupo_1221005" data-name="Grupo 1221005">
                  <path id="Trazado_1291941" data-name="Trazado 1291941" d="M24.087,19.495a5,5,0,0,1,2.665-.719c1.531-.323,1.534,1.747,1.417,2.922,0,0-1.172.051-1.574-.4a.558.558,0,0,1-.045-.057,20.148,20.148,0,0,1-4.362,4.077,4.2,4.2,0,0,1-1.01.438l-.062-1.036a5.767,5.767,0,0,1,.963-3.272,5.864,5.864,0,0,1,2.008-1.954Z" transform="translate(-21.11 -18.742)" fill="#1d2943"/>
                </g>
              </g>
              <g id="Grupo_1221008" data-name="Grupo 1221008" transform="translate(3.324 8.839)">
                <g id="Grupo_1221007" data-name="Grupo 1221007">
                  <path id="Trazado_1291942" data-name="Trazado 1291942" d="M26,22.768a1.468,1.468,0,0,0,.184.754,1.213,1.213,0,0,1-.139-.346l0,.287a4.843,4.843,0,0,1-2.195,3.816c-1.226.708-2.21.146-2.218-1.254l0-1.057a2.031,2.031,0,0,0,1.943-.26A6.987,6.987,0,0,0,26,22.121Z" transform="translate(-21.633 -22.121)" fill="#f5c9c6"/>
                </g>
              </g>
              <g id="Grupo_1221010" data-name="Grupo 1221010" transform="translate(0 9.893)">
                <g id="Grupo_1221009" data-name="Grupo 1221009">
                  <path id="Trazado_1291943" data-name="Trazado 1291943" d="M31.474,22.839a16.36,16.36,0,0,1-5.538,5.708c-2.154,1.242-4.116,1.413-5.573.681a5.054,5.054,0,0,1,1.682-1.721,3.308,3.308,0,0,0,1.162-1.23,2.532,2.532,0,0,0,.128-.244,3.257,3.257,0,0,0,.347-1.374v-.344l.006,1.056a1.644,1.644,0,0,0,.01.18.6.6,0,0,0,.01.109,1.36,1.36,0,0,0,.039.238.511.511,0,0,0,.029.106,1.5,1.5,0,0,0,.164.385,1.02,1.02,0,0,0,.058.087c.019.022.035.045.055.064a.389.389,0,0,0,.067.077,1.07,1.07,0,0,0,.09.08.7.7,0,0,0,.1.071.882.882,0,0,0,.222.106.94.94,0,0,0,.25.051,1.406,1.406,0,0,0,.485-.035.608.608,0,0,0,.125-.035.9.9,0,0,0,.122-.039.678.678,0,0,0,.09-.039.24.24,0,0,0,.042-.019c.016-.006.032-.013.051-.022a1.216,1.216,0,0,0,.17-.087.189.189,0,0,0,.035-.019s0,0,.006-.006c.071-.039.135-.08.2-.125s.132-.093.2-.144c.029-.022.058-.045.087-.071s.061-.051.087-.077a1.5,1.5,0,0,0,.18-.17,1.18,1.18,0,0,0,.09-.09c.029-.029.058-.061.087-.093.071-.08.141-.161.205-.247a4.457,4.457,0,0,0,.266-.366,5.455,5.455,0,0,0,.3-.514c.035-.071.071-.141.1-.215s.061-.144.09-.215.048-.125.071-.189c.029-.083.058-.167.08-.25a1.662,1.662,0,0,0,.045-.17.356.356,0,0,0,.022-.093c.016-.064.029-.135.039-.2a.137.137,0,0,0,.006-.035c0-.006,0-.01,0-.016.013-.087.026-.173.032-.254s.01-.177.01-.26v-.3s0,.006,0,.01l.019.067a.1.1,0,0,0,.01.029c.006.019.013.038.019.055a.06.06,0,0,0,.006.022s0,0,0,.006a.012.012,0,0,0,0,.01,0,0,0,0,0,0,0v0c0,.006.006.016.01.022.016.032.032.064.048.093l.013.022v0a.841.841,0,0,0,.6.4c.1.01.106.01.116.01a1.454,1.454,0,0,0,.751-.225,3.222,3.222,0,0,1,.382-.189,1.9,1.9,0,0,1,.97-.154,1.1,1.1,0,0,1,.411.125Z" transform="translate(-20.362 -22.524)" fill="#ffd06c"/>
                </g>
              </g>
            </g>
          </g>
        </g>
        <g id="Grupo_1221062" data-name="Grupo 1221062" transform="translate(26.631 8.529)">
          <g id="Grupo_1221029" data-name="Grupo 1221029" transform="translate(0 13.989)">
            <g id="Grupo_1221028" data-name="Grupo 1221028">
              <g id="Grupo_1221015" data-name="Grupo 1221015" transform="translate(0 17.886)">
                <g id="Grupo_1221014" data-name="Grupo 1221014">
                  <path id="Trazado_1291944" data-name="Trazado 1291944" d="M29.475,19.869l0,1.24-2.556,1.476,0-1.24Z" transform="translate(-26.919 -19.869)" fill="#dedffb"/>
                </g>
              </g>
              <g id="Grupo_1221017" data-name="Grupo 1221017" transform="translate(10.455 6.985)">
                <g id="Grupo_1221016" data-name="Grupo 1221016">
                  <path id="Trazado_1291945" data-name="Trazado 1291945" d="M41.9,15.7l0,1.24L30.92,23.282l0-1.24Z" transform="translate(-30.916 -15.701)" fill="#dedffb"/>
                </g>
              </g>
              <g id="Grupo_1221019" data-name="Grupo 1221019" transform="translate(19.654)">
                <g id="Grupo_1221018" data-name="Grupo 1221018">
                  <path id="Trazado_1291946" data-name="Trazado 1291946" d="M53.735,13.03l0,1.24-19.3,11.144,0-1.24Z" transform="translate(-34.433 -13.03)" fill="#dedffb"/>
                </g>
              </g>
              <g id="Grupo_1221021" data-name="Grupo 1221021" transform="translate(22.982 0.764)">
                <g id="Grupo_1221020" data-name="Grupo 1221020">
                  <path id="Trazado_1291947" data-name="Trazado 1291947" d="M44.937,13.322l0,1.24L35.71,19.892l0-1.24Z" transform="translate(-35.706 -13.322)" fill="#f45170"/>
                </g>
              </g>
              <g id="Grupo_1221023" data-name="Grupo 1221023" transform="translate(4.132 14.051)">
                <g id="Grupo_1221022" data-name="Grupo 1221022">
                  <path id="Trazado_1291948" data-name="Trazado 1291948" d="M33.566,18.4l0,1.24L28.5,22.568l0-1.24Z" transform="translate(-28.499 -18.402)" fill="#dedffb"/>
                </g>
              </g>
              <g id="Grupo_1221025" data-name="Grupo 1221025" transform="translate(0.009 21.01)">
                <g id="Grupo_1221024" data-name="Grupo 1221024">
                  <path id="Trazado_1291949" data-name="Trazado 1291949" d="M29.479,21.063l0,1.24-2.556,1.476,0-1.24Z" transform="translate(-26.923 -21.063)" fill="#dedffb"/>
                </g>
              </g>
              <g id="Grupo_1221027" data-name="Grupo 1221027" transform="translate(4.141 12.179)">
                <g id="Grupo_1221026" data-name="Grupo 1221026">
                  <path id="Trazado_1291950" data-name="Trazado 1291950" d="M42.222,17.687l0,1.24-13.72,7.921,0-1.24Z" transform="translate(-28.503 -17.687)" fill="#dedffb"/>
                </g>
              </g>
            </g>
          </g>
          <g id="Grupo_1221045" data-name="Grupo 1221045" transform="translate(0 6.995)">
            <g id="Grupo_1221044" data-name="Grupo 1221044">
              <g id="Grupo_1221031" data-name="Grupo 1221031" transform="translate(0 17.886)">
                <g id="Grupo_1221030" data-name="Grupo 1221030">
                  <path id="Trazado_1291951" data-name="Trazado 1291951" d="M29.475,17.194l0,1.24-2.556,1.476,0-1.24Z" transform="translate(-26.919 -17.194)" fill="#dedffb"/>
                </g>
              </g>
              <g id="Grupo_1221033" data-name="Grupo 1221033" transform="translate(10.455 6.985)">
                <g id="Grupo_1221032" data-name="Grupo 1221032">
                  <path id="Trazado_1291952" data-name="Trazado 1291952" d="M41.9,13.027l0,1.24L30.92,20.608l0-1.24Z" transform="translate(-30.916 -13.027)" fill="#dedffb"/>
                </g>
              </g>
              <g id="Grupo_1221035" data-name="Grupo 1221035" transform="translate(19.654)">
                <g id="Grupo_1221034" data-name="Grupo 1221034">
                  <path id="Trazado_1291953" data-name="Trazado 1291953" d="M53.735,10.356l0,1.24L34.437,22.74l0-1.24Z" transform="translate(-34.433 -10.356)" fill="#78e75a"/>
                </g>
              </g>
              <g id="Grupo_1221037" data-name="Grupo 1221037" transform="translate(22.982 0.764)">
                <g id="Grupo_1221036" data-name="Grupo 1221036">
                  <path id="Trazado_1291954" data-name="Trazado 1291954" d="M44.937,10.648l0,1.24L35.71,17.218l0-1.24Z" transform="translate(-35.706 -10.648)" fill="#dedffb"/>
                </g>
              </g>
              <g id="Grupo_1221039" data-name="Grupo 1221039" transform="translate(4.132 14.051)">
                <g id="Grupo_1221038" data-name="Grupo 1221038">
                  <path id="Trazado_1291955" data-name="Trazado 1291955" d="M33.566,15.728l0,1.24L28.5,19.894l0-1.24Z" transform="translate(-28.499 -15.728)" fill="#dba660"/>
                </g>
              </g>
              <g id="Grupo_1221041" data-name="Grupo 1221041" transform="translate(0.009 21.01)">
                <g id="Grupo_1221040" data-name="Grupo 1221040">
                  <path id="Trazado_1291956" data-name="Trazado 1291956" d="M29.479,18.389l0,1.24L26.926,21.1l0-1.24Z" transform="translate(-26.923 -18.389)" fill="#dedffb"/>
                </g>
              </g>
              <g id="Grupo_1221043" data-name="Grupo 1221043" transform="translate(4.141 12.179)">
                <g id="Grupo_1221042" data-name="Grupo 1221042">
                  <path id="Trazado_1291957" data-name="Trazado 1291957" d="M42.222,15.013l0,1.24-13.72,7.921,0-1.24Z" transform="translate(-28.503 -15.013)" fill="#dedffb"/>
                </g>
              </g>
            </g>
          </g>
          <g id="Grupo_1221061" data-name="Grupo 1221061">
            <g id="Grupo_1221060" data-name="Grupo 1221060">
              <g id="Grupo_1221047" data-name="Grupo 1221047" transform="translate(0 17.886)">
                <g id="Grupo_1221046" data-name="Grupo 1221046">
                  <path id="Trazado_1291958" data-name="Trazado 1291958" d="M29.475,14.52l0,1.24-2.556,1.476,0-1.24Z" transform="translate(-26.919 -14.52)" fill="#dedffb"/>
                </g>
              </g>
              <g id="Grupo_1221049" data-name="Grupo 1221049" transform="translate(10.455 6.985)">
                <g id="Grupo_1221048" data-name="Grupo 1221048">
                  <path id="Trazado_1291959" data-name="Trazado 1291959" d="M41.9,10.352l0,1.24L30.92,17.934l0-1.24Z" transform="translate(-30.916 -10.352)" fill="#dedffb"/>
                </g>
              </g>
              <g id="Grupo_1221051" data-name="Grupo 1221051" transform="translate(19.654)">
                <g id="Grupo_1221050" data-name="Grupo 1221050">
                  <path id="Trazado_1291960" data-name="Trazado 1291960" d="M53.735,7.682l0,1.24-19.3,11.144,0-1.24Z" transform="translate(-34.433 -7.682)" fill="#dedffb"/>
                </g>
              </g>
              <g id="Grupo_1221053" data-name="Grupo 1221053" transform="translate(22.982 0.764)">
                <g id="Grupo_1221052" data-name="Grupo 1221052">
                  <path id="Trazado_1291961" data-name="Trazado 1291961" d="M44.937,7.974l0,1.24L35.71,14.544l0-1.24Z" transform="translate(-35.706 -7.974)" fill="#8fabfe"/>
                </g>
              </g>
              <g id="Grupo_1221055" data-name="Grupo 1221055" transform="translate(4.132 14.051)">
                <g id="Grupo_1221054" data-name="Grupo 1221054">
                  <path id="Trazado_1291962" data-name="Trazado 1291962" d="M33.566,13.054l0,1.24L28.5,17.22l0-1.24Z" transform="translate(-28.499 -13.054)" fill="#dedffb"/>
                </g>
              </g>
              <g id="Grupo_1221057" data-name="Grupo 1221057" transform="translate(0.009 21.01)">
                <g id="Grupo_1221056" data-name="Grupo 1221056">
                  <path id="Trazado_1291963" data-name="Trazado 1291963" d="M29.479,15.715l0,1.24-2.556,1.476,0-1.24Z" transform="translate(-26.923 -15.715)" fill="#dedffb"/>
                </g>
              </g>
              <g id="Grupo_1221059" data-name="Grupo 1221059" transform="translate(4.141 12.179)">
                <g id="Grupo_1221058" data-name="Grupo 1221058">
                  <path id="Trazado_1291964" data-name="Trazado 1291964" d="M42.222,12.338l0,1.24L28.506,21.5l0-1.24Z" transform="translate(-28.503 -12.338)" fill="#dedffb"/>
                </g>
              </g>
            </g>
          </g>
        </g>
      </g>
      <g id="Grupo_1221067" data-name="Grupo 1221067" transform="translate(0.004 71.826)">
        <g id="Grupo_1221066" data-name="Grupo 1221066">
          <g id="Grupo_1221065" data-name="Grupo 1221065">
            <g id="Grupo_1221064" data-name="Grupo 1221064">
              <path id="Trazado_1291965" data-name="Trazado 1291965" d="M20.282,44.776a5.216,5.216,0,0,1-2.354,4.08L7.388,54.925c-.759.445-1.465.419-1.857-.026L2.889,53.355a1.614,1.614,0,0,1-.68-1.491L2.183,39.781A5.141,5.141,0,0,1,4.51,35.726l10.541-6.068a1.619,1.619,0,0,1,1.648-.183l2.956,1.779a1.777,1.777,0,0,1,.575,1.465Z" transform="translate(-2.183 -29.325)" fill="#566df9"/>
            </g>
          </g>
        </g>
      </g>
      <g id="Grupo_1221076" data-name="Grupo 1221076" transform="translate(0 71.83)">
        <g id="Grupo_1221069" data-name="Grupo 1221069" transform="translate(2.843 1.721)">
          <g id="Grupo_1221068" data-name="Grupo 1221068">
            <path id="Trazado_1291966" data-name="Trazado 1291966" d="M16.13,30.305c1.3-.748,2.352-.146,2.356,1.343l.034,12.075a5.166,5.166,0,0,1-2.341,4.055L5.646,53.859c-1.3.748-2.34.139-2.344-1.35L3.268,40.434A5.14,5.14,0,0,1,5.6,36.387Z" transform="translate(-3.268 -29.984)" fill="#8fabfe"/>
          </g>
        </g>
        <g id="Grupo_1221070" data-name="Grupo 1221070">
          <path id="Trazado_1291967" data-name="Trazado 1291967" d="M5.814,55.085a1.651,1.651,0,0,1-.686-1.512L5.094,41.5A5.14,5.14,0,0,1,7.423,37.45l10.533-6.081a1.663,1.663,0,0,1,1.69-.1l-2.932-1.779a1.656,1.656,0,0,0-1.671.162L4.51,35.729a5.14,5.14,0,0,0-2.329,4.048l.034,12.075A1.651,1.651,0,0,0,2.9,53.364Z" transform="translate(-2.181 -29.326)" fill="#566df9"/>
        </g>
        <g id="Grupo_1221075" data-name="Grupo 1221075" transform="translate(4.353 9.247)">
          <g id="Grupo_1221072" data-name="Grupo 1221072" transform="translate(6.495)">
            <g id="Grupo_1221071" data-name="Grupo 1221071">
              <path id="Trazado_1291968" data-name="Trazado 1291968" d="M7.079,32.966c.422-.243.76-.044.761.427a1.646,1.646,0,0,1-.756,1.3c-.416.24-.754.054-.755-.43A1.665,1.665,0,0,1,7.079,32.966Z" transform="translate(-6.328 -32.861)" fill="#fff"/>
            </g>
          </g>
          <g id="Grupo_1221074" data-name="Grupo 1221074" transform="translate(0 1.105)">
            <g id="Grupo_1221073" data-name="Grupo 1221073">
              <path id="Trazado_1291969" data-name="Trazado 1291969" d="M7.79,33.953l3.188,5.112L13.1,33.284l2.975,4.59L3.845,44.937Z" transform="translate(-3.845 -33.284)" fill="#fff"/>
            </g>
          </g>
        </g>
      </g>
    </g>
    <g id="Grupo_1221142" data-name="Grupo 1221142" transform="translate(36.043 60.676)">
      <g id="Grupo_1221093" data-name="Grupo 1221093" transform="translate(0 25.278)">
        <g id="Grupo_1221092" data-name="Grupo 1221092">
          <g id="Grupo_1221079" data-name="Grupo 1221079" transform="translate(0 18.81)">
            <g id="Grupo_1221078" data-name="Grupo 1221078">
              <path id="Trazado_1291970" data-name="Trazado 1291970" d="M19.741,41.205l.015,5.3-4.614,2.664-.015-5.3Z" transform="translate(-15.127 -41.205)" fill="#fff"/>
            </g>
          </g>
          <g id="Grupo_1221081" data-name="Grupo 1221081" transform="translate(8.392 14.854)">
            <g id="Grupo_1221080" data-name="Grupo 1221080">
              <path id="Trazado_1291971" data-name="Trazado 1291971" d="M21.408,39.693l0,1.491L18.34,42.958l0-1.491Z" transform="translate(-18.336 -39.693)" fill="#fff"/>
            </g>
          </g>
          <g id="Grupo_1221083" data-name="Grupo 1221083" transform="translate(20.959 1.751)">
            <g id="Grupo_1221082" data-name="Grupo 1221082">
              <path id="Trazado_1291972" data-name="Trazado 1291972" d="M36.343,34.683l0,1.491L23.145,43.8l0-1.491Z" transform="translate(-23.141 -34.683)" fill="#fff"/>
            </g>
          </g>
          <g id="Grupo_1221085" data-name="Grupo 1221085" transform="translate(32.017)">
            <g id="Grupo_1221084" data-name="Grupo 1221084">
              <path id="Trazado_1291973" data-name="Trazado 1291973" d="M39.059,34.014l-11.691,6.75,0,1.491,11.687-6.747Z" transform="translate(-27.368 -34.014)" fill="#fff"/>
            </g>
          </g>
          <g id="Grupo_1221087" data-name="Grupo 1221087" transform="translate(13.36 10.244)">
            <g id="Grupo_1221086" data-name="Grupo 1221086">
              <path id="Trazado_1291974" data-name="Trazado 1291974" d="M26.326,37.93l0,1.491-6.091,3.516,0-1.491Z" transform="translate(-20.235 -37.93)" fill="#fff"/>
            </g>
          </g>
          <g id="Grupo_1221089" data-name="Grupo 1221089" transform="translate(8.403 18.61)">
            <g id="Grupo_1221088" data-name="Grupo 1221088">
              <path id="Trazado_1291975" data-name="Trazado 1291975" d="M21.413,41.129l0,1.491-3.073,1.774,0-1.491Z" transform="translate(-18.34 -41.129)" fill="#fff"/>
            </g>
          </g>
          <g id="Grupo_1221091" data-name="Grupo 1221091" transform="translate(13.37 7.994)">
            <g id="Grupo_1221090" data-name="Grupo 1221090">
              <path id="Trazado_1291976" data-name="Trazado 1291976" d="M36.731,37.07l0,1.491L20.243,48.083l0-1.491Z" transform="translate(-20.239 -37.07)" fill="#fff"/>
            </g>
          </g>
        </g>
      </g>
      <g id="Grupo_1221109" data-name="Grupo 1221109" transform="translate(0 16.815)">
        <g id="Grupo_1221108" data-name="Grupo 1221108">
          <g id="Grupo_1221095" data-name="Grupo 1221095" transform="translate(0 18.81)">
            <g id="Grupo_1221094" data-name="Grupo 1221094">
              <path id="Trazado_1291977" data-name="Trazado 1291977" d="M19.741,37.97l.015,5.3L15.142,45.93l-.015-5.3Z" transform="translate(-15.127 -37.97)" fill="#febc1f"/>
            </g>
          </g>
          <g id="Grupo_1221097" data-name="Grupo 1221097" transform="translate(8.392 14.855)">
            <g id="Grupo_1221096" data-name="Grupo 1221096">
              <path id="Trazado_1291978" data-name="Trazado 1291978" d="M21.408,36.457l0,1.491L18.34,39.722l0-1.491Z" transform="translate(-18.336 -36.457)" fill="#fff"/>
            </g>
          </g>
          <g id="Grupo_1221099" data-name="Grupo 1221099" transform="translate(20.959 1.751)">
            <g id="Grupo_1221098" data-name="Grupo 1221098">
              <path id="Trazado_1291979" data-name="Trazado 1291979" d="M36.343,31.448l0,1.491-13.2,7.622,0-1.491Z" transform="translate(-23.141 -31.448)" fill="#fff"/>
            </g>
          </g>
          <g id="Grupo_1221101" data-name="Grupo 1221101" transform="translate(32.017)">
            <g id="Grupo_1221100" data-name="Grupo 1221100">
              <path id="Trazado_1291980" data-name="Trazado 1291980" d="M39.059,30.778l-11.691,6.75,0,1.491,11.687-6.747Z" transform="translate(-27.368 -30.778)" fill="#fff"/>
            </g>
          </g>
          <g id="Grupo_1221103" data-name="Grupo 1221103" transform="translate(13.36 10.244)">
            <g id="Grupo_1221102" data-name="Grupo 1221102">
              <path id="Trazado_1291981" data-name="Trazado 1291981" d="M26.326,34.695l0,1.491L20.239,39.7l0-1.491Z" transform="translate(-20.235 -34.695)" fill="#fff"/>
            </g>
          </g>
          <g id="Grupo_1221105" data-name="Grupo 1221105" transform="translate(8.403 18.61)">
            <g id="Grupo_1221104" data-name="Grupo 1221104">
              <path id="Trazado_1291982" data-name="Trazado 1291982" d="M21.413,37.893l0,1.491-3.073,1.774,0-1.491Z" transform="translate(-18.34 -37.893)" fill="#fff"/>
            </g>
          </g>
          <g id="Grupo_1221107" data-name="Grupo 1221107" transform="translate(13.37 7.994)">
            <g id="Grupo_1221106" data-name="Grupo 1221106">
              <path id="Trazado_1291983" data-name="Trazado 1291983" d="M36.731,33.835l0,1.491L20.243,44.847l0-1.491Z" transform="translate(-20.239 -33.835)" fill="#fff"/>
            </g>
          </g>
        </g>
      </g>
      <g id="Grupo_1221125" data-name="Grupo 1221125" transform="translate(0 8.408)">
        <g id="Grupo_1221124" data-name="Grupo 1221124">
          <g id="Grupo_1221111" data-name="Grupo 1221111" transform="translate(0 18.81)">
            <g id="Grupo_1221110" data-name="Grupo 1221110">
              <path id="Trazado_1291984" data-name="Trazado 1291984" d="M19.741,34.755l.015,5.3-4.614,2.664-.015-5.3Z" transform="translate(-15.127 -34.755)" fill="#fff"/>
            </g>
          </g>
          <g id="Grupo_1221113" data-name="Grupo 1221113" transform="translate(8.392 14.855)">
            <g id="Grupo_1221112" data-name="Grupo 1221112">
              <path id="Trazado_1291985" data-name="Trazado 1291985" d="M21.408,33.243l0,1.491L18.34,36.508l0-1.491Z" transform="translate(-18.336 -33.243)" fill="#fff"/>
            </g>
          </g>
          <g id="Grupo_1221115" data-name="Grupo 1221115" transform="translate(20.959 1.751)">
            <g id="Grupo_1221114" data-name="Grupo 1221114">
              <path id="Trazado_1291986" data-name="Trazado 1291986" d="M36.343,28.233l0,1.491-13.2,7.622,0-1.491Z" transform="translate(-23.141 -28.233)" fill="#fff"/>
            </g>
          </g>
          <g id="Grupo_1221117" data-name="Grupo 1221117" transform="translate(32.017)">
            <g id="Grupo_1221116" data-name="Grupo 1221116">
              <path id="Trazado_1291987" data-name="Trazado 1291987" d="M39.059,27.564l-11.691,6.75,0,1.491,11.687-6.747Z" transform="translate(-27.368 -27.564)" fill="#fff"/>
            </g>
          </g>
          <g id="Grupo_1221119" data-name="Grupo 1221119" transform="translate(13.36 10.244)">
            <g id="Grupo_1221118" data-name="Grupo 1221118">
              <path id="Trazado_1291988" data-name="Trazado 1291988" d="M26.326,31.48l0,1.491-6.091,3.516,0-1.491Z" transform="translate(-20.235 -31.48)" fill="#fff"/>
            </g>
          </g>
          <g id="Grupo_1221121" data-name="Grupo 1221121" transform="translate(8.403 18.61)">
            <g id="Grupo_1221120" data-name="Grupo 1221120">
              <path id="Trazado_1291989" data-name="Trazado 1291989" d="M21.413,34.679l0,1.491-3.073,1.774,0-1.491Z" transform="translate(-18.34 -34.679)" fill="#fff"/>
            </g>
          </g>
          <g id="Grupo_1221123" data-name="Grupo 1221123" transform="translate(13.37 7.994)">
            <g id="Grupo_1221122" data-name="Grupo 1221122">
              <path id="Trazado_1291990" data-name="Trazado 1291990" d="M36.731,30.62l0,1.491L20.243,41.632l0-1.491Z" transform="translate(-20.239 -30.62)" fill="#fff"/>
            </g>
          </g>
        </g>
      </g>
      <g id="Grupo_1221141" data-name="Grupo 1221141">
        <g id="Grupo_1221140" data-name="Grupo 1221140">
          <g id="Grupo_1221127" data-name="Grupo 1221127" transform="translate(0 18.81)">
            <g id="Grupo_1221126" data-name="Grupo 1221126">
              <path id="Trazado_1291991" data-name="Trazado 1291991" d="M19.741,31.541l.015,5.3L15.142,39.5l-.015-5.3Z" transform="translate(-15.127 -31.541)" fill="#febc1f"/>
            </g>
          </g>
          <g id="Grupo_1221129" data-name="Grupo 1221129" transform="translate(8.392 14.854)">
            <g id="Grupo_1221128" data-name="Grupo 1221128">
              <path id="Trazado_1291992" data-name="Trazado 1291992" d="M21.408,30.028l0,1.491L18.34,33.293l0-1.491Z" transform="translate(-18.336 -30.028)" fill="#fff"/>
            </g>
          </g>
          <g id="Grupo_1221131" data-name="Grupo 1221131" transform="translate(20.959 1.751)">
            <g id="Grupo_1221130" data-name="Grupo 1221130">
              <path id="Trazado_1291993" data-name="Trazado 1291993" d="M36.343,25.019l0,1.491-13.2,7.622,0-1.491Z" transform="translate(-23.141 -25.019)" fill="#fff"/>
            </g>
          </g>
          <g id="Grupo_1221133" data-name="Grupo 1221133" transform="translate(32.017)">
            <g id="Grupo_1221132" data-name="Grupo 1221132">
              <path id="Trazado_1291994" data-name="Trazado 1291994" d="M39.059,24.349,27.368,31.1l0,1.491,11.687-6.747Z" transform="translate(-27.368 -24.349)" fill="#fff"/>
            </g>
          </g>
          <g id="Grupo_1221135" data-name="Grupo 1221135" transform="translate(13.36 10.244)">
            <g id="Grupo_1221134" data-name="Grupo 1221134">
              <path id="Trazado_1291995" data-name="Trazado 1291995" d="M26.326,28.266l0,1.491-6.091,3.517,0-1.491Z" transform="translate(-20.235 -28.266)" fill="#fff"/>
            </g>
          </g>
          <g id="Grupo_1221137" data-name="Grupo 1221137" transform="translate(8.403 18.61)">
            <g id="Grupo_1221136" data-name="Grupo 1221136">
              <path id="Trazado_1291996" data-name="Trazado 1291996" d="M21.413,31.464l0,1.491-3.073,1.774,0-1.491Z" transform="translate(-18.34 -31.464)" fill="#fff"/>
            </g>
          </g>
          <g id="Grupo_1221139" data-name="Grupo 1221139" transform="translate(13.37 7.994)">
            <g id="Grupo_1221138" data-name="Grupo 1221138">
              <path id="Trazado_1291997" data-name="Trazado 1291997" d="M36.731,27.406l0,1.491L20.243,38.418l0-1.491Z" transform="translate(-20.239 -27.406)" fill="#fff"/>
            </g>
          </g>
        </g>
      </g>
    </g>
    <g id="Grupo_1221187" data-name="Grupo 1221187" transform="translate(74.897 51.183)">
      <g id="Grupo_1221180" data-name="Grupo 1221180">
        <g id="Grupo_1221145" data-name="Grupo 1221145">
          <g id="Grupo_1221144" data-name="Grupo 1221144">
            <g id="Grupo_1221143" data-name="Grupo 1221143">
              <path id="Trazado_1291998" data-name="Trazado 1291998" d="M81.864,58.6a5.881,5.881,0,0,1-2.683,4.649L36.11,88.126a1.909,1.909,0,0,1-1.923.187l-3.316-1.93a1.929,1.929,0,0,1-.789-1.736l-.014-4.735-.086-29.3a5.96,5.96,0,0,1,2.7-4.663L75.75,21.089a1.883,1.883,0,0,1,1.908-.187l3.216,1.872a.3.3,0,0,1,.086.057,1.813,1.813,0,0,1,.8,1.736l.086,29.3Z" transform="translate(-29.982 -20.72)" fill="#e9e7fc"/>
            </g>
          </g>
        </g>
        <g id="Grupo_1221179" data-name="Grupo 1221179" transform="translate(0.006 0.001)">
          <g id="Grupo_1221172" data-name="Grupo 1221172">
            <g id="Grupo_1221171" data-name="Grupo 1221171">
              <g id="Grupo_1221154" data-name="Grupo 1221154" transform="translate(25.284 47.354)">
                <g id="Grupo_1221153" data-name="Grupo 1221153">
                  <g id="Grupo_1221152" data-name="Grupo 1221152">
                    <g id="Grupo_1221151" data-name="Grupo 1221151">
                      <g id="Grupo_1221150" data-name="Grupo 1221150">
                        <g id="Grupo_1221149" data-name="Grupo 1221149">
                          <g id="Grupo_1221148" data-name="Grupo 1221148">
                            <g id="Grupo_1221147" data-name="Grupo 1221147">
                              <g id="Grupo_1221146" data-name="Grupo 1221146">
                                <path id="Trazado_1291999" data-name="Trazado 1291999" d="M43.506,39.209a.978.978,0,0,1,.009,1.851,3.52,3.52,0,0,1-3.2,0,.979.979,0,0,1-.01-1.853,3.518,3.518,0,0,1,3.2,0Z" transform="translate(-39.651 -38.824)" fill="#e9e8e6"/>
                              </g>
                            </g>
                          </g>
                        </g>
                      </g>
                    </g>
                  </g>
                </g>
              </g>
              <g id="Grupo_1221167" data-name="Grupo 1221167">
                <g id="Grupo_1221166" data-name="Grupo 1221166">
                  <g id="Grupo_1221160" data-name="Grupo 1221160" transform="translate(0.081 30.117)">
                    <g id="Grupo_1221155" data-name="Grupo 1221155" transform="translate(0 3.027)">
                      <path id="Trazado_1292000" data-name="Trazado 1292000" d="M81.81,38.127a5.881,5.881,0,0,1-2.683,4.649L36.057,67.653a1.9,1.9,0,0,1-1.923.172L30.819,65.91a1.929,1.929,0,0,1-.789-1.736l-.014-4.735,3.316,1.93L81.8,33.392Z" transform="translate(-30.015 -33.392)" fill="#6d4eea"/>
                    </g>
                    <g id="Grupo_1221157" data-name="Grupo 1221157" transform="translate(0.004)">
                      <g id="Grupo_1221156" data-name="Grupo 1221156">
                        <path id="Trazado_1292001" data-name="Trazado 1292001" d="M33.331,63.242l-3.314-1.928L76.591,32.235,81.8,35.26Z" transform="translate(-30.017 -32.235)" fill="#d3daea"/>
                      </g>
                    </g>
                    <g id="Grupo_1221159" data-name="Grupo 1221159" transform="translate(3.319 3.026)">
                      <g id="Grupo_1221158" data-name="Grupo 1221158">
                        <path id="Trazado_1292002" data-name="Trazado 1292002" d="M79.75,33.391l.013,4.731a5.933,5.933,0,0,1-2.689,4.658L34,67.647c-1.5.863-2.7.165-2.707-1.542l-.013-4.731Z" transform="translate(-31.284 -33.391)" fill="#4c5c75"/>
                      </g>
                    </g>
                  </g>
                  <g id="Grupo_1221165" data-name="Grupo 1221165">
                    <g id="Grupo_1221162" data-name="Grupo 1221162">
                      <g id="Grupo_1221161" data-name="Grupo 1221161">
                        <path id="Trazado_1292003" data-name="Trazado 1292003" d="M80.977,22.827c-.488-.281.588,11.949-.158,12.385L51.309,63.144c-1.492.864-8.464,1.854-8.456,3.567L33.382,81.843l-3.316-1.924-.081-29.3a5.957,5.957,0,0,1,2.689-4.669L75.748,21.088a1.893,1.893,0,0,1,1.913-.185Z" transform="translate(-29.984 -20.72)" fill="#c9cee2"/>
                      </g>
                    </g>
                    <g id="Grupo_1221164" data-name="Grupo 1221164" transform="translate(3.316 1.928)">
                      <g id="Grupo_1221163" data-name="Grupo 1221163">
                        <path id="Trazado_1292004" data-name="Trazado 1292004" d="M77.012,21.826c1.49-.86,2.7-.165,2.707,1.548l.083,29.3L31.335,80.654l-.083-29.3a5.926,5.926,0,0,1,2.689-4.663Z" transform="translate(-31.252 -21.457)" fill="#f8f9fe"/>
                      </g>
                    </g>
                  </g>
                </g>
              </g>
              <g id="Grupo_1221170" data-name="Grupo 1221170" transform="translate(17.621 18.683)">
                <g id="Grupo_1221169" data-name="Grupo 1221169">
                  <g id="Grupo_1221168" data-name="Grupo 1221168">
                    <path id="Trazado_1292005" data-name="Trazado 1292005" d="M56.161,29.05a1.142,1.142,0,0,0-1.145.106L45.94,42.773c-.88.509-4.715.182-4.715,1.2l-2.616,8.44a1.121,1.121,0,0,0,.467,1.029L37.22,52.371a1.134,1.134,0,0,1-.467-1.029l-.032-11.92a3.548,3.548,0,0,1,1.591-2.768L53.17,28.085a1.128,1.128,0,0,1,1.135-.117Z" transform="translate(-36.721 -27.863)" fill="#ef526f"/>
                  </g>
                </g>
              </g>
            </g>
          </g>
          <g id="Grupo_1221178" data-name="Grupo 1221178" transform="translate(6.153 38.303)">
            <g id="Grupo_1221174" data-name="Grupo 1221174" transform="translate(11.979)">
              <g id="Grupo_1221173" data-name="Grupo 1221173">
                <path id="Trazado_1292006" data-name="Trazado 1292006" d="M60.492,36.039a2.091,2.091,0,0,1-.948,1.642l-7.677,4.432h0L36.923,50.741a3.977,3.977,0,0,0,.207-1.1c-.017-.427-.02-.452-.023-.475a1.97,1.97,0,0,0-.19-.606l14.948-8.631h0l7.67-4.429c.525-.3.952-.062.955.543Z" transform="translate(-36.917 -35.364)" fill="#57b3fe"/>
              </g>
            </g>
            <g id="Grupo_1221176" data-name="Grupo 1221176" transform="translate(0 12.575)">
              <g id="Grupo_1221175" data-name="Grupo 1221175">
                <path id="Trazado_1292007" data-name="Trazado 1292007" d="M44.534,41.662v.2a4.041,4.041,0,0,1-.214,1.106A4.931,4.931,0,0,1,42.3,45.621c-.927.535-1.736.345-2.069-.4a.706.706,0,0,0,.048.1L33.3,49.342c-.535.3-.963.06-.963-.547a2.105,2.105,0,0,1,.951-1.641l6.979-4.03a4.971,4.971,0,0,1,2.021-2.639c.892-.523,1.664-.369,2.033.3a2.661,2.661,0,0,1,.166.464v.059c.012.024.012.024.012.036v.036a.262.262,0,0,1,.012.1c.012.012.012.012.012.024v.131a.044.044,0,0,1,.012.036Z" transform="translate(-32.337 -40.172)" fill="#febc1f"/>
              </g>
            </g>
            <g id="Grupo_1221177" data-name="Grupo 1221177" transform="translate(11.979 7.874)">
              <path id="Trazado_1292008" data-name="Trazado 1292008" d="M46.126,38.375v2.19l-9.2,5.313a3.977,3.977,0,0,0,.207-1.1c-.017-.427-.02-.452-.023-.475a1.97,1.97,0,0,0-.19-.606l9.207-5.316Z" transform="translate(-36.917 -38.375)" fill="#497bfe"/>
            </g>
          </g>
        </g>
      </g>
      <g id="Grupo_1221182" data-name="Grupo 1221182" transform="translate(19.477 19.761)">
        <g id="Grupo_1221181" data-name="Grupo 1221181">
          <path id="Trazado_1292009" data-name="Trazado 1292009" d="M53.877,28.495c.884-.511,1.6-.1,1.607.916l.034,11.915a3.519,3.519,0,0,1-1.6,2.765L39.069,52.665c-.884.511-1.6.1-1.607-.916l-.034-11.915a3.518,3.518,0,0,1,1.6-2.765Zm-10.62,17.87L49.7,38.717l-6.465-.2Z" transform="translate(-37.429 -28.275)" fill="#df3260"/>
        </g>
      </g>
      <g id="Grupo_1221184" data-name="Grupo 1221184" transform="translate(25.284 30.007)">
        <g id="Grupo_1221183" data-name="Grupo 1221183">
          <path id="Trazado_1292010" data-name="Trazado 1292010" d="M46.113,32.389,39.67,40.035l-.021-7.843Z" transform="translate(-39.649 -32.192)" fill="#fff"/>
        </g>
      </g>
      <g id="Grupo_1221186" data-name="Grupo 1221186" transform="translate(0.087 59.2)">
        <g id="Grupo_1221185" data-name="Grupo 1221185">
          <path id="Trazado_1292011" data-name="Trazado 1292011" d="M34.137,51.741l-3.316-1.924a1.913,1.913,0,0,1-.79-1.736l-.015-4.728,3.316,1.924.015,4.735a1.875,1.875,0,0,0,.79,1.729Z" transform="translate(-30.015 -43.353)" fill="#1d2943"/>
        </g>
      </g>
    </g>
  </g>
</svg>
