<svg xmlns="http://www.w3.org/2000/svg" width="63.862" height="61.712" viewBox="0 0 63.862 61.712">
  <g id="Grupo_1220174" data-name="Grupo 1220174" transform="translate(-905.722 -3432.1)">
    <path id="Trazado_1289866" data-name="Trazado 1289866" d="M397.847,83.319h-4.038V77.177a1.1,1.1,0,0,0-1.1-1.1H370.62V71.361a13.181,13.181,0,0,0,9.007-21.668l.541-.541,4.324.022h.006a1.106,1.106,0,0,0,.779-.323l4.912-4.913a1.1,1.1,0,0,0-.779-1.88h-3.746V38.313a1.1,1.1,0,0,0-1.88-.779l-4.913,4.912a1.108,1.108,0,0,0-.323.784l.022,4.406-.5.5a13.2,13.2,0,1,0-9.652,23.221v4.718H346.375a1.1,1.1,0,0,0-1.1,1.1v6.141h-4.081a3.609,3.609,0,0,0-3.605,3.606v8.394a3.609,3.609,0,0,0,3.605,3.605h10.364a3.609,3.609,0,0,0,3.6-3.605V86.925a3.609,3.609,0,0,0-3.6-3.606h-4.082v-5.04h20.942v5.04h-4.08a3.61,3.61,0,0,0-3.606,3.606v8.394a3.61,3.61,0,0,0,3.606,3.605H374.7a3.609,3.609,0,0,0,3.6-3.605V86.925a3.609,3.609,0,0,0-3.6-3.606H370.62v-5.04h20.986v5.04h-4.125a3.609,3.609,0,0,0-3.605,3.606v8.394a3.609,3.609,0,0,0,3.605,3.605h10.365a3.609,3.609,0,0,0,3.6-3.605V86.925a3.609,3.609,0,0,0-3.6-3.606m-44.886,3.606v8.394a1.4,1.4,0,0,1-1.4,1.4H341.194a1.4,1.4,0,0,1-1.4-1.4V86.925a1.4,1.4,0,0,1,1.4-1.4h10.364a1.4,1.4,0,0,1,1.4,1.4m23.143,0v8.394a1.4,1.4,0,0,1-1.4,1.4H364.338a1.4,1.4,0,0,1-1.4-1.4V86.925a1.4,1.4,0,0,1,1.4-1.4H374.7a1.4,1.4,0,0,1,1.4,1.4m7.94-39.955-1.725-.008,1.076-1.076,1.624-1.624h1.734Zm-.582-6V42.7l-1.624,1.624L380.762,45.4l-.008-1.725ZM358.551,58.212a10.994,10.994,0,0,1,17.96-8.515l-1.4,1.4a9.072,9.072,0,1,0,1.557,1.557l1.4-1.4a11,11,0,1,1-19.517,6.958m17.843,0a6.867,6.867,0,1,1-2.853-5.546L372.007,54.2a4.677,4.677,0,0,0-2.454-.708,4.719,4.719,0,1,0,4.719,4.72,4.677,4.677,0,0,0-.707-2.454l1.534-1.535a6.8,6.8,0,0,1,1.3,3.99m-4.324,0a2.518,2.518,0,1,1-2.518-2.518,2.489,2.489,0,0,1,.813.147l-1.592,1.592a1.1,1.1,0,1,0,1.557,1.557l1.592-1.592a2.484,2.484,0,0,1,.147.813m27.178,37.107a1.4,1.4,0,0,1-1.4,1.4H387.481a1.4,1.4,0,0,1-1.4-1.4V86.925a1.4,1.4,0,0,1,1.4-1.4h10.365a1.4,1.4,0,0,1,1.4,1.4Z" transform="translate(568.133 3394.888)" fill="#aaa"/>
    <path id="Trazado_1289867" data-name="Trazado 1289867" d="M343.6,88.829a1.1,1.1,0,1,0-1.557,1.557l1.708,1.708a1.1,1.1,0,0,0,1.557,0l5.2-5.2a1.1,1.1,0,0,0-1.556-1.556l-4.418,4.417Z" transform="translate(568.343 3397.313)" fill="#aaa"/>
    <path id="Trazado_1289868" data-name="Trazado 1289868" d="M365.6,88.829a1.1,1.1,0,0,0-1.557,1.557l1.708,1.708a1.1,1.1,0,0,0,1.557,0l5.2-5.2a1.1,1.1,0,1,0-1.557-1.556l-4.417,4.417Z" transform="translate(569.458 3397.313)" fill="#aaa"/>
    <path id="Trazado_1289869" data-name="Trazado 1289869" d="M392.941,85.342l-4.418,4.418-.93-.93a1.1,1.1,0,1,0-1.557,1.557l1.708,1.708a1.1,1.1,0,0,0,1.557,0l5.2-5.2a1.1,1.1,0,0,0-1.557-1.557" transform="translate(570.574 3397.313)" fill="#aaa"/>
  </g>
</svg>
