<svg xmlns="http://www.w3.org/2000/svg" width="56.977" height="63.558" viewBox="0 0 56.977 63.558">
  <g id="Grupo_1220175" data-name="Grupo 1220175" transform="translate(-403.316 -3665.894)">
    <path id="Trazado_1289870" data-name="Trazado 1289870" d="M210.786,232.05l-4.611,4.611-.972-.972a1.149,1.149,0,1,0-1.625,1.625l1.784,1.784a1.149,1.149,0,0,0,1.625,0l5.424-5.424a1.149,1.149,0,1,0-1.625-1.625" transform="translate(243.119 3439.995)" fill="#95b0f9"/>
    <path id="Trazado_1289871" data-name="Trazado 1289871" d="M199.286,234.8l-6.016-1.839a1.149,1.149,0,1,0-.671,2.2l3.612,1.1c-23.829,13.434-27.854,39.581-28.425,44.819a4.214,4.214,0,1,0,2.3.057c.594-5.257,4.575-30.066,27.212-42.854l-.753,3.774a1.149,1.149,0,0,0,.9,1.352,1.124,1.124,0,0,0,.225.022,1.15,1.15,0,0,0,1.126-.924l1.274-6.385a1.149,1.149,0,0,0-.791-1.324m-28.532,50.337a1.908,1.908,0,1,1-1.908-1.909,1.911,1.911,0,0,1,1.908,1.909" transform="translate(239.391 3440.11)" fill="#95b0f9"/>
    <path id="Trazado_1289872" data-name="Trazado 1289872" d="M208.27,226.41a9.318,9.318,0,1,0,9.318,9.318,9.329,9.329,0,0,0-9.318-9.318m0,16.337a7.019,7.019,0,1,1,7.019-7.019,7.027,7.027,0,0,1-7.019,7.019" transform="translate(242.705 3439.483)" fill="#95b0f9"/>
    <path id="Trazado_1289873" data-name="Trazado 1289873" d="M193.07,268.824a1.15,1.15,0,0,0-1.625,0l-3.333,3.331-3.333-3.331a1.149,1.149,0,0,0-1.624,1.625l3.331,3.331-3.331,3.331a1.149,1.149,0,1,0,1.624,1.625l3.333-3.331,3.333,3.331a1.149,1.149,0,1,0,1.625-1.625l-3.333-3.331,3.333-3.331a1.15,1.15,0,0,0,0-1.625" transform="translate(241.147 3443.547)" fill="#95b0f9"/>
    <path id="Trazado_1289874" data-name="Trazado 1289874" d="M208.281,252.641a1.15,1.15,0,0,0-1.625,0l-3.333,3.331-3.33-3.331a1.149,1.149,0,0,0-1.625,1.625L201.7,257.6l-3.331,3.333a1.149,1.149,0,0,0,1.625,1.624l3.33-3.331,3.333,3.331a1.149,1.149,0,1,0,1.625-1.624l-3.331-3.333,3.331-3.331a1.152,1.152,0,0,0,0-1.625" transform="translate(242.616 3441.985)" fill="#95b0f9"/>
    <path id="Trazado_1289875" data-name="Trazado 1289875" d="M165.95,244.981l3.333-3.331,3.333,3.331a1.149,1.149,0,0,0,1.625-1.625l-3.333-3.331,3.333-3.333a1.149,1.149,0,0,0-1.625-1.624l-3.333,3.331-3.333-3.331a1.149,1.149,0,1,0-1.625,1.624l3.333,3.333-3.333,3.331a1.149,1.149,0,1,0,1.625,1.625" transform="translate(239.328 3440.287)" fill="#95b0f9"/>
  </g>
</svg>
