<svg xmlns="http://www.w3.org/2000/svg" xmlns:xlink="http://www.w3.org/1999/xlink" width="108.914" height="108.914" viewBox="0 0 108.914 108.914">
  <defs>
    <filter id="Trazado_1287430" x="0" y="0" width="108.914" height="108.914" filterUnits="userSpaceOnUse">
      <feOffset dy="3" input="SourceAlpha"/>
      <feGaussianBlur stdDeviation="3" result="blur"/>
      <feFlood flood-opacity="0.161"/>
      <feComposite operator="in" in2="blur"/>
      <feComposite in="SourceGraphic"/>
    </filter>
  </defs>
  <g id="Grupo_1221375" data-name="Grupo 1221375" transform="translate(-899.981 -3224.281)">
    <g transform="matrix(1, 0, 0, 1, 899.98, 3224.28)" filter="url(#Trazado_1287430)">
      <g id="Trazado_1287430-2" data-name="Trazado 1287430" transform="translate(9 6)" fill="#d7d9de" opacity="0.859">
        <path d="M 45.45676803588867 89.41407012939453 C 39.52198028564453 89.41407012939453 33.76551818847656 88.25206756591797 28.34726715087891 85.96034240722656 C 23.11311721801758 83.74648284912109 18.41204261779785 80.57682800292969 14.37464332580566 76.5394287109375 C 10.33724308013916 72.50202941894531 7.167593002319336 67.80095672607422 4.953730583190918 62.56679534912109 C 2.662005424499512 57.14855575561523 1.500005483627319 51.39208221435547 1.500005483627319 45.45729446411133 C 1.500005483627319 39.52198028564453 2.662005424499512 33.76551818847656 4.953730583190918 28.34726905822754 C 7.167593002319336 23.11310577392578 10.33724308013916 18.41203117370605 14.37464332580566 14.37464332580566 C 18.41204261779785 10.33724403381348 23.11311721801758 7.167593955993652 28.34726715087891 4.953731060028076 C 33.76551818847656 2.662006139755249 39.52198028564453 1.500006198883057 45.45676803588867 1.500006198883057 C 51.39155578613281 1.500006198883057 57.14802932739258 2.662006139755249 62.56626892089844 4.953731060028076 C 67.80043029785156 7.167593955993652 72.50150299072266 10.33724403381348 76.53890228271484 14.37464332580566 C 80.57630920410156 18.41203117370605 83.74595642089844 23.11310577392578 85.95981597900391 28.34726905822754 C 88.25154113769531 33.76551818847656 89.41354370117188 39.52198028564453 89.41354370117188 45.45676803588867 C 89.41354370117188 51.39208221435547 88.25154113769531 57.14855575561523 85.95981597900391 62.56679534912109 C 83.74595642089844 67.80095672607422 80.57630920410156 72.50202941894531 76.53890228271484 76.5394287109375 C 72.50150299072266 80.57682800292969 67.80043029785156 83.74648284912109 62.56626892089844 85.96034240722656 C 57.14802932739258 88.25206756591797 51.39155578613281 89.41407012939453 45.45676803588867 89.41407012939453 Z" stroke="none"/>
        <path d="M 45.45676803588867 3 C 39.72381210327148 3 34.1639404296875 4.12213134765625 28.93159484863281 6.335227966308594 C 23.87622833251953 8.473472595214844 19.33542633056641 11.53517150878906 15.43529510498047 15.435302734375 C 11.53517150878906 19.33543395996094 8.473464965820312 23.87622833251953 6.335227966308594 28.93160247802734 C 4.122123718261719 34.16394424438477 3 39.72381591796875 3 45.4572868347168 C 3 51.19024658203125 4.122123718261719 56.75011825561523 6.335227966308594 61.98246002197266 C 8.473464965820312 67.03782653808594 11.53517150878906 71.57862854003906 15.43529510498047 75.478759765625 C 19.33542633056641 79.37889099121094 23.87622833251953 82.44058990478516 28.93159484863281 84.57883453369141 C 34.1639404296875 86.79193115234375 39.72381210327148 87.9140625 45.45676803588867 87.9140625 C 51.18972396850586 87.9140625 56.74959564208984 86.79193115234375 61.98194122314453 84.57883453369141 C 67.03730773925781 82.44058990478516 71.57810974121094 79.37889099121094 75.47824096679688 75.478759765625 C 79.37837219238281 71.57862854003906 82.44007110595703 67.03782653808594 84.57830810546875 61.98246002197266 C 86.79141235351562 56.75011825561523 87.91353607177734 51.19024658203125 87.91353607177734 45.4567756652832 C 87.91353607177734 39.72381591796875 86.79141235351562 34.16394424438477 84.57830810546875 28.93160247802734 C 82.44007110595703 23.87622833251953 79.37837219238281 19.33543395996094 75.47824096679688 15.435302734375 C 71.57810974121094 11.53517150878906 67.03730773925781 8.473472595214844 61.98194122314453 6.335227966308594 C 56.74959564208984 4.12213134765625 51.18972396850586 3 45.45676803588867 3 M 45.45676803588867 0 C 70.56185150146484 0 90.91353607177734 20.35169219970703 90.91353607177734 45.4567756652832 L 90.91353607177734 45.4572868347168 C 90.91353607177734 70.5623779296875 70.56185150146484 90.9140625 45.45676803588867 90.9140625 C 20.3516845703125 90.9140625 0 70.5623779296875 0 45.4572868347168 L 0 45.4567756652832 C 0 20.35169219970703 20.3516845703125 0 45.45676803588867 0 Z" stroke="none" fill="#fff"/>
      </g>
    </g>
    <g id="_x39_3" transform="translate(921.073 3248.502)">
      <g id="Grupo_1219180" data-name="Grupo 1219180" transform="translate(3.253 20.454)">
        <g id="Grupo_1219088" data-name="Grupo 1219088" transform="translate(0 3.544)">
          <g id="Grupo_1219087" data-name="Grupo 1219087">
            <g id="Grupo_1219086" data-name="Grupo 1219086">
              <g id="Grupo_1219085" data-name="Grupo 1219085">
                <g id="Grupo_1219084" data-name="Grupo 1219084">
                  <path id="Trazado_1289592" data-name="Trazado 1289592" d="M56.431,42.411a1.257,1.257,0,0,1-.741,1.04L36.1,54.77a3.95,3.95,0,0,1-3.586,0L4.006,38.2a1.266,1.266,0,0,1-.741-1.04l-.012-4.052a1.273,1.273,0,0,1,.753-1.04L23.6,20.752a3.951,3.951,0,0,1,3.586,0L55.69,37.319a1.25,1.25,0,0,1,.729,1.04Z" transform="translate(-3.253 -20.322)" fill="#1d2943"/>
                </g>
              </g>
            </g>
          </g>
        </g>
        <g id="Grupo_1219118" data-name="Grupo 1219118" transform="translate(0.001 3.549)">
          <g id="Grupo_1219104" data-name="Grupo 1219104">
            <g id="Grupo_1219093" data-name="Grupo 1219093">
              <g id="Grupo_1219092" data-name="Grupo 1219092">
                <g id="Grupo_1219089" data-name="Grupo 1219089" transform="translate(0 12.789)">
                  <path id="Trazado_1289593" data-name="Trazado 1289593" d="M3.989,32.055,32.5,48.623a3.95,3.95,0,0,0,3.584,0L55.674,37.311a1.27,1.27,0,0,0,.75-1.046l.011,4.053a1.27,1.27,0,0,1-.75,1.046L36.094,52.675a3.95,3.95,0,0,1-3.584,0L4,36.108a1.256,1.256,0,0,1-.735-1.029l-.011-4.053a1.256,1.256,0,0,0,.735,1.029Z" transform="translate(-3.254 -31.026)" fill="#b0b8cf"/>
                </g>
                <g id="Grupo_1219091" data-name="Grupo 1219091" transform="translate(0)">
                  <g id="Grupo_1219090" data-name="Grupo 1219090">
                    <path id="Trazado_1289594" data-name="Trazado 1289594" d="M4,32.069a1.1,1.1,0,0,0-.014,2.076L32.5,50.712a3.95,3.95,0,0,0,3.584,0L55.674,39.4a1.1,1.1,0,0,0,.014-2.076L27.178,20.756a3.947,3.947,0,0,0-3.584,0Z" transform="translate(-3.254 -20.327)" fill="#e3e7f0"/>
                  </g>
                </g>
              </g>
            </g>
            <g id="Grupo_1219103" data-name="Grupo 1219103" transform="translate(0.873 0.506)">
              <g id="Grupo_1219095" data-name="Grupo 1219095" transform="translate(37.629 21.833)">
                <g id="Grupo_1219094" data-name="Grupo 1219094">
                  <path id="Trazado_1289595" data-name="Trazado 1289595" d="M35.6,40.668a.2.2,0,0,0,0,.386l.727.423a.737.737,0,0,0,.669,0l2.721-1.571a.205.205,0,0,0,0-.389l-.727-.423a.737.737,0,0,0-.669,0Z" transform="translate(-35.466 -39.016)" fill="#9ea9c9"/>
                </g>
              </g>
              <g id="Grupo_1219102" data-name="Grupo 1219102">
                <g id="Grupo_1219097" data-name="Grupo 1219097" transform="translate(10.585 6.114)">
                  <g id="Grupo_1219096" data-name="Grupo 1219096">
                    <path id="Trazado_1289596" data-name="Trazado 1289596" d="M13.139,26.037a.437.437,0,0,0,0,.828,1.578,1.578,0,0,0,1.43,0,.438.438,0,0,0,0-.828A1.574,1.574,0,0,0,13.139,26.037Z" transform="translate(-12.84 -25.865)" fill="#9ea9c9"/>
                  </g>
                </g>
                <g id="Grupo_1219099" data-name="Grupo 1219099" transform="translate(3.528 2.046)">
                  <g id="Grupo_1219098" data-name="Grupo 1219098">
                    <path id="Trazado_1289597" data-name="Trazado 1289597" d="M6.936,33.169l25.818,15L51.3,37.465l-25.818-15Z" transform="translate(-6.936 -22.461)" fill="#fff"/>
                  </g>
                </g>
                <g id="Grupo_1219101" data-name="Grupo 1219101">
                  <g id="Grupo_1219100" data-name="Grupo 1219100">
                    <path id="Trazado_1289598" data-name="Trazado 1289598" d="M24.067,21.033a2.59,2.59,0,0,1,2.35,0L54.926,37.6a.72.72,0,0,1-.01,1.362L35.324,50.272a2.594,2.594,0,0,1-2.35,0L4.465,33.7a.719.719,0,0,1,.01-1.36Zm9.264,27.475L51.877,37.8l-25.818-15L7.512,33.5Zm9.147-3.464a.737.737,0,0,0,.669,0l2.721-1.571a.205.205,0,0,0,0-.389l-.727-.423a.737.737,0,0,0-.669,0l-2.721,1.571a.2.2,0,0,0,0,.386ZM14.868,27.035a.437.437,0,0,0,0,.828,1.578,1.578,0,0,0,1.43,0,.438.438,0,0,0,0-.828,1.574,1.574,0,0,0-1.43,0" transform="translate(-3.984 -20.75)" fill="#4c5c75"/>
                  </g>
                </g>
              </g>
            </g>
          </g>
          <g id="Grupo_1219108" data-name="Grupo 1219108" transform="translate(1.816 16.01)">
            <g id="Grupo_1219107" data-name="Grupo 1219107">
              <g id="Grupo_1219106" data-name="Grupo 1219106">
                <g id="Grupo_1219105" data-name="Grupo 1219105">
                  <path id="Trazado_1289599" data-name="Trazado 1289599" d="M9.626,36.711a.494.494,0,0,1-.2.442l-.538.311a.5.5,0,0,1-.49-.048l-2.94-1.7a1.5,1.5,0,0,1-.681-1.2.5.5,0,0,1,.2-.454.044.044,0,0,1,.036-.012l.49-.287a.467.467,0,0,1,.49.048l2.94,1.7A1.514,1.514,0,0,1,9.626,36.711Z" transform="translate(-4.773 -33.721)" fill="#1d2943"/>
                  <path id="Trazado_1289600" data-name="Trazado 1289600" d="M13.876,39.16a.5.5,0,0,1-.2.454l-.538.3a.444.444,0,0,1-.49-.048l-2.94-1.7a1.534,1.534,0,0,1-.681-1.2.44.44,0,0,1,.239-.454l.49-.3a.5.5,0,0,1,.49.048l2.94,1.7A1.514,1.514,0,0,1,13.876,39.16Z" transform="translate(-3.943 -33.242)" fill="#1d2943"/>
                </g>
              </g>
            </g>
          </g>
          <g id="Grupo_1219117" data-name="Grupo 1219117" transform="translate(1.814 16.009)">
            <g id="Grupo_1219110" data-name="Grupo 1219110" transform="translate(0 0.307)">
              <g id="Grupo_1219109" data-name="Grupo 1219109">
                <path id="Trazado_1289601" data-name="Trazado 1289601" d="M5.464,34.072c-.383-.221-.691-.04-.692.4a1.518,1.518,0,0,0,.688,1.2l2.937,1.7c.383.221.7.043.7-.4a1.528,1.528,0,0,0-.693-1.2Z" transform="translate(-4.772 -33.977)" fill="#1d2943"/>
              </g>
            </g>
            <g id="Grupo_1219116" data-name="Grupo 1219116" transform="translate(0.203)">
              <g id="Grupo_1219113" data-name="Grupo 1219113">
                <g id="Grupo_1219111" data-name="Grupo 1219111">
                  <path id="Trazado_1289602" data-name="Trazado 1289602" d="M8.9,35.511l-2.937-1.7a.485.485,0,0,0-.489-.048l-.529.307a.485.485,0,0,1,.489.048l2.937,1.7a1.528,1.528,0,0,1,.693,1.2.486.486,0,0,1-.2.445l.529-.307a.486.486,0,0,0,.2-.445,1.528,1.528,0,0,0-.693-1.2Z" transform="translate(-4.941 -33.72)" fill="#4c5c75"/>
                </g>
                <g id="Grupo_1219112" data-name="Grupo 1219112" transform="translate(5.08 2.934)">
                  <path id="Trazado_1289603" data-name="Trazado 1289603" d="M13.151,37.967l-2.942-1.7a.484.484,0,0,0-.489-.046l-.529.307a.484.484,0,0,1,.489.046l2.942,1.7a1.526,1.526,0,0,1,.688,1.2.487.487,0,0,1-.2.446l.529-.307a.487.487,0,0,0,.2-.446A1.526,1.526,0,0,0,13.151,37.967Z" transform="translate(-9.191 -36.175)" fill="#4c5c75"/>
                </g>
              </g>
              <g id="Grupo_1219115" data-name="Grupo 1219115" transform="translate(4.876 3.241)">
                <g id="Grupo_1219114" data-name="Grupo 1219114">
                  <path id="Trazado_1289604" data-name="Trazado 1289604" d="M9.713,36.525c-.379-.219-.691-.04-.692.4a1.526,1.526,0,0,0,.688,1.2l2.942,1.7c.379.219.691.04.692-.4a1.526,1.526,0,0,0-.688-1.2Z" transform="translate(-9.021 -36.432)" fill="#1d2943"/>
                </g>
              </g>
            </g>
          </g>
        </g>
        <g id="Grupo_1219179" data-name="Grupo 1219179" transform="translate(11.701)">
          <g id="Grupo_1219126" data-name="Grupo 1219126" transform="translate(4.816 16.91)">
            <g id="Grupo_1219125" data-name="Grupo 1219125">
              <g id="Grupo_1219120" data-name="Grupo 1219120" transform="translate(3.039 1.755)">
                <g id="Grupo_1219119" data-name="Grupo 1219119">
                  <path id="Trazado_1289605" data-name="Trazado 1289605" d="M22.824,32.973l0,1.018-3.208,1.865,0-1.018Z" transform="translate(-19.614 -32.973)" fill="#e9e7fc"/>
                </g>
              </g>
              <g id="Grupo_1219122" data-name="Grupo 1219122" transform="translate(0 1.865)">
                <g id="Grupo_1219121" data-name="Grupo 1219121">
                  <path id="Trazado_1289606" data-name="Trazado 1289606" d="M20.112,34.82l0,1.018-3.039-1.755,0-1.018Z" transform="translate(-17.072 -33.065)" fill="#dedffb"/>
                </g>
              </g>
              <g id="Grupo_1219124" data-name="Grupo 1219124" transform="translate(0.002)">
                <g id="Grupo_1219123" data-name="Grupo 1219123">
                  <path id="Trazado_1289607" data-name="Trazado 1289607" d="M23.32,33.26l-3.208,1.865-3.039-1.755L20.281,31.5Z" transform="translate(-17.073 -31.505)" fill="#f8f9fe"/>
                </g>
              </g>
            </g>
          </g>
          <g id="Grupo_1219178" data-name="Grupo 1219178">
            <g id="Grupo_1219177" data-name="Grupo 1219177">
              <g id="Grupo_1219134" data-name="Grupo 1219134" transform="translate(4.789 8.923)">
                <g id="Grupo_1219133" data-name="Grupo 1219133">
                  <g id="Grupo_1219128" data-name="Grupo 1219128" transform="translate(0 1.86)">
                    <g id="Grupo_1219127" data-name="Grupo 1219127">
                      <path id="Trazado_1289608" data-name="Trazado 1289608" d="M18.674,35.3l-1.6-.931-.027-7.988,1.6.931Z" transform="translate(-17.049 -26.379)" fill="#dedffb"/>
                    </g>
                  </g>
                  <g id="Grupo_1219130" data-name="Grupo 1219130" transform="translate(0)">
                    <g id="Grupo_1219129" data-name="Grupo 1219129">
                      <path id="Trazado_1289609" data-name="Trazado 1289609" d="M18.649,27.612l-1.6-.929,3.221-1.86,1.6.929Z" transform="translate(-17.05 -24.823)" fill="#fff"/>
                    </g>
                  </g>
                  <g id="Grupo_1219132" data-name="Grupo 1219132" transform="translate(1.598 0.928)">
                    <g id="Grupo_1219131" data-name="Grupo 1219131">
                      <path id="Trazado_1289610" data-name="Trazado 1289610" d="M21.629,33.595l-3.216,1.856-.027-7.988L21.609,25.6Z" transform="translate(-18.386 -25.599)" fill="#e9e7fc"/>
                    </g>
                  </g>
                </g>
              </g>
              <g id="Grupo_1219140" data-name="Grupo 1219140" transform="translate(7.349 12.702)">
                <g id="Grupo_1219139" data-name="Grupo 1219139">
                  <g id="Grupo_1219136" data-name="Grupo 1219136" transform="translate(0.007)">
                    <g id="Grupo_1219135" data-name="Grupo 1219135">
                      <path id="Trazado_1289611" data-name="Trazado 1289611" d="M19.2,28.719l1.265-.735a12.24,12.24,0,0,0,1.431,3.18l-1.265.735a12.24,12.24,0,0,1-1.431-3.18Z" transform="translate(-19.196 -27.984)" fill="#c2d0f9"/>
                    </g>
                  </g>
                  <g id="Grupo_1219138" data-name="Grupo 1219138" transform="translate(0 0.735)">
                    <g id="Grupo_1219137" data-name="Grupo 1219137">
                      <path id="Trazado_1289612" data-name="Trazado 1289612" d="M19.2,28.6a12.24,12.24,0,0,0,1.431,3.18l-1.438-.83Z" transform="translate(-19.191 -28.599)" fill="#678aee"/>
                    </g>
                  </g>
                </g>
              </g>
              <g id="Grupo_1219176" data-name="Grupo 1219176">
                <g id="Grupo_1219175" data-name="Grupo 1219175">
                  <g id="Grupo_1219174" data-name="Grupo 1219174">
                    <g id="Grupo_1219148" data-name="Grupo 1219148">
                      <g id="Grupo_1219147" data-name="Grupo 1219147">
                        <g id="Grupo_1219142" data-name="Grupo 1219142">
                          <g id="Grupo_1219141" data-name="Grupo 1219141">
                            <path id="Trazado_1289613" data-name="Trazado 1289613" d="M18.951,23.209l1.72,1-3.74,3.62-1.295-.753a5.211,5.211,0,0,1-1.888-7.121h0a5.211,5.211,0,0,1,7.131-1.887l1.452.846-2.245,1.3a7.893,7.893,0,0,1-1.006,2.8c-.045.068-.083.135-.128.2Z" transform="translate(-13.043 -17.357)" fill="#e9e7fc"/>
                          </g>
                        </g>
                        <g id="Grupo_1219143" data-name="Grupo 1219143" transform="translate(1.602 0.222)">
                          <path id="Trazado_1289614" data-name="Trazado 1289614" d="M26.456,22.634a8.461,8.461,0,0,1-1.231,4.172,8.641,8.641,0,0,1-3,3.167,2.967,2.967,0,0,1-3,.3c-.012-.012-.024-.012-.036-.024l-3.514-2.032-.06-.036a2.987,2.987,0,0,1-1.231-2.725,8.568,8.568,0,0,1,1.243-4.16,8.455,8.455,0,0,1,3-3.167,2.966,2.966,0,0,1,3-.3c.024.012.036.024.06.036v-.012l3.407,2a.357.357,0,0,1,.119.048.725.725,0,0,1,.12.084.264.264,0,0,1,.06.036,3.089,3.089,0,0,1,1.064,2.618Z" transform="translate(-14.383 -17.543)" fill="#f45170"/>
                        </g>
                        <g id="Grupo_1219145" data-name="Grupo 1219145" transform="translate(1.606 0.22)">
                          <g id="Grupo_1219144" data-name="Grupo 1219144">
                            <path id="Trazado_1289615" data-name="Trazado 1289615" d="M21.507,24.946,23.484,26.1l-4.3,4.158-3.509-2.041-.063-.038a2.944,2.944,0,0,1-1.227-2.715,8.516,8.516,0,0,1,1.233-4.17,8.6,8.6,0,0,1,3-3.166,2.989,2.989,0,0,1,3.007-.3l.057.038.006-.006,3.7,2.155L22.81,21.506a9.131,9.131,0,0,1-1.163,3.217c-.045.076-.089.153-.14.223Z" transform="translate(-14.386 -17.542)" fill="#c2d0f9"/>
                          </g>
                        </g>
                        <g id="Grupo_1219146" data-name="Grupo 1219146" transform="translate(5.184 2.302)">
                          <path id="Trazado_1289616" data-name="Trazado 1289616" d="M25.876,22.3a8.551,8.551,0,0,1-1.234,4.17,8.619,8.619,0,0,1-3,3.164,3.006,3.006,0,0,1-3.008.3A2.964,2.964,0,0,1,17.38,27.2a8.555,8.555,0,0,1,1.235-4.17,8.617,8.617,0,0,1,3-3.164,3.006,3.006,0,0,1,3.008-.3A2.963,2.963,0,0,1,25.876,22.3Z" transform="translate(-17.38 -19.283)" fill="#678aee"/>
                        </g>
                      </g>
                    </g>
                    <g id="Grupo_1219151" data-name="Grupo 1219151" transform="translate(5.648 2.612)">
                      <g id="Grupo_1219150" data-name="Grupo 1219150">
                        <g id="Grupo_1219149" data-name="Grupo 1219149">
                          <path id="Trazado_1289617" data-name="Trazado 1289617" d="M35.4,21.618l-6.243,6.9-1.672,4.914-.464,1.36-.744,2.174c-1.519-3.026-4.215-5.168-7.095-6.878-.1-.057-.2-.114-.292-.178s-.159-.108-.235-.165a2.648,2.648,0,0,1-.807-1.538c-.006-.032-.013-.07-.019-.108a5.076,5.076,0,0,1-.064-.788,8.382,8.382,0,0,1,1.208-4.088,8.469,8.469,0,0,1,2.943-3.1,3.739,3.739,0,0,1,1.85-.572,1.781,1.781,0,0,1,.184,0,.375.375,0,0,1,.089.013,2.034,2.034,0,0,1,.826.261l.076.038a6.08,6.08,0,0,0,1.449.693A26.248,26.248,0,0,0,35.4,21.618Z" transform="translate(-17.768 -19.542)" fill="#dedffb"/>
                        </g>
                      </g>
                    </g>
                    <g id="Grupo_1219154" data-name="Grupo 1219154" transform="translate(7.473 2.627)">
                      <g id="Grupo_1219153" data-name="Grupo 1219153">
                        <g id="Grupo_1219152" data-name="Grupo 1219152">
                          <path id="Trazado_1289618" data-name="Trazado 1289618" d="M35.105,21.615l-6.243,6.9L27.19,33.427l-.464,1.36a19.978,19.978,0,0,0-6.008-5.1c-.1-.057-.2-.114-.3-.178-.076-.051-.159-.108-.235-.165a2.721,2.721,0,0,1-.807-1.538c-.006-.032-.013-.07-.019-.108a5.076,5.076,0,0,1-.064-.788,8.393,8.393,0,0,1,1.214-4.088,8.4,8.4,0,0,1,2.937-3.1c.1-.057.2-.114.3-.159a2.034,2.034,0,0,1,.826.261l.076.038a6.08,6.08,0,0,0,1.449.693,26.248,26.248,0,0,0,9.008,1.068Z" transform="translate(-19.295 -19.555)" fill="#e9e7fc"/>
                        </g>
                      </g>
                    </g>
                    <g id="Grupo_1219157" data-name="Grupo 1219157" transform="translate(15.101 3.977)">
                      <g id="Grupo_1219156" data-name="Grupo 1219156">
                        <g id="Grupo_1219155" data-name="Grupo 1219155">
                          <path id="Trazado_1289619" data-name="Trazado 1289619" d="M43.388,26.964a17.816,17.816,0,0,1-2.575,8.7,17.959,17.959,0,0,1-6.249,6.592c-2.365,1.367-4.6,1.6-6.275.636a5.158,5.158,0,0,1-2.365-3.465,10.113,10.113,0,0,1-.248-2.231,17.884,17.884,0,0,1,2.575-8.7A17.872,17.872,0,0,1,34.507,21.9a9.749,9.749,0,0,1,2.149-.941,5.2,5.2,0,0,1,4.119.305c1.678.954,2.606,2.982,2.613,5.7Z" transform="translate(-25.677 -20.684)" fill="#f8f9fe"/>
                        </g>
                      </g>
                    </g>
                    <g id="Grupo_1219160" data-name="Grupo 1219160" transform="translate(15.102 4.255)">
                      <g id="Grupo_1219159" data-name="Grupo 1219159">
                        <g id="Grupo_1219158" data-name="Grupo 1219158">
                          <path id="Trazado_1289620" data-name="Trazado 1289620" d="M36.9,23.148a17.8,17.8,0,0,1-2.568,8.7,18.023,18.023,0,0,1-6.255,6.592,9.789,9.789,0,0,1-2.155.941,10.113,10.113,0,0,1-.248-2.231,17.883,17.883,0,0,1,2.575-8.7,17.872,17.872,0,0,1,6.255-6.592,9.749,9.749,0,0,1,2.149-.941,10.115,10.115,0,0,1,.248,2.231Z" transform="translate(-25.677 -20.917)" fill="#e9e7fc"/>
                        </g>
                      </g>
                    </g>
                    <path id="Trazado_1289621" data-name="Trazado 1289621" d="M41.042,21.421l-1.629-.947c-1.678-.956-3.906-.731-6.271.635a17.968,17.968,0,0,0-6.254,6.6A17.835,17.835,0,0,0,24.314,36.4c.008,2.718.936,4.742,2.614,5.7l1.63.947c1.678.956,3.905.731,6.271-.635a17.97,17.97,0,0,0,6.254-6.6,17.833,17.833,0,0,0,2.574-8.694c-.008-2.718-.936-4.742-2.614-5.7ZM29.154,40.064a5.458,5.458,0,0,1-1.276-3.836,15.225,15.225,0,0,1,6.9-11.949,5.493,5.493,0,0,1,4.037-.826,5.457,5.457,0,0,1,1.277,3.835,15.225,15.225,0,0,1-6.9,11.949,5.5,5.5,0,0,1-4.039.826Z" transform="translate(-10.842 -16.863)" fill="#e93565"/>
                    <g id="Grupo_1219162" data-name="Grupo 1219162" transform="translate(17.428 5.992)">
                      <g id="Grupo_1219161" data-name="Grupo 1219161">
                        <path id="Trazado_1289622" data-name="Trazado 1289622" d="M39.053,23.317l-1.63-.947c1.243.722,2.015,2.257,2.021,4.435a15.225,15.225,0,0,1-6.9,11.949c-1.921,1.109-3.663,1.21-4.923.478l1.63.947c1.259.732,3,.63,4.923-.478a15.225,15.225,0,0,0,6.9-11.949c-.006-2.178-.778-3.713-2.021-4.435Z" transform="translate(-27.624 -22.37)" fill="#c2d0f9"/>
                      </g>
                    </g>
                    <g id="Grupo_1219165" data-name="Grupo 1219165" transform="translate(13.472 3.028)">
                      <g id="Grupo_1219164" data-name="Grupo 1219164">
                        <g id="Grupo_1219163" data-name="Grupo 1219163">
                          <path id="Trazado_1289623" data-name="Trazado 1289623" d="M28.558,43.044l-1.63-.947c-1.678-.956-2.607-2.98-2.614-5.7A17.834,17.834,0,0,1,26.887,27.7a17.968,17.968,0,0,1,6.254-6.6c2.365-1.366,4.593-1.591,6.271-.635l1.63.947c-1.678-.956-3.906-.731-6.271.635a17.968,17.968,0,0,0-6.254,6.6,17.834,17.834,0,0,0-2.574,8.694c.008,2.718.936,4.742,2.614,5.7Z" transform="translate(-24.314 -19.891)" fill="#c2d0f9"/>
                        </g>
                      </g>
                    </g>
                    <g id="Grupo_1219168" data-name="Grupo 1219168" transform="translate(15.101 3.975)">
                      <g id="Grupo_1219167" data-name="Grupo 1219167">
                        <g id="Grupo_1219166" data-name="Grupo 1219166">
                          <path id="Trazado_1289624" data-name="Trazado 1289624" d="M40.776,21.266c1.678.956,2.606,2.98,2.614,5.7a17.832,17.832,0,0,1-2.574,8.694,17.969,17.969,0,0,1-6.254,6.6c-2.366,1.366-4.593,1.591-6.271.635s-2.607-2.98-2.614-5.7A17.834,17.834,0,0,1,28.251,28.5,17.968,17.968,0,0,1,34.5,21.9c2.365-1.366,4.593-1.591,6.271-.635ZM34.556,40.03a15.225,15.225,0,0,0,6.9-11.949c-.012-4.385-3.127-6.16-6.943-3.957a15.225,15.225,0,0,0-6.9,11.949c.012,4.385,3.127,6.16,6.944,3.957" transform="translate(-25.677 -20.683)" fill="#678aee"/>
                        </g>
                      </g>
                    </g>
                    <g id="Grupo_1219170" data-name="Grupo 1219170" transform="translate(17.429 9.912)">
                      <g id="Grupo_1219169" data-name="Grupo 1219169">
                        <path id="Trazado_1289625" data-name="Trazado 1289625" d="M34.991,28.967l-2.427,4.3-4.939-1.063a16.453,16.453,0,0,1,3.53-6.559Z" transform="translate(-27.625 -25.65)" fill="#4c5c75"/>
                      </g>
                    </g>
                    <g id="Grupo_1219173" data-name="Grupo 1219173" transform="translate(21.807 13.114)">
                      <g id="Grupo_1219172" data-name="Grupo 1219172">
                        <g id="Grupo_1219171" data-name="Grupo 1219171">
                          <path id="Trazado_1289626" data-name="Trazado 1289626" d="M34.793,29.572A3.851,3.851,0,0,1,33.046,32.6a1.241,1.241,0,0,1-1.241.126,1.223,1.223,0,0,1-.517-1.128,3.851,3.851,0,0,1,1.748-3.027,1.241,1.241,0,0,1,1.241-.126,1.223,1.223,0,0,1,.517,1.128Z" transform="translate(-31.287 -28.329)" fill="#1d2943"/>
                        </g>
                      </g>
                    </g>
                  </g>
                </g>
              </g>
            </g>
          </g>
        </g>
      </g>
      <g id="Grupo_1219184" data-name="Grupo 1219184" transform="translate(29.824 1.498)">
        <g id="Grupo_1219183" data-name="Grupo 1219183">
          <g id="Grupo_1219182" data-name="Grupo 1219182">
            <g id="Grupo_1219181" data-name="Grupo 1219181">
              <path id="Trazado_1289627" data-name="Trazado 1289627" d="M43.651,10.9a1.779,1.779,0,0,1-.8,1.4L32.834,18.081l-3.323,5.761-1.661-.968-.012-1.936a.424.424,0,0,1-.538-.108.235.235,0,0,0,.108.108l-1.661-.968a.565.565,0,0,1-.239-.514l-.024-7.865a1.792,1.792,0,0,1,.813-1.4L41.165,1.611a.547.547,0,0,1,.562-.06l1.566.92a.044.044,0,0,0,.036.012.012.012,0,0,1,.012.012c.012.012.036.012.048.024a.565.565,0,0,1,.239.514Z" transform="translate(-25.483 -1.498)" fill="#678aee"/>
            </g>
          </g>
        </g>
      </g>
      <g id="Grupo_1219199" data-name="Grupo 1219199" transform="translate(29.83 1.498)">
        <g id="Grupo_1219191" data-name="Grupo 1219191">
          <g id="Grupo_1219190" data-name="Grupo 1219190">
            <g id="Grupo_1219186" data-name="Grupo 1219186" transform="translate(2.349 17.546)">
              <g id="Grupo_1219185" data-name="Grupo 1219185">
                <path id="Trazado_1289628" data-name="Trazado 1289628" d="M29.124,20.975l-1.659-.964-.011-3.834,1.659.964Z" transform="translate(-27.454 -16.177)" fill="#8fabfe"/>
              </g>
            </g>
            <g id="Grupo_1219187" data-name="Grupo 1219187">
              <path id="Trazado_1289629" data-name="Trazado 1289629" d="M41.732,1.553a.566.566,0,0,0-.572.055L26.3,10.189a1.791,1.791,0,0,0-.809,1.4l.022,7.863a.567.567,0,0,0,.238.519l1.659.964a.567.567,0,0,1-.238-.519l-.022-7.863a1.791,1.791,0,0,1,.809-1.4L42.819,2.572a.566.566,0,0,1,.572-.055Z" transform="translate(-25.488 -1.498)" fill="#8fabfe"/>
            </g>
            <g id="Grupo_1219189" data-name="Grupo 1219189" transform="translate(1.659 0.964)">
              <g id="Grupo_1219188" data-name="Grupo 1219188">
                <path id="Trazado_1289630" data-name="Trazado 1289630" d="M42.548,2.414c.446-.257.808-.045.809.467l.022,7.863a1.781,1.781,0,0,1-.8,1.4L32.557,17.927l-3.32,5.757-.011-3.834-1.513.873c-.446.257-.813.048-.814-.464L26.876,12.4a1.791,1.791,0,0,1,.809-1.4Z" transform="translate(-26.876 -2.305)" fill="#678aee"/>
              </g>
            </g>
          </g>
        </g>
        <g id="Grupo_1219198" data-name="Grupo 1219198" transform="translate(2.369 4.384)">
          <g id="Grupo_1219193" data-name="Grupo 1219193" transform="translate(0 6.027)">
            <g id="Grupo_1219192" data-name="Grupo 1219192">
              <path id="Trazado_1289631" data-name="Trazado 1289631" d="M29.784,10.208l.721,1.256,1.614-.661-1.164,1.969.281,1.683-1.44-.039-1.435,1.7.275-2-1.166-.624,1.6-1.2Z" transform="translate(-27.47 -10.208)" fill="#fff"/>
            </g>
          </g>
          <g id="Grupo_1219195" data-name="Grupo 1219195" transform="translate(5.22 3.014)">
            <g id="Grupo_1219194" data-name="Grupo 1219194">
              <path id="Trazado_1289632" data-name="Trazado 1289632" d="M34.151,7.687l.721,1.256,1.609-.658-1.159,1.966.281,1.683-1.44-.039-1.435,1.7.275-2-1.166-.624,1.6-1.2Z" transform="translate(-31.837 -7.687)" fill="#fff"/>
            </g>
          </g>
          <g id="Grupo_1219197" data-name="Grupo 1219197" transform="translate(10.435)">
            <g id="Grupo_1219196" data-name="Grupo 1219196">
              <path id="Trazado_1289633" data-name="Trazado 1289633" d="M38.519,5.166l.721,1.256,1.609-.658L39.69,7.73l.276,1.686-1.435-.042-1.435,1.7.275-2L36.2,8.448l1.6-1.2Z" transform="translate(-36.2 -5.166)" fill="#fff"/>
            </g>
          </g>
        </g>
      </g>
    </g>
  </g>
</svg>
