<svg xmlns="http://www.w3.org/2000/svg" xmlns:xlink="http://www.w3.org/1999/xlink" width="108.914" height="108.914" viewBox="0 0 108.914 108.914">
  <defs>
    <filter id="Trazado_1287953" x="0" y="0" width="108.914" height="108.914" filterUnits="userSpaceOnUse">
      <feOffset dy="3" input="SourceAlpha"/>
      <feGaussianBlur stdDeviation="3" result="blur"/>
      <feFlood flood-opacity="0.161"/>
      <feComposite operator="in" in2="blur"/>
      <feComposite in="SourceGraphic"/>
    </filter>
  </defs>
  <g id="Grupo_1221376" data-name="Grupo 1221376" transform="translate(-1213.051 -3224.281)">
    <g transform="matrix(1, 0, 0, 1, 1213.05, 3224.28)" filter="url(#Trazado_1287953)">
      <g id="Trazado_1287953-2" data-name="Trazado 1287953" transform="translate(9 6)" fill="#d7d9de" opacity="0.859">
        <path d="M 45.45676803588867 89.41407012939453 C 39.52198028564453 89.41407012939453 33.76551818847656 88.25206756591797 28.34726715087891 85.96034240722656 C 23.11311721801758 83.74648284912109 18.41204261779785 80.57682800292969 14.37464332580566 76.5394287109375 C 10.33724308013916 72.50202941894531 7.167593002319336 67.80095672607422 4.953730583190918 62.56679534912109 C 2.662005424499512 57.14855575561523 1.500005483627319 51.39208221435547 1.500005483627319 45.45729446411133 C 1.500005483627319 39.52198028564453 2.662005424499512 33.76551818847656 4.953730583190918 28.34726905822754 C 7.167593002319336 23.11310577392578 10.33724308013916 18.41203117370605 14.37464332580566 14.37464332580566 C 18.41204261779785 10.33724403381348 23.11311721801758 7.167593955993652 28.34726715087891 4.953731060028076 C 33.76551818847656 2.662006139755249 39.52198028564453 1.500006198883057 45.45676803588867 1.500006198883057 C 51.39155578613281 1.500006198883057 57.14802932739258 2.662006139755249 62.56626892089844 4.953731060028076 C 67.80043029785156 7.167593955993652 72.50150299072266 10.33724403381348 76.53890228271484 14.37464332580566 C 80.57630920410156 18.41203117370605 83.74595642089844 23.11310577392578 85.95981597900391 28.34726905822754 C 88.25154113769531 33.76551818847656 89.41354370117188 39.52198028564453 89.41354370117188 45.45676803588867 C 89.41354370117188 51.39208221435547 88.25154113769531 57.14855575561523 85.95981597900391 62.56679534912109 C 83.74595642089844 67.80095672607422 80.57630920410156 72.50202941894531 76.53890228271484 76.5394287109375 C 72.50150299072266 80.57682800292969 67.80043029785156 83.74648284912109 62.56626892089844 85.96034240722656 C 57.14802932739258 88.25206756591797 51.39155578613281 89.41407012939453 45.45676803588867 89.41407012939453 Z" stroke="none"/>
        <path d="M 45.45676803588867 3 C 39.72381210327148 3 34.1639404296875 4.12213134765625 28.93159484863281 6.335227966308594 C 23.87622833251953 8.473472595214844 19.33542633056641 11.53517150878906 15.43529510498047 15.435302734375 C 11.53517150878906 19.33543395996094 8.473464965820312 23.87622833251953 6.335227966308594 28.93160247802734 C 4.122123718261719 34.16394424438477 3 39.72381591796875 3 45.4572868347168 C 3 51.19024658203125 4.122123718261719 56.75011825561523 6.335227966308594 61.98246002197266 C 8.473464965820312 67.03782653808594 11.53517150878906 71.57862854003906 15.43529510498047 75.478759765625 C 19.33542633056641 79.37889099121094 23.87622833251953 82.44058990478516 28.93159484863281 84.57883453369141 C 34.1639404296875 86.79193115234375 39.72381210327148 87.9140625 45.45676803588867 87.9140625 C 51.18972396850586 87.9140625 56.74959564208984 86.79193115234375 61.98194122314453 84.57883453369141 C 67.03730773925781 82.44058990478516 71.57810974121094 79.37889099121094 75.47824096679688 75.478759765625 C 79.37837219238281 71.57862854003906 82.44007110595703 67.03782653808594 84.57830810546875 61.98246002197266 C 86.79141235351562 56.75011825561523 87.91353607177734 51.19024658203125 87.91353607177734 45.4567756652832 C 87.91353607177734 39.72381591796875 86.79141235351562 34.16394424438477 84.57830810546875 28.93160247802734 C 82.44007110595703 23.87622833251953 79.37837219238281 19.33543395996094 75.47824096679688 15.435302734375 C 71.57810974121094 11.53517150878906 67.03730773925781 8.473472595214844 61.98194122314453 6.335227966308594 C 56.74959564208984 4.12213134765625 51.18972396850586 3 45.45676803588867 3 M 45.45676803588867 0 C 70.56185150146484 0 90.91353607177734 20.35169219970703 90.91353607177734 45.4567756652832 L 90.91353607177734 45.4572868347168 C 90.91353607177734 70.5623779296875 70.56185150146484 90.9140625 45.45676803588867 90.9140625 C 20.3516845703125 90.9140625 0 70.5623779296875 0 45.4572868347168 L 0 45.4567756652832 C 0 20.35169219970703 20.3516845703125 0 45.45676803588867 0 Z" stroke="none" fill="#fff"/>
      </g>
    </g>
    <g id="Grupo_1219964" data-name="Grupo 1219964" transform="translate(1242.12 3251)">
      <g id="Grupo_1215988" data-name="Grupo 1215988">
        <g id="Grupo_1215983" data-name="Grupo 1215983">
          <g id="Grupo_1215980" data-name="Grupo 1215980">
            <g id="Grupo_1215978" data-name="Grupo 1215978">
              <path id="Trazado_1287443" data-name="Trazado 1287443" d="M49,34.561,48.975,36.1a.721.721,0,0,1-.427.6L27.416,48.76a2.337,2.337,0,0,1-2.122-.031L1.435,34.679A.7.7,0,0,1,1,34.068l.015-1.534a.746.746,0,0,0,.443.61L25.309,47.2a2.338,2.338,0,0,0,2.122.015L48.563,35.164a.722.722,0,0,0,.435-.6Z" fill="#373f51"/>
            </g>
            <g id="Grupo_1215979" data-name="Grupo 1215979">
              <path id="Trazado_1287444" data-name="Trazado 1287444" d="M46.668,36.241,27.43,47.214a2.331,2.331,0,0,1-2.117-.018L1.456,33.146c-.584-.344-.588-.9,0-1.229L20.693,20.943Z" fill="#9da9c1"/>
            </g>
          </g>
          <g id="Grupo_1215982" data-name="Grupo 1215982">
            <g id="Grupo_1215981" data-name="Grupo 1215981">
              <path id="Trazado_1287445" data-name="Trazado 1287445" d="M48.563,33.937a.648.648,0,0,1,0,1.226l-1.891,1.077-25.975-15.3c.975-.4,2.458-1.972,4.013-1.056Z" fill="#4c5671"/>
            </g>
          </g>
        </g>
        <g id="Grupo_1215986" data-name="Grupo 1215986">
          <g id="Grupo_1215984" data-name="Grupo 1215984">
            <path id="Trazado_1287446" data-name="Trazado 1287446" d="M43.4,32.026c.319.188.323.491,0,.673a1.285,1.285,0,0,1-1.162-.013.354.354,0,0,1,0-.67,1.274,1.274,0,0,1,1.157.01Z" fill="#f9d5b4"/>
          </g>
          <g id="Grupo_1215985" data-name="Grupo 1215985">
            <path id="Trazado_1287447" data-name="Trazado 1287447" d="M47,34.148a.354.354,0,0,1,0,.67,1.274,1.274,0,0,1-1.157-.01.354.354,0,0,1,0-.67,1.274,1.274,0,0,1,1.157.01Z" fill="#fe91ab"/>
          </g>
          <path id="Trazado_1287448" data-name="Trazado 1287448" d="M45.2,33.089a1.276,1.276,0,0,0-1.162-.013c-.32.183-.321.482,0,.673a1.274,1.274,0,0,0,1.157.01.354.354,0,0,0,0-.67Z" fill="#7bb1ff"/>
        </g>
        <g id="Grupo_1215987" data-name="Grupo 1215987">
          <path id="Trazado_1287449" data-name="Trazado 1287449" d="M20.688,21.9,2.059,32.532,26.378,46.856,45,36.23Z" fill="#fff"/>
        </g>
      </g>
      <g id="Grupo_1215994" data-name="Grupo 1215994">
        <circle id="Elipse_13607" data-name="Elipse 13607" cx="15.745" cy="15.745" r="15.745" transform="translate(9.12 7.987)" fill="#5793fb"/>
        <g id="Grupo_1215991" data-name="Grupo 1215991">
          <g id="Grupo_1215989" data-name="Grupo 1215989">
            <path id="Trazado_1287450" data-name="Trazado 1287450" d="M14.764,11.656s.006,0,.007,0,0-.007.007-.01a15.742,15.742,0,0,1,3.869-2.38.953.953,0,0,1,.765.675c.042.143.227.252.333.384.448.556.379.7.556.847.584.474,1.493,1.013,1.575,1.279.735,2.388-.807.976-1.013,1.124a6.76,6.76,0,0,0-.8.754c-.1.1-.2.292-.267.282-1.111-.146.124-2.366-2.313-3.537-.132.394-.3.263.26.944.374.451.387.914.117,1.115l-1.658-.2c-.2.959.945.851.993.991.271.79,2.464,1.946,3.59.7.106-.117.209-.236.313-.353a3.068,3.068,0,0,1,.08.863c-.006.318.157.47.531.42.955-.127,1.233,1.275,2.255,1.388.319.035.493.237.28.436a.731.731,0,0,0-.218.664c.066,1.481,2.051.254,1.6,1.219-.048.1-.025.139.142,1.142l-.728.329a.711.711,0,0,0-.939.147c-.4-.5.405-.169-1.466-2.081-.321-.329-2.411.18-2.693.632a5.744,5.744,0,0,0-.372.873c-.356-.028-.585-.913-.047-1.162.382-.177.688-.419.691-.86-.159.035-.364.107-.37.19-.033.454-.378.549-.8.572a.611.611,0,0,0-.639.5,11.352,11.352,0,0,1-.425,1.094c-.388-.179-.6-.373-.535-.736.019-.11-.1-.238-.162-.358-.132.057-.314.086-.385.178a1.252,1.252,0,0,0-.215.509.6.6,0,0,1-.65.536c-.359,0-.72-.021-1.078-.052-.4-.035-.579.091-.508.432a5.115,5.115,0,0,0,.266.788c.309.793,2.335.453,3.128.154.624-.236.7-.177.8.383.094.529.615-.066.782-.143,1.99-.912,1.849-.292,1.354-1.726,3.107.238,2.046.145,2.491.269,1.432.4,1.8.274,1.932,1.025,1.013-.171.786.489.959.674.233.247.546.455.469.838-.009.045.091.145.156.157.344.062.405.313.541.532a4.619,4.619,0,0,0,.462.51c.113.131.332.316.292.4-.257.558,0,1.083.071,1.618a1.436,1.436,0,0,1-.521,1.4.917.917,0,0,0-.3.355c-.234.714-.933.973-1.61,1.237-1.422.557-2.826-.672-3.282-.077-.179.233-.366.212-.605.236-.142.014-.379.118-.387.195-.12,1.258.53.835,0,1.791-.283.512-.762.956-.718,1.6a12.149,12.149,0,0,1-.776,5.323,15.74,15.74,0,0,1-6.377-3.987,1.607,1.607,0,0,1,0-.9,12.142,12.142,0,0,0,.326-1.258,1.241,1.241,0,0,0-.855-1.541,4.508,4.508,0,0,1-2-2.358,2.256,2.256,0,0,1-.13-.446c1.613-.1,2.219,1.039,4.128-4.584.034-.1-.032-.225-.051-.339-.134.026-.311.016-.391.087-.439.392-.278.744-.372,1.07-.07.243-.537.637-.67.871-1.125,1.975-.837,2.178-1.358,2.243-1.9-.859-2.618-.826-2.9-1.376-.039-.253-.131-1-.162-1.54.144-.146.3-.28.459-.42,1.023,1.023,1.206.1,1.905-1.2l-.117-.121c-.227.08-.576.106-.66.249a1.891,1.891,0,0,1-1.611.767,15.692,15.692,0,0,1,5.639-12.255Z" fill="#7bb1ff"/>
          </g>
          <g id="Grupo_1215990" data-name="Grupo 1215990">
            <path id="Trazado_1287451" data-name="Trazado 1287451" d="M39.576,23.389c-.048-.184-.149-.176-.289-.113-.077.034-.174.03-.242.074-.089.059-.218.145-.223.227-.023.359-.327.492-.522.722-.116-.319.264-1.156-.191-1.524-1.008-.815-.336-1.638-1.277-1.729-.551-.053.278-.587-.776-.69-.513-.051.621-.649-1.881-1.825a2.74,2.74,0,0,0,1.3-1.713l.1-.027.353.553.139-.088-.052-.54c.838-.556.773-.636,1.242-.579.142.017.2.071.17.239-.041.224.036.709-.011.855a.507.507,0,0,0,.145.512c.154.188.143.438.213,1.054.248-.154.509-.217.488-.53s.01-.327.311-.342c.112-.005.3-.058.317-.129.066-.212.2-.221.371-.212a.676.676,0,0,0,.1,0,15.688,15.688,0,0,1,1.244,5.953c-.467-.5-.928.254-1.033-.146Z" fill="#7bb1ff"/>
            <path id="Trazado_1287452" data-name="Trazado 1287452" d="M40.213,26.226c-.541.54-.68.325-.839.6a2.16,2.16,0,0,1-1.027.822l-.452-.252c1.235,0,.772-.089,1.025-1.044.042-.158.123-.269.331-.194.058.021.225-.074.227-.121a1.339,1.339,0,0,0-.057-.549c-.137-.34-.126-.381.23-.422.276.282.523.653.85.52-.023.2-.05.4-.08.593a.3.3,0,0,0-.208.049Z" fill="#7bb1ff"/>
            <path id="Trazado_1287453" data-name="Trazado 1287453" d="M35.063,35.426l-.087-.052c-.807.33-.663-.263-.953-.441-.754-.463-.377-1.131-.58-1.242-.24-.132-.341-.464-.676-.462-.053,0-.107-.078-.16-.122-.506-.419-.123-1.388-.748-1.591-.083-.027-.248-.515-.32-.649a.649.649,0,0,1,.074-.783c.27-.244,1.081-1.012,1.539-.93.436.078.667-.09.722-.543a.629.629,0,0,1,.766-.5c.227.078.324,0,.387-.222a1.1,1.1,0,0,1,1.154-.79c.4.029.666-.526,1.085-.176.242.2.746.574.65.753-.2.38.006.642.188.954.44.755.582.958.074,1.65a.968.968,0,0,0-.133.529,1.22,1.22,0,0,1-.706,1.108.61.61,0,0,0-.386.6q.031.61.066,1.219a15.842,15.842,0,0,1-2.272,2.247.276.276,0,0,1,.083-.159A2.044,2.044,0,0,0,35.063,35.426Z" fill="#7bb1ff"/>
            <path id="Trazado_1287454" data-name="Trazado 1287454" d="M33.6,11.082c0,.081.135.252.181.242.268-.054.339.157.394.309S34,12.1,34,12.113c.026.641-.686.006-.729.493-.195,2.207-.357.961-.247,2.676a1.571,1.571,0,0,1-.555,1.446,3.41,3.41,0,0,0-.676-1.633c-.218-.211-.259-.637-.7-.584-.043.005-.1-.063-.144-.1-.315-.243-.183-.957-.507-1.621-.065-.132-.145-.226-.106-.381.073-.294-.081-.6.036-.892a.919.919,0,0,1,.026-.854.664.664,0,0,1-.071-.758l.781.432c-.01-.123-.023-.215-.025-.307a1.344,1.344,0,0,1,.013-.28c.053-.27.211-.353.467-.267l.047.016q.311.147.614.308c.031.141.088.276.141.436.122-.092.21-.154.28-.2q.164.094.326.191c.036.15.1.23.245.151.37.232.418.216.389.7Z" fill="#7bb1ff"/>
          </g>
        </g>
        <g id="Grupo_1215992" data-name="Grupo 1215992">
          <path id="Trazado_1287455" data-name="Trazado 1287455" d="M24.866,14.24c-4.331,0-7.989-1.538-7.989-3.357a1.579,1.579,0,0,1,.3-.886c-.242.136-.477.283-.711.432-.75,2.99,4.928,4.28,8.4,4.28,3.432,0,9.145-1.3,8.4-4.28-.234-.148-.469-.3-.711-.432C34.344,12.646,28.484,14.24,24.866,14.24Z" fill="#65a2fc"/>
          <path id="Trazado_1287456" data-name="Trazado 1287456" d="M10.746,16.8c-.064.13-.128.259-.188.391,6.507,4.826,22.111,4.824,28.616,0-.06-.132-.124-.261-.188-.391-6.218,4.714-22.006,4.726-28.239,0Z" fill="#65a2fc"/>
          <path id="Trazado_1287457" data-name="Trazado 1287457" d="M24.866,34.4A37.19,37.19,0,0,1,11.5,32.026c.132.212.259.426.4.631a37.782,37.782,0,0,0,12.965,2.209A37.793,37.793,0,0,0,37.83,32.658c.141-.2.269-.42.4-.631A37.188,37.188,0,0,1,24.866,34.4Z" fill="#65a2fc"/>
          <path id="Trazado_1287458" data-name="Trazado 1287458" d="M40.568,24.575c.009-.161.021-.322.025-.485a46.828,46.828,0,0,1-15.727,2.5,46.83,46.83,0,0,1-15.727-2.5c0,.163.016.323.024.485a47.186,47.186,0,0,0,15.7,2.48,47.183,47.183,0,0,0,15.7-2.48Z" fill="#65a2fc"/>
        </g>
        <g id="Grupo_1215993" data-name="Grupo 1215993">
          <path id="Trazado_1287459" data-name="Trazado 1287459" d="M31.472,15.761a18.983,18.983,0,0,0-5.089-4.207,17.066,17.066,0,0,1,9.11,1.555,14.542,14.542,0,0,1,1.939,1.164,15.664,15.664,0,0,0-1.014-1.215c-.236-.131-.459-.274-.707-.395a17.429,17.429,0,0,0-8.778-1.63,14.817,14.817,0,0,1,5.114-1.3c-.285-.147-.573-.289-.868-.419a15.723,15.723,0,0,0-5.334,1.681c-.136-1.314-.272-2.3-.374-2.976-.169-.007-.334-.024-.5-.027.1.655.241,1.646.383,3.019a14.583,14.583,0,0,0-7.172-1.517c-.4.189-.792.39-1.173.609a13.663,13.663,0,0,1,7.748,1.183,21.826,21.826,0,0,0-4.479,1.264,21.285,21.285,0,0,0-11.063,9.5c-.043.4-.057.815-.069,1.227A20.559,20.559,0,0,1,20.459,13.01a21.534,21.534,0,0,1,3.934-1.171,19.281,19.281,0,0,0-4.137,3.654,20.938,20.938,0,0,0-3.549,21.687c.244.148.484.3.736.437-5.058-11.213,1.748-20.11,3.191-21.8a18.5,18.5,0,0,1,4.8-4.009,137.784,137.784,0,0,1-.574,27.671h.009c.166,0,.328-.019.493-.024a138.69,138.69,0,0,0,.574-27.587,18.429,18.429,0,0,1,5.162,4.218A21.209,21.209,0,0,1,34.735,35.99c.254-.2.494-.424.734-.643a21.742,21.742,0,0,0-4-19.586Z" fill="#65a2fc"/>
        </g>
      </g>
      <g id="Grupo_1216001" data-name="Grupo 1216001">
        <g id="Grupo_1215999" data-name="Grupo 1215999">
          <g id="Grupo_1215998" data-name="Grupo 1215998">
            <g id="Grupo_1215995" data-name="Grupo 1215995">
              <path id="Trazado_1287460" data-name="Trazado 1287460" d="M15,13.017l-.742.431a3.133,3.133,0,0,1-1.081-1.735l.742-.431A3.121,3.121,0,0,0,15,13.017Z" fill="#7bb1ff"/>
              <path id="Trazado_1287461" data-name="Trazado 1287461" d="M15.771,9.848a1.342,1.342,0,0,1-.631,1.241l-.742.429a1.34,1.34,0,0,0,.633-1.241v-.034a.957.957,0,0,1-.326.3l-.74.429c-.6.347-1.646.2-2.843-.492-.2-.118-.4-.246-.6-.383C8.957,8.988,7.769,7.3,7.773,6.087a1.1,1.1,0,0,1,.519-1.011l.742-.431a1.463,1.463,0,0,1,.694-.179,2.44,2.44,0,0,0-1.867.067L8.6,4.1c.7-.406,1.9-.244,3.276.549,2.157,1.245,3.9,3.57,3.894,5.2Z" fill="#7bb1ff"/>
            </g>
            <g id="Grupo_1215996" data-name="Grupo 1215996">
              <path id="Trazado_1287462" data-name="Trazado 1287462" d="M13.179,11.713a3.133,3.133,0,0,0,1.081,1.735,7.916,7.916,0,0,1-2.683-2.233c-.149-.074-.3-.156-.456-.244-2.155-1.245-3.9-3.57-3.892-5.2s1.754-1.937,3.909-.694,3.9,3.572,3.894,5.2c0,1.056-.74,1.56-1.852,1.436Z" fill="#3a53d0"/>
            </g>
            <g id="Grupo_1215997" data-name="Grupo 1215997">
              <path id="Trazado_1287463" data-name="Trazado 1287463" d="M11.136,5.566c1.854,1.07,3.353,3.039,3.349,4.4s-1.509,1.592-3.363.521-3.353-3.038-3.349-4.4S9.283,4.5,11.136,5.566Z" fill="#fff"/>
            </g>
          </g>
        </g>
        <g id="Grupo_1216000" data-name="Grupo 1216000">
          <path id="Trazado_1287464" data-name="Trazado 1287464" d="M11.371,6.516a1.7,1.7,0,0,1,.572.6l-.2.283a.9.9,0,0,0-.3-.351c-.106-.061-.188-.071-.247-.03a.3.3,0,0,0-.088.255v.224l.615.355V8.3L11.1,7.948l0,1.7L10.6,9.359l0-1.7-.294-.17V7.041l.294.17V7c0-.282.075-.465.223-.546a.535.535,0,0,1,.538.06Z" fill="#3a53d0"/>
        </g>
      </g>
      <g id="Grupo_1216012" data-name="Grupo 1216012">
        <g id="Grupo_1216005" data-name="Grupo 1216005">
          <g id="Grupo_1216004" data-name="Grupo 1216004">
            <g id="Grupo_1216002" data-name="Grupo 1216002">
              <path id="Trazado_1287465" data-name="Trazado 1287465" d="M37.268,18.377l-.741.431c.628.284,1.1-.333,1.456-.447A.824.824,0,0,1,37.268,18.377Z" fill="#96d696"/>
              <path id="Trazado_1287466" data-name="Trazado 1287466" d="M40.428,13.637c-1.372-.792-2.58-.954-3.278-.549l-.741.431c.7-.406,1.906-.243,3.278.549,2.155,1.244,3.9,3.572,3.894,5.2a1.342,1.342,0,0,1-.634,1.241l.741-.431a1.342,1.342,0,0,0,.634-1.241C44.327,17.209,42.582,14.881,40.428,13.637Z" fill="#96d696"/>
            </g>
            <g id="Grupo_1216003" data-name="Grupo 1216003">
              <path id="Trazado_1287467" data-name="Trazado 1287467" d="M39.687,14.067c2.155,1.244,3.9,3.572,3.894,5.2s-1.756,1.937-3.911.693c-.153-.088-.306-.183-.455-.283-.35.11-1.1.05-2.688-.868a.777.777,0,0,0,1.087-.484,5.812,5.812,0,0,1-1.837-3.566c0-1.626,1.755-1.936,3.911-.692Z" fill="#5faf5f"/>
            </g>
          </g>
        </g>
        <g id="Grupo_1216006" data-name="Grupo 1216006">
          <path id="Trazado_1287468" data-name="Trazado 1287468" d="M41.214,18.008c0,1.026-.73,1.44-1.621.925-2.142-1.238-2.123-4.946.011-3.713a3.55,3.55,0,0,1,1.611,2.788Z" fill="#febb61"/>
        </g>
        <g id="Grupo_1216011" data-name="Grupo 1216011">
          <g id="Grupo_1216007" data-name="Grupo 1216007">
            <path id="Trazado_1287469" data-name="Trazado 1287469" d="M40.211,16.587a.544.544,0,0,1,.248.427c0,.157-.112.221-.249.142a.544.544,0,0,1-.246-.428c0-.157.111-.22.248-.141Z" fill="#fff"/>
          </g>
          <g id="Grupo_1216009" data-name="Grupo 1216009">
            <g id="Grupo_1216008" data-name="Grupo 1216008">
              <path id="Trazado_1287470" data-name="Trazado 1287470" d="M40.555,18.112a.161.161,0,0,1,.034.171c-.207.289-.587.322-1,.087-.658-.38-1.252-1.55-.907-1.351a.208.208,0,0,1,.083.1,2.083,2.083,0,0,0,.825,1.028c.34.2.657.169.83-.072.03-.045.094-.009.13.035Z" fill="#fff"/>
            </g>
          </g>
          <g id="Grupo_1216010" data-name="Grupo 1216010">
            <path id="Trazado_1287471" data-name="Trazado 1287471" d="M38.989,15.882a.544.544,0,0,1,.248.427c0,.157-.112.221-.249.142-.329-.19-.324-.757,0-.569Z" fill="#fff"/>
          </g>
        </g>
      </g>
      <g id="Grupo_1216017" data-name="Grupo 1216017">
        <g id="Grupo_1216016" data-name="Grupo 1216016">
          <g id="Grupo_1216015" data-name="Grupo 1216015">
            <g id="Grupo_1216013" data-name="Grupo 1216013">
              <path id="Trazado_1287472" data-name="Trazado 1287472" d="M28.664,29.223l-.741.431a.824.824,0,0,0,.715-.016l.741-.431A.824.824,0,0,1,28.664,29.223Z" fill="#fe91ab"/>
              <path id="Trazado_1287473" data-name="Trazado 1287473" d="M31.824,24.482c-1.372-.792-2.58-.954-3.278-.549l-.741.431c.7-.406,1.906-.243,3.278.549,2.155,1.244,3.9,3.572,3.894,5.2a1.342,1.342,0,0,1-.634,1.241l.741-.431a1.342,1.342,0,0,0,.634-1.241C35.722,28.054,33.978,25.726,31.824,24.482Z" fill="#fe91ab"/>
            </g>
            <g id="Grupo_1216014" data-name="Grupo 1216014">
              <path id="Trazado_1287474" data-name="Trazado 1287474" d="M31.083,24.913c2.155,1.244,3.9,3.572,3.894,5.2-.006,2.044-2.457,1.691-4.366.41-.35.11-1.1.05-2.688-.868a.777.777,0,0,0,1.087-.484A5.812,5.812,0,0,1,27.172,25.6c0-1.626,1.755-1.936,3.911-.692Z" fill="#ed5d71"/>
            </g>
          </g>
        </g>
      </g>
      <g id="Grupo_1216022" data-name="Grupo 1216022">
        <g id="Grupo_1216021" data-name="Grupo 1216021">
          <g id="Grupo_1216020" data-name="Grupo 1216020">
            <g id="Grupo_1216018" data-name="Grupo 1216018">
              <path id="Trazado_1287475" data-name="Trazado 1287475" d="M21.428,19.481l.741.431c-.628.284-1.1-.333-1.456-.447a.824.824,0,0,0,.715.016Z" fill="#fff"/>
              <path id="Trazado_1287476" data-name="Trazado 1287476" d="M21.546,14.192l.741.431c-2.136-1.241-7.18,2.851-7.172,5.747a1.342,1.342,0,0,0,.634,1.241l-.741-.431a1.342,1.342,0,0,1-.634-1.241C14.366,17,19.441,12.968,21.546,14.192Z" fill="#fff"/>
            </g>
            <g id="Grupo_1216019" data-name="Grupo 1216019">
              <path id="Trazado_1287477" data-name="Trazado 1287477" d="M19.01,15.171c-2.155,1.244-3.9,3.572-3.894,5.2s1.756,1.937,3.911.693c.153-.088.306-.183.455-.283.35.11,1.1.05,2.688-.868a.777.777,0,0,1-1.087-.484C24.39,15.973,22.948,12.9,19.01,15.171Z" fill="#d3dbea"/>
            </g>
          </g>
        </g>
      </g>
      <g id="Grupo_1216031" data-name="Grupo 1216031">
        <g id="Grupo_1216026" data-name="Grupo 1216026">
          <g id="Grupo_1216025" data-name="Grupo 1216025">
            <g id="Grupo_1216023" data-name="Grupo 1216023">
              <path id="Trazado_1287478" data-name="Trazado 1287478" d="M30.991,8.4l-.741.431a3.138,3.138,0,0,0,1.082,1.735l.741-.431A3.138,3.138,0,0,1,30.991,8.4Z" fill="#ffdd94"/>
              <path id="Trazado_1287479" data-name="Trazado 1287479" d="M28.95,1.763c-1.372-.792-2.58-.954-3.278-.549l-.741.431c.7-.406,1.906-.243,3.278.549,2.155,1.244,3.9,3.571,3.893,5.2a1.342,1.342,0,0,1-.632,1.241L32.21,8.2a1.342,1.342,0,0,0,.632-1.241c0-1.626-1.738-3.953-3.893-5.2Z" fill="#ffdd94"/>
            </g>
            <g id="Grupo_1216024" data-name="Grupo 1216024">
              <path id="Trazado_1287480" data-name="Trazado 1287480" d="M28.209,2.194c2.155,1.244,3.9,3.571,3.893,5.2,0,1.055-.74,1.56-1.852,1.436a3.138,3.138,0,0,0,1.082,1.735,7.937,7.937,0,0,1-2.684-2.234c-.149-.072-.3-.154-.455-.243-2.156-1.245-3.9-3.572-3.894-5.2s1.755-1.936,3.911-.692Z" fill="#febb61"/>
            </g>
          </g>
        </g>
        <g id="Grupo_1216030" data-name="Grupo 1216030">
          <g id="Grupo_1216027" data-name="Grupo 1216027">
            <path id="Trazado_1287481" data-name="Trazado 1287481" d="M26.2,3.452a1.3,1.3,0,0,1,.59,1.021c0,.376-.266.528-.594.339a1.3,1.3,0,0,1-.589-1.021c0-.375.266-.526.593-.338Z" fill="#ffdd94"/>
          </g>
          <g id="Grupo_1216028" data-name="Grupo 1216028">
            <path id="Trazado_1287482" data-name="Trazado 1287482" d="M28.193,4.6a1.3,1.3,0,0,1,.59,1.021c0,.376-.268.527-.594.339a1.3,1.3,0,0,1-.59-1.022c0-.375.268-.525.594-.337Z" fill="#ffdd94"/>
          </g>
          <g id="Grupo_1216029" data-name="Grupo 1216029">
            <path id="Trazado_1287483" data-name="Trazado 1287483" d="M30.183,5.749a1.3,1.3,0,0,1,.589,1.02c0,.376-.266.528-.593.339a1.3,1.3,0,0,1-.59-1.022c0-.375.266-.526.594-.337Z" fill="#ffdd94"/>
          </g>
        </g>
      </g>
      <g id="Grupo_1216035" data-name="Grupo 1216035">
        <g id="Grupo_1216032" data-name="Grupo 1216032">
          <path id="Trazado_1287484" data-name="Trazado 1287484" d="M29.243,26.229a1.3,1.3,0,0,1,.59,1.021c0,.376-.266.528-.594.339a1.3,1.3,0,0,1-.589-1.021C28.652,26.191,28.917,26.04,29.243,26.229Z" fill="#4c5671"/>
        </g>
        <g id="Grupo_1216033" data-name="Grupo 1216033">
          <path id="Trazado_1287485" data-name="Trazado 1287485" d="M31.233,27.377a1.3,1.3,0,0,1,.59,1.021c0,.376-.268.527-.594.339a1.3,1.3,0,0,1-.59-1.022c0-.375.268-.525.594-.337Z" fill="#4c5671"/>
        </g>
        <g id="Grupo_1216034" data-name="Grupo 1216034">
          <path id="Trazado_1287486" data-name="Trazado 1287486" d="M33.811,29.546c0,.376-.266.528-.593.339a1.3,1.3,0,0,1-.59-1.022c0-.892,1.185-.223,1.183.683Z" fill="#4c5671"/>
        </g>
      </g>
      <g id="Grupo_1216039" data-name="Grupo 1216039">
        <g id="Grupo_1216036" data-name="Grupo 1216036">
          <path id="Trazado_1287487" data-name="Trazado 1287487" d="M21.108,16.423a1.3,1.3,0,0,0-.59,1.021c0,.376.266.528.594.339.787-.455.774-1.808,0-1.359Z" fill="#4c5671"/>
        </g>
        <g id="Grupo_1216037" data-name="Grupo 1216037">
          <path id="Trazado_1287488" data-name="Trazado 1287488" d="M19.118,17.571a1.3,1.3,0,0,0-.59,1.021c0,.376.268.527.594.339a1.3,1.3,0,0,0,.59-1.022c0-.375-.268-.525-.594-.337Z" fill="#4c5671"/>
        </g>
        <g id="Grupo_1216038" data-name="Grupo 1216038">
          <path id="Trazado_1287489" data-name="Trazado 1287489" d="M17.129,18.72a1.3,1.3,0,0,0-.589,1.02c0,.376.266.528.593.339a1.3,1.3,0,0,0,.59-1.022c0-.375-.266-.526-.594-.337Z" fill="#4c5671"/>
        </g>
      </g>
    </g>
  </g>
</svg>
