<svg xmlns="http://www.w3.org/2000/svg" xmlns:xlink="http://www.w3.org/1999/xlink" width="108.914" height="108.914" viewBox="0 0 108.914 108.914">
  <defs>
    <filter id="Trazado_874925" x="0" y="0" width="108.914" height="108.914" filterUnits="userSpaceOnUse">
      <feOffset dy="3" input="SourceAlpha"/>
      <feGaussianBlur stdDeviation="3" result="blur"/>
      <feFlood flood-opacity="0.161"/>
      <feComposite operator="in" in2="blur"/>
      <feComposite in="SourceGraphic"/>
    </filter>
  </defs>
  <g id="Grupo_1221373" data-name="Grupo 1221373" transform="translate(-251 -752.086)">
    <g transform="matrix(1, 0, 0, 1, 251, 752.09)" filter="url(#Trazado_874925)">
      <g id="Trazado_874925-2" data-name="Trazado 874925" transform="translate(9 6)" fill="#d7d9de" opacity="0.859">
        <path d="M 45.45676803588867 89.41407012939453 C 39.52198028564453 89.41407012939453 33.76551818847656 88.25206756591797 28.34726715087891 85.96034240722656 C 23.11311721801758 83.74648284912109 18.41204261779785 80.57682800292969 14.37464332580566 76.5394287109375 C 10.33724308013916 72.50202941894531 7.167593002319336 67.80095672607422 4.953730583190918 62.56679534912109 C 2.662005424499512 57.14855575561523 1.500005483627319 51.39208221435547 1.500005483627319 45.45729446411133 C 1.500005483627319 39.52198028564453 2.662005424499512 33.76551818847656 4.953730583190918 28.34726905822754 C 7.167593002319336 23.11310577392578 10.33724308013916 18.41203117370605 14.37464332580566 14.37464332580566 C 18.41204261779785 10.33724403381348 23.11311721801758 7.167593955993652 28.34726715087891 4.953731060028076 C 33.76551818847656 2.662006139755249 39.52198028564453 1.500006198883057 45.45676803588867 1.500006198883057 C 51.39155578613281 1.500006198883057 57.14802932739258 2.662006139755249 62.56626892089844 4.953731060028076 C 67.80043029785156 7.167593955993652 72.50150299072266 10.33724403381348 76.53890228271484 14.37464332580566 C 80.57630920410156 18.41203117370605 83.74595642089844 23.11310577392578 85.95981597900391 28.34726905822754 C 88.25154113769531 33.76551818847656 89.41354370117188 39.52198028564453 89.41354370117188 45.45676803588867 C 89.41354370117188 51.39208221435547 88.25154113769531 57.14855575561523 85.95981597900391 62.56679534912109 C 83.74595642089844 67.80095672607422 80.57630920410156 72.50202941894531 76.53890228271484 76.5394287109375 C 72.50150299072266 80.57682800292969 67.80043029785156 83.74648284912109 62.56626892089844 85.96034240722656 C 57.14802932739258 88.25206756591797 51.39155578613281 89.41407012939453 45.45676803588867 89.41407012939453 Z" stroke="none"/>
        <path d="M 45.45676803588867 3 C 39.72381210327148 3 34.1639404296875 4.12213134765625 28.93159484863281 6.335227966308594 C 23.87622833251953 8.473472595214844 19.33542633056641 11.53517150878906 15.43529510498047 15.435302734375 C 11.53517150878906 19.33543395996094 8.473464965820312 23.87622833251953 6.335227966308594 28.93160247802734 C 4.122123718261719 34.16394424438477 3 39.72381591796875 3 45.4572868347168 C 3 51.19024658203125 4.122123718261719 56.75011825561523 6.335227966308594 61.98246002197266 C 8.473464965820312 67.03782653808594 11.53517150878906 71.57862854003906 15.43529510498047 75.478759765625 C 19.33542633056641 79.37889099121094 23.87622833251953 82.44058990478516 28.93159484863281 84.57883453369141 C 34.1639404296875 86.79193115234375 39.72381210327148 87.9140625 45.45676803588867 87.9140625 C 51.18972396850586 87.9140625 56.74959564208984 86.79193115234375 61.98194122314453 84.57883453369141 C 67.03730773925781 82.44058990478516 71.57810974121094 79.37889099121094 75.47824096679688 75.478759765625 C 79.37837219238281 71.57862854003906 82.44007110595703 67.03782653808594 84.57830810546875 61.98246002197266 C 86.79141235351562 56.75011825561523 87.91353607177734 51.19024658203125 87.91353607177734 45.4567756652832 C 87.91353607177734 39.72381591796875 86.79141235351562 34.16394424438477 84.57830810546875 28.93160247802734 C 82.44007110595703 23.87622833251953 79.37837219238281 19.33543395996094 75.47824096679688 15.435302734375 C 71.57810974121094 11.53517150878906 67.03730773925781 8.473472595214844 61.98194122314453 6.335227966308594 C 56.74959564208984 4.12213134765625 51.18972396850586 3 45.45676803588867 3 M 45.45676803588867 0 C 70.56185150146484 0 90.91353607177734 20.35169219970703 90.91353607177734 45.4567756652832 L 90.91353607177734 45.4572868347168 C 90.91353607177734 70.5623779296875 70.56185150146484 90.9140625 45.45676803588867 90.9140625 C 20.3516845703125 90.9140625 0 70.5623779296875 0 45.4572868347168 L 0 45.4567756652832 C 0 20.35169219970703 20.3516845703125 0 45.45676803588867 0 Z" stroke="none" fill="#fff"/>
      </g>
    </g>
    <g id="_x37_" transform="translate(269.179 767.027)">
      <path id="Trazado_1283314" data-name="Trazado 1283314" d="M39.334,32.62v5.449a1.014,1.014,0,0,1-.2.584,1.1,1.1,0,0,1-.336.351L3.383,59.44a.407.407,0,0,1-.38.044l-1.256-.716a.372.372,0,0,1-.161-.351L1.5,23.037a1.162,1.162,0,0,1,.54-.92L37.449,1.665a.363.363,0,0,1,.38-.029l1.256.7a.372.372,0,0,1,.161.351l.015,2.4v1.11l.058,26.441Z" transform="translate(0 0.001)" fill="#dedffb"/>
      <g id="Grupo_1214528" data-name="Grupo 1214528" transform="translate(1.502 1.594)">
        <g id="Grupo_1214527" data-name="Grupo 1214527">
          <g id="Grupo_1214526" data-name="Grupo 1214526">
            <g id="Grupo_1214525" data-name="Grupo 1214525">
              <g id="Grupo_1214499" data-name="Grupo 1214499">
                <g id="Grupo_1214472" data-name="Grupo 1214472">
                  <g id="Grupo_1214471" data-name="Grupo 1214471">
                    <path id="Trazado_1283315" data-name="Trazado 1283315" d="M39.092,2.344a.376.376,0,0,0-.38.037L3.3,22.828a1.176,1.176,0,0,0-.533.924l.082,35.385A.376.376,0,0,0,3,59.481L1.74,58.766a.376.376,0,0,1-.157-.343L1.5,23.038a1.179,1.179,0,0,1,.533-.924L37.449,1.668a.376.376,0,0,1,.381-.037Z" transform="translate(-1.501 -1.594)" fill="#dedffb"/>
                  </g>
                </g>
                <g id="Grupo_1214480" data-name="Grupo 1214480" transform="translate(1.262 0.714)">
                  <g id="Grupo_1214475" data-name="Grupo 1214475" transform="translate(0.008 2.778)">
                    <g id="Grupo_1214473" data-name="Grupo 1214473">
                      <path id="Trazado_1283316" data-name="Trazado 1283316" d="M38.932,36.97a1.177,1.177,0,0,1-.536.925L2.983,58.341c-.3.17-.536.033-.538-.3L2.371,25.049,38.808,4.011l.046-.026v.052l0,1.06Z" transform="translate(-2.371 -3.985)" fill="#f3f1fc"/>
                    </g>
                    <g id="Grupo_1214474" data-name="Grupo 1214474" transform="translate(1.458 2.532)">
                      <path id="Trazado_1283317" data-name="Trazado 1283317" d="M37.011,35.942,3.442,55.327,3.369,25.088,36.938,5.718Z" transform="translate(-3.369 -5.718)" fill="#fff"/>
                    </g>
                  </g>
                  <g id="Grupo_1214477" data-name="Grupo 1214477" transform="translate(0.082 30.317)">
                    <g id="Grupo_1214476" data-name="Grupo 1214476">
                      <path id="Trazado_1283318" data-name="Trazado 1283318" d="M2.424,43.9l0,5.449c0,.338.242.476.539.3L38.374,29.208a1.18,1.18,0,0,0,.534-.926V22.837Z" transform="translate(-2.421 -22.837)" fill="#f3f1fc"/>
                    </g>
                  </g>
                  <g id="Grupo_1214479" data-name="Grupo 1214479">
                    <g id="Grupo_1214478" data-name="Grupo 1214478">
                      <path id="Trazado_1283319" data-name="Trazado 1283319" d="M2.365,23.527l.007,2.4L38.857,4.861l0-2.4c0-.338-.244-.476-.539-.3L2.9,22.6a1.181,1.181,0,0,0-.534.926Z" transform="translate(-2.365 -2.083)" fill="#f3f1fc"/>
                    </g>
                  </g>
                </g>
                <g id="Grupo_1214481" data-name="Grupo 1214481" transform="translate(25.152 3.118)">
                  <path id="Trazado_1283320" data-name="Trazado 1283320" d="M20.735,7.426a.661.661,0,0,1,.278.6,2.1,2.1,0,0,1-.949,1.651.618.618,0,0,1-.7.029c.015.015.015.029.029.029l-.38-.219a.7.7,0,0,1-.292-.614,2.136,2.136,0,0,1,.95-1.636.706.706,0,0,1,.687-.073Z" transform="translate(-18.719 -2.159)" fill="#1d2943"/>
                  <path id="Trazado_1283321" data-name="Trazado 1283321" d="M26.912,4.627a2.1,2.1,0,0,1-.95,1.636.657.657,0,0,1-.7.058l-.365-.2a.707.707,0,0,1-.278-.614,2.1,2.1,0,0,1,.95-1.651.7.7,0,0,1,.687-.058l.38.219a.688.688,0,0,1,.278.614Z" transform="translate(-16 -3.728)" fill="#1d2943"/>
                  <path id="Trazado_1283322" data-name="Trazado 1283322" d="M23.685,5.713a.688.688,0,0,1,.278.614,2.122,2.122,0,0,1-.95,1.651.7.7,0,0,1-.687.058l-.38-.219a.688.688,0,0,1-.278-.614,2.1,2.1,0,0,1,.95-1.636.67.67,0,0,1,.687-.073Z" transform="translate(-17.36 -2.945)" fill="#1d2943"/>
                </g>
                <g id="Grupo_1214498" data-name="Grupo 1214498" transform="translate(25.159 3.118)">
                  <g id="Grupo_1214484" data-name="Grupo 1214484" transform="translate(0.382 5.196)">
                    <g id="Grupo_1214483" data-name="Grupo 1214483">
                      <g id="Grupo_1214482" data-name="Grupo 1214482">
                        <path id="Trazado_1283323" data-name="Trazado 1283323" d="M19.933,7.416c.526-.3.953-.06.955.544A2.09,2.09,0,0,1,19.939,9.6c-.525.3-.952.06-.954-.544a2.089,2.089,0,0,1,.948-1.643Z" transform="translate(-18.985 -7.285)" fill="#4c5c75"/>
                      </g>
                    </g>
                  </g>
                  <g id="Grupo_1214487" data-name="Grupo 1214487" transform="translate(4.689 2.708)">
                    <g id="Grupo_1214486" data-name="Grupo 1214486">
                      <g id="Grupo_1214485" data-name="Grupo 1214485">
                        <path id="Trazado_1283324" data-name="Trazado 1283324" d="M22.883,5.713c.525-.3.953-.06.955.544A2.092,2.092,0,0,1,22.889,7.9c-.526.3-.953.06-.955-.543A2.09,2.09,0,0,1,22.883,5.713Z" transform="translate(-21.934 -5.583)" fill="#4c5c75"/>
                      </g>
                    </g>
                  </g>
                  <g id="Grupo_1214494" data-name="Grupo 1214494">
                    <g id="Grupo_1214489" data-name="Grupo 1214489" transform="translate(0 4.974)">
                      <g id="Grupo_1214488" data-name="Grupo 1214488">
                        <path id="Trazado_1283325" data-name="Trazado 1283325" d="M20.35,7.2l.38.222a.671.671,0,0,0-.678.067,2.089,2.089,0,0,0-.946,1.642.662.662,0,0,0,.278.609L19,9.518a.671.671,0,0,1-.278-.611,2.09,2.09,0,0,1,.948-1.642A.675.675,0,0,1,20.35,7.2Z" transform="translate(-18.724 -7.134)" fill="#1d2943"/>
                      </g>
                    </g>
                    <g id="Grupo_1214491" data-name="Grupo 1214491" transform="translate(4.309 2.487)">
                      <g id="Grupo_1214490" data-name="Grupo 1214490">
                        <path id="Trazado_1283326" data-name="Trazado 1283326" d="M23.3,5.495l.38.222A.671.671,0,0,0,23,5.783a2.091,2.091,0,0,0-.948,1.644.666.666,0,0,0,.278.609l-.38-.222a.662.662,0,0,1-.278-.609,2.089,2.089,0,0,1,.948-1.644.675.675,0,0,1,.678-.067Z" transform="translate(-21.673 -5.431)" fill="#1d2943"/>
                      </g>
                    </g>
                    <g id="Grupo_1214493" data-name="Grupo 1214493" transform="translate(8.617)">
                      <g id="Grupo_1214492" data-name="Grupo 1214492">
                        <path id="Trazado_1283327" data-name="Trazado 1283327" d="M26.629,4.013a.675.675,0,0,0-.678.067A2.09,2.09,0,0,0,25,5.722a.667.667,0,0,0,.278.611l-.38-.222a.662.662,0,0,1-.278-.609,2.089,2.089,0,0,1,.946-1.644.679.679,0,0,1,.678-.067Z" transform="translate(-24.623 -3.729)" fill="#1d2943"/>
                      </g>
                    </g>
                  </g>
                  <g id="Grupo_1214497" data-name="Grupo 1214497" transform="translate(8.998 0.221)">
                    <g id="Grupo_1214496" data-name="Grupo 1214496">
                      <g id="Grupo_1214495" data-name="Grupo 1214495">
                        <path id="Trazado_1283328" data-name="Trazado 1283328" d="M25.831,4.011c.526-.3.953-.06.955.544A2.09,2.09,0,0,1,25.837,6.2c-.525.3-.952.06-.954-.544a2.089,2.089,0,0,1,.948-1.643Z" transform="translate(-24.884 -3.88)" fill="#4c5c75"/>
                      </g>
                    </g>
                  </g>
                </g>
              </g>
              <g id="Grupo_1214524" data-name="Grupo 1214524" transform="translate(3.138 35.09)">
                <path id="Trazado_1283329" data-name="Trazado 1283329" d="M10.412,36.5a1.336,1.336,0,0,1-.584,1.037L4.5,40.6a.369.369,0,0,1-.511-.044c.029.029.044.073.073.088l-.234-.131a.472.472,0,0,1-.175-.38,1.362,1.362,0,0,1,.6-1.037L9.58,36.017A.409.409,0,0,1,10,35.988l.234.132a.387.387,0,0,1,.175.38Z" transform="translate(-3.649 -20.857)" fill="#5ec363"/>
                <g id="Grupo_1214505" data-name="Grupo 1214505" transform="translate(0.007 15.084)">
                  <g id="Grupo_1214502" data-name="Grupo 1214502" transform="translate(0.235 0.137)">
                    <g id="Grupo_1214501" data-name="Grupo 1214501">
                      <g id="Grupo_1214500" data-name="Grupo 1214500">
                        <path id="Trazado_1283330" data-name="Trazado 1283330" d="M9.741,36.117c.329-.19.6-.038.6.341a1.312,1.312,0,0,1-.595,1.03L4.413,40.566c-.329.19-.6.037-.6-.342A1.31,1.31,0,0,1,4.409,39.2Z" transform="translate(-3.814 -36.035)" fill="#78e75a"/>
                      </g>
                    </g>
                  </g>
                  <g id="Grupo_1214504" data-name="Grupo 1214504">
                    <g id="Grupo_1214503" data-name="Grupo 1214503">
                      <path id="Trazado_1283331" data-name="Trazado 1283331" d="M10.24,36.118a.422.422,0,0,0-.425.042L4.483,39.238a1.31,1.31,0,0,0-.594,1.03.421.421,0,0,0,.174.383l-.235-.137a.421.421,0,0,1-.174-.383,1.313,1.313,0,0,1,.594-1.03L9.58,36.023a.42.42,0,0,1,.425-.041Z" transform="translate(-3.653 -35.941)" fill="#5ec363"/>
                    </g>
                  </g>
                </g>
                <path id="Trazado_1283332" data-name="Trazado 1283332" d="M16.368,33.06a1.27,1.27,0,0,1-.584,1.022l-5.332,3.082a.415.415,0,0,1-.424.044l-.234-.131a.428.428,0,0,1-.175-.394,1.251,1.251,0,0,1,.584-1.023l5.332-3.082a.455.455,0,0,1,.424-.044l.234.146A.387.387,0,0,1,16.368,33.06Z" transform="translate(-0.898 -22.443)" fill="#b0b8cf"/>
                <g id="Grupo_1214511" data-name="Grupo 1214511" transform="translate(8.716 10.056)">
                  <g id="Grupo_1214508" data-name="Grupo 1214508" transform="translate(0.235 0.137)">
                    <g id="Grupo_1214507" data-name="Grupo 1214507">
                      <g id="Grupo_1214506" data-name="Grupo 1214506">
                        <path id="Trazado_1283333" data-name="Trazado 1283333" d="M15.7,32.675c.329-.19.6-.038.6.341a1.312,1.312,0,0,1-.595,1.03l-5.333,3.079c-.329.19-.6.037-.6-.342a1.31,1.31,0,0,1,.594-1.029Z" transform="translate(-9.776 -32.593)" fill="#b0b8cf"/>
                      </g>
                    </g>
                  </g>
                  <g id="Grupo_1214510" data-name="Grupo 1214510">
                    <g id="Grupo_1214509" data-name="Grupo 1214509">
                      <path id="Trazado_1283334" data-name="Trazado 1283334" d="M16.2,32.676a.422.422,0,0,0-.425.042L10.445,35.8a1.31,1.31,0,0,0-.594,1.03.421.421,0,0,0,.174.383l-.235-.137a.421.421,0,0,1-.174-.383,1.313,1.313,0,0,1,.594-1.03l5.333-3.078a.42.42,0,0,1,.425-.041Z" transform="translate(-9.615 -32.499)" fill="#9ea9c9"/>
                    </g>
                  </g>
                </g>
                <path id="Trazado_1283335" data-name="Trazado 1283335" d="M22.342,29.622a1.324,1.324,0,0,1-.6,1.023l-5.332,3.082a.356.356,0,0,1-.511-.058.3.3,0,0,0,.088.1l-.234-.146a.387.387,0,0,1-.175-.38,1.26,1.26,0,0,1,.6-1.023L21.51,29.14a.415.415,0,0,1,.424-.044l.234.132a.462.462,0,0,1,.175.394Z" transform="translate(1.848 -24.029)" fill="#febc1f"/>
                <g id="Grupo_1214517" data-name="Grupo 1214517" transform="translate(17.425 5.028)">
                  <g id="Grupo_1214514" data-name="Grupo 1214514" transform="translate(0.235 0.137)">
                    <g id="Grupo_1214513" data-name="Grupo 1214513">
                      <g id="Grupo_1214512" data-name="Grupo 1214512">
                        <path id="Trazado_1283336" data-name="Trazado 1283336" d="M21.665,29.233c.329-.19.6-.038.6.341a1.312,1.312,0,0,1-.595,1.03l-5.333,3.079c-.329.19-.6.037-.6-.342a1.31,1.31,0,0,1,.594-1.029Z" transform="translate(-15.738 -29.151)" fill="#ffd06c"/>
                      </g>
                    </g>
                  </g>
                  <g id="Grupo_1214516" data-name="Grupo 1214516">
                    <g id="Grupo_1214515" data-name="Grupo 1214515">
                      <path id="Trazado_1283337" data-name="Trazado 1283337" d="M22.164,29.234a.422.422,0,0,0-.425.042l-5.333,3.078a1.31,1.31,0,0,0-.594,1.03.421.421,0,0,0,.174.383l-.235-.137a.421.421,0,0,1-.174-.383,1.313,1.313,0,0,1,.594-1.03L21.5,29.139a.42.42,0,0,1,.425-.041Z" transform="translate(-15.577 -29.057)" fill="#febc1f"/>
                    </g>
                  </g>
                </g>
                <path id="Trazado_1283338" data-name="Trazado 1283338" d="M28.3,26.167a1.311,1.311,0,0,1-.6,1.037l-5.332,3.082a.372.372,0,0,1-.511-.058.627.627,0,0,0,.088.1l-.234-.146a.416.416,0,0,1-.175-.38,1.348,1.348,0,0,1,.6-1.037L27.47,25.7a.415.415,0,0,1,.424-.044l.234.131A.433.433,0,0,1,28.3,26.167Z" transform="translate(4.595 -25.614)" fill="#566df9"/>
                <g id="Grupo_1214523" data-name="Grupo 1214523" transform="translate(26.134)">
                  <g id="Grupo_1214520" data-name="Grupo 1214520" transform="translate(0.235 0.137)">
                    <g id="Grupo_1214519" data-name="Grupo 1214519">
                      <g id="Grupo_1214518" data-name="Grupo 1214518">
                        <path id="Trazado_1283339" data-name="Trazado 1283339" d="M27.627,25.791c.329-.19.6-.038.6.341a1.312,1.312,0,0,1-.595,1.03L22.3,30.24c-.329.19-.6.037-.6-.342a1.31,1.31,0,0,1,.594-1.029Z" transform="translate(-21.7 -25.709)" fill="#678aee"/>
                      </g>
                    </g>
                  </g>
                  <g id="Grupo_1214522" data-name="Grupo 1214522">
                    <g id="Grupo_1214521" data-name="Grupo 1214521">
                      <path id="Trazado_1283340" data-name="Trazado 1283340" d="M28.126,25.792a.422.422,0,0,0-.425.042l-5.333,3.078a1.31,1.31,0,0,0-.594,1.03.421.421,0,0,0,.174.383l-.235-.137a.421.421,0,0,1-.174-.383,1.313,1.313,0,0,1,.594-1.03L27.466,25.7a.42.42,0,0,1,.425-.041Z" transform="translate(-21.539 -25.615)" fill="#566df9"/>
                    </g>
                  </g>
                </g>
              </g>
            </g>
          </g>
        </g>
      </g>
      <g id="Grupo_1214609" data-name="Grupo 1214609" transform="translate(17.212 25.403)">
        <path id="Trazado_1283341" data-name="Trazado 1283341" d="M66.659,37.189l-.015,3.243a2.149,2.149,0,0,1-1.256,1.753L35.354,59.641a6.746,6.746,0,0,1-6.121,0L13.53,50.57a2.178,2.178,0,0,1-1.271-1.782l.015-3.243a2.1,2.1,0,0,1,1.256-1.753L43.564,26.335a6.716,6.716,0,0,1,6.106,0l15.718,9.072a2,2,0,0,1,1.227,2.06,1.826,1.826,0,0,0,.044-.278Z" transform="translate(-12.254 -14.341)" fill="#1d2943"/>
        <g id="Grupo_1214555" data-name="Grupo 1214555" transform="translate(0 11.261)">
          <g id="Grupo_1214551" data-name="Grupo 1214551">
            <g id="Grupo_1214550" data-name="Grupo 1214550">
              <g id="Grupo_1214549" data-name="Grupo 1214549">
                <g id="Grupo_1214548" data-name="Grupo 1214548">
                  <g id="Grupo_1214542" data-name="Grupo 1214542">
                    <g id="Grupo_1214533" data-name="Grupo 1214533">
                      <g id="Grupo_1214532" data-name="Grupo 1214532">
                        <g id="Grupo_1214529" data-name="Grupo 1214529" transform="translate(0 11.587)">
                          <path id="Trazado_1283342" data-name="Trazado 1283342" d="M65.407,35.292,35.371,52.747a6.74,6.74,0,0,1-6.116,0L13.544,43.678A2.162,2.162,0,0,1,12.269,41.9l-.014,3.237a2.162,2.162,0,0,0,1.275,1.782l15.711,9.071a6.74,6.74,0,0,0,6.116,0L65.393,38.529a2.147,2.147,0,0,0,1.257-1.758l.014-3.237a2.147,2.147,0,0,1-1.257,1.758Z" transform="translate(-12.255 -33.534)" fill="#9ea9c9"/>
                        </g>
                        <g id="Grupo_1214531" data-name="Grupo 1214531" transform="translate(0.014)">
                          <g id="Grupo_1214530" data-name="Grupo 1214530">
                            <path id="Trazado_1283343" data-name="Trazado 1283343" d="M65.383,35.406c1.694.978,1.7,2.563.02,3.541L35.367,56.4a6.74,6.74,0,0,1-6.116,0L13.54,47.333c-1.694-.978-1.7-2.564-.017-3.542L43.559,26.335a6.734,6.734,0,0,1,6.113,0Z" transform="translate(-12.265 -25.602)" fill="#1d2943"/>
                          </g>
                        </g>
                      </g>
                    </g>
                    <g id="Grupo_1214541" data-name="Grupo 1214541" transform="translate(4.746 2.419)">
                      <g id="Grupo_1214535" data-name="Grupo 1214535" transform="translate(36.426 2.798)">
                        <g id="Grupo_1214534" data-name="Grupo 1214534">
                          <path id="Trazado_1283344" data-name="Trazado 1283344" d="M44.473,31.031a.25.25,0,0,1,0,.473.9.9,0,0,1-.816,0l-3.048-1.76a.25.25,0,0,1,0-.473.9.9,0,0,1,.816,0Z" transform="translate(-40.44 -29.173)" fill="#4c5c75"/>
                        </g>
                      </g>
                      <g id="Grupo_1214540" data-name="Grupo 1214540">
                        <g id="Grupo_1214537" data-name="Grupo 1214537" transform="translate(4.923 21.306)">
                          <g id="Grupo_1214536" data-name="Grupo 1214536">
                            <ellipse id="Elipse_13597" data-name="Elipse 13597" cx="1.119" cy="1.931" rx="1.119" ry="1.931" transform="translate(0 2.238) rotate(-89.828)" fill="#4c5c75"/>
                          </g>
                        </g>
                        <g id="Grupo_1214539" data-name="Grupo 1214539">
                          <g id="Grupo_1214538" data-name="Grupo 1214538">
                            <path id="Trazado_1283345" data-name="Trazado 1283345" d="M61,37.558,33.345,53.627,15.5,43.327l27.652-16.07Z" transform="translate(-15.504 -27.258)" fill="#fff"/>
                          </g>
                        </g>
                      </g>
                    </g>
                  </g>
                  <g id="Grupo_1214547" data-name="Grupo 1214547" transform="translate(43.737 15.361)">
                    <g id="Grupo_1214544" data-name="Grupo 1214544" transform="translate(0 1.227)">
                      <g id="Grupo_1214543" data-name="Grupo 1214543">
                        <path id="Trazado_1283346" data-name="Trazado 1283346" d="M42.9,39.673A1.559,1.559,0,0,0,42.2,40.9c0,.454.318.635.713.406l4.535-2.619a1.559,1.559,0,0,0,.709-1.227c0-.45-.322-.633-.713-.406Z" transform="translate(-42.196 -36.957)" fill="#1d2943"/>
                      </g>
                    </g>
                    <g id="Grupo_1214546" data-name="Grupo 1214546" transform="translate(6.683)">
                      <g id="Grupo_1214545" data-name="Grupo 1214545">
                        <path id="Trazado_1283347" data-name="Trazado 1283347" d="M47.472,36.214a1.533,1.533,0,0,0-.7,1.21c0,.454.314.633.706.406a1.542,1.542,0,0,0,.7-1.219C48.176,36.166,47.86,35.99,47.472,36.214Z" transform="translate(-46.771 -36.117)" fill="#1d2943"/>
                      </g>
                    </g>
                  </g>
                </g>
              </g>
            </g>
          </g>
          <g id="Grupo_1214554" data-name="Grupo 1214554" transform="translate(7.403 26.039)">
            <g id="Grupo_1214552" data-name="Grupo 1214552">
              <path id="Trazado_1283348" data-name="Trazado 1283348" d="M18.079,45.892l-.756-2.465,2.524,1.452L18.091,45.9Z" transform="translate(-17.323 -43.427)" fill="#dedffb"/>
            </g>
            <g id="Grupo_1214553" data-name="Grupo 1214553" transform="translate(0.767 1.452)">
              <path id="Trazado_1283349" data-name="Trazado 1283349" d="M19.6,44.421l1.543.888-.774,1.6-2.526-1.469Z" transform="translate(-17.849 -44.421)" fill="#fff"/>
            </g>
          </g>
        </g>
        <g id="Grupo_1214608" data-name="Grupo 1214608" transform="translate(12.952)">
          <g id="Grupo_1214607" data-name="Grupo 1214607">
            <g id="Grupo_1214606" data-name="Grupo 1214606">
              <g id="Grupo_1214605" data-name="Grupo 1214605">
                <g id="Grupo_1214604" data-name="Grupo 1214604">
                  <g id="Grupo_1214603" data-name="Grupo 1214603">
                    <g id="Grupo_1214559" data-name="Grupo 1214559" transform="translate(18.056 2.532)">
                      <g id="Grupo_1214558" data-name="Grupo 1214558">
                        <g id="Grupo_1214557" data-name="Grupo 1214557">
                          <g id="Grupo_1214556" data-name="Grupo 1214556">
                            <path id="Trazado_1283350" data-name="Trazado 1283350" d="M41.576,38.525,37.67,40.786l-4.136-2.408-.052-16.5,3.905-2.251,4.146,2.4Z" transform="translate(-33.482 -19.626)" fill="#ffd06c"/>
                          </g>
                        </g>
                      </g>
                    </g>
                    <g id="Grupo_1214569" data-name="Grupo 1214569" transform="translate(18.059 2.527)">
                      <g id="Grupo_1214562" data-name="Grupo 1214562" transform="translate(0 2.253)">
                        <g id="Grupo_1214561" data-name="Grupo 1214561">
                          <g id="Grupo_1214560" data-name="Grupo 1214560">
                            <path id="Trazado_1283351" data-name="Trazado 1283351" d="M37.673,40.073l-4.142-2.407-.047-16.5,4.142,2.407Z" transform="translate(-33.484 -21.165)" fill="#febc1f"/>
                          </g>
                        </g>
                      </g>
                      <g id="Grupo_1214565" data-name="Grupo 1214565" transform="translate(0)">
                        <g id="Grupo_1214564" data-name="Grupo 1214564">
                          <g id="Grupo_1214563" data-name="Grupo 1214563">
                            <path id="Trazado_1283352" data-name="Trazado 1283352" d="M37.626,24.283l-4.142-2.407,3.9-2.253,4.142,2.407Z" transform="translate(-33.484 -19.623)" fill="#ffde9b"/>
                          </g>
                        </g>
                      </g>
                      <g id="Grupo_1214568" data-name="Grupo 1214568" transform="translate(4.142 2.407)">
                        <g id="Grupo_1214567" data-name="Grupo 1214567">
                          <g id="Grupo_1214566" data-name="Grupo 1214566">
                            <path id="Trazado_1283353" data-name="Trazado 1283353" d="M40.222,21.271l.047,16.5-3.9,2.253-.047-16.5Z" transform="translate(-36.319 -21.271)" fill="#ffd06c"/>
                          </g>
                        </g>
                      </g>
                    </g>
                    <g id="Grupo_1214570" data-name="Grupo 1214570" transform="translate(12.023 0)">
                      <path id="Trazado_1283354" data-name="Trazado 1283354" d="M37.4,20.3l-4.142-2.407-3.9,2.253.064,22.5,4.142,2.407,3.9-2.253Z" transform="translate(-29.352 -17.893)" fill="#7e5af2"/>
                    </g>
                    <g id="Grupo_1214580" data-name="Grupo 1214580" transform="translate(12.023)">
                      <g id="Grupo_1214573" data-name="Grupo 1214573" transform="translate(0 2.253)">
                        <g id="Grupo_1214572" data-name="Grupo 1214572">
                          <g id="Grupo_1214571" data-name="Grupo 1214571">
                            <path id="Trazado_1283355" data-name="Trazado 1283355" d="M33.558,44.345l-4.142-2.407-.064-22.5,4.142,2.407Z" transform="translate(-29.352 -19.435)" fill="#986ff9"/>
                          </g>
                        </g>
                      </g>
                      <g id="Grupo_1214576" data-name="Grupo 1214576">
                        <g id="Grupo_1214575" data-name="Grupo 1214575">
                          <g id="Grupo_1214574" data-name="Grupo 1214574">
                            <path id="Trazado_1283356" data-name="Trazado 1283356" d="M33.494,22.553l-4.142-2.407,3.9-2.253L37.4,20.3Z" transform="translate(-29.352 -17.893)" fill="#b28afd"/>
                          </g>
                        </g>
                      </g>
                      <g id="Grupo_1214579" data-name="Grupo 1214579" transform="translate(4.142 2.407)">
                        <g id="Grupo_1214578" data-name="Grupo 1214578">
                          <g id="Grupo_1214577" data-name="Grupo 1214577">
                            <path id="Trazado_1283357" data-name="Trazado 1283357" d="M36.09,19.541l.064,22.5-3.9,2.253-.064-22.5Z" transform="translate(-32.188 -19.541)" fill="#7e5af2"/>
                          </g>
                        </g>
                      </g>
                    </g>
                    <g id="Grupo_1214581" data-name="Grupo 1214581" transform="translate(6.027 11.503)">
                      <path id="Trazado_1283358" data-name="Trazado 1283358" d="M33.292,28.175,29.15,25.768l-3.9,2.253.041,14.474L29.431,44.9l3.9-2.253Z" transform="translate(-25.248 -25.768)" fill="#bf7d5a"/>
                    </g>
                    <g id="Grupo_1214591" data-name="Grupo 1214591" transform="translate(6.027 11.503)">
                      <g id="Grupo_1214584" data-name="Grupo 1214584" transform="translate(0 2.253)">
                        <g id="Grupo_1214583" data-name="Grupo 1214583">
                          <g id="Grupo_1214582" data-name="Grupo 1214582">
                            <path id="Trazado_1283359" data-name="Trazado 1283359" d="M29.431,44.191l-4.142-2.407L25.247,27.31l4.142,2.407Z" transform="translate(-25.247 -27.31)" fill="#aa6256"/>
                          </g>
                        </g>
                      </g>
                      <g id="Grupo_1214587" data-name="Grupo 1214587">
                        <g id="Grupo_1214586" data-name="Grupo 1214586">
                          <g id="Grupo_1214585" data-name="Grupo 1214585">
                            <path id="Trazado_1283360" data-name="Trazado 1283360" d="M29.39,30.428l-4.142-2.407,3.9-2.253,4.142,2.407Z" transform="translate(-25.247 -25.768)" fill="#dba660"/>
                          </g>
                        </g>
                      </g>
                      <g id="Grupo_1214590" data-name="Grupo 1214590" transform="translate(4.142 2.407)">
                        <g id="Grupo_1214589" data-name="Grupo 1214589">
                          <g id="Grupo_1214588" data-name="Grupo 1214588">
                            <path id="Trazado_1283361" data-name="Trazado 1283361" d="M31.985,27.415l.041,14.474-3.9,2.253-.041-14.474Z" transform="translate(-28.083 -27.415)" fill="#bf7d5a"/>
                          </g>
                        </g>
                      </g>
                    </g>
                    <g id="Grupo_1214592" data-name="Grupo 1214592" transform="translate(0 18.202)">
                      <path id="Trazado_1283362" data-name="Trazado 1283362" d="M29.166,32.76l-4.142-2.407-3.9,2.253.049,11.25,4.142,2.407,3.9-2.253Z" transform="translate(-21.122 -30.353)" fill="#72d561"/>
                    </g>
                    <g id="Grupo_1214602" data-name="Grupo 1214602" transform="translate(0 18.202)">
                      <g id="Grupo_1214595" data-name="Grupo 1214595" transform="translate(0 2.253)">
                        <g id="Grupo_1214594" data-name="Grupo 1214594">
                          <g id="Grupo_1214593" data-name="Grupo 1214593">
                            <path id="Trazado_1283363" data-name="Trazado 1283363" d="M25.313,45.553l-4.142-2.407L21.122,31.9,25.264,34.3Z" transform="translate(-21.122 -31.896)" fill="#5ec363"/>
                          </g>
                        </g>
                      </g>
                      <g id="Grupo_1214598" data-name="Grupo 1214598">
                        <g id="Grupo_1214597" data-name="Grupo 1214597">
                          <g id="Grupo_1214596" data-name="Grupo 1214596">
                            <path id="Trazado_1283364" data-name="Trazado 1283364" d="M25.264,35.013l-4.142-2.407,3.9-2.253,4.142,2.407Z" transform="translate(-21.122 -30.353)" fill="#78e75a"/>
                          </g>
                        </g>
                      </g>
                      <g id="Grupo_1214601" data-name="Grupo 1214601" transform="translate(4.142 2.407)">
                        <g id="Grupo_1214600" data-name="Grupo 1214600">
                          <g id="Grupo_1214599" data-name="Grupo 1214599">
                            <path id="Trazado_1283365" data-name="Trazado 1283365" d="M27.86,32l.049,11.25-3.9,2.253-.049-11.25Z" transform="translate(-23.957 -32.001)" fill="#72d561"/>
                          </g>
                        </g>
                      </g>
                    </g>
                  </g>
                </g>
              </g>
            </g>
          </g>
        </g>
      </g>
      <g id="Grupo_1214666" data-name="Grupo 1214666" transform="translate(5.274 10.885)">
        <g id="Grupo_1214611" data-name="Grupo 1214611" transform="translate(0 15.349)">
          <g id="Grupo_1214610" data-name="Grupo 1214610">
            <path id="Trazado_1283366" data-name="Trazado 1283366" d="M4.1,26.325,4.083,21.24a.22.22,0,0,1,.109-.19l4.431-2.558a.219.219,0,0,1,.329.189l.014,5.086a.22.22,0,0,1-.109.19L4.426,26.514a.219.219,0,0,1-.329-.189Zm.424-4.96.013,4.581,3.993-2.305L8.515,19.06Z" transform="translate(-4.083 -18.462)" fill="#f3f1fc"/>
          </g>
        </g>
        <g id="Grupo_1214613" data-name="Grupo 1214613" transform="translate(4.431 12.791)">
          <g id="Grupo_1214612" data-name="Grupo 1214612">
            <path id="Trazado_1283367" data-name="Trazado 1283367" d="M7.35,24.793a.212.212,0,0,1-.109-.029.218.218,0,0,1-.11-.189l-.014-5.086a.22.22,0,0,1,.109-.19l4.431-2.559a.219.219,0,0,1,.329.189L12,22.015a.22.22,0,0,1-.109.19L7.46,24.764A.224.224,0,0,1,7.35,24.793Zm.205-5.178L7.568,24.2l3.993-2.306-.013-4.581Z" transform="translate(-7.117 -16.71)" fill="#f3f1fc"/>
          </g>
        </g>
        <g id="Grupo_1214615" data-name="Grupo 1214615" transform="translate(8.862 10.233)">
          <g id="Grupo_1214614" data-name="Grupo 1214614">
            <path id="Trazado_1283368" data-name="Trazado 1283368" d="M10.383,23.041a.212.212,0,0,1-.109-.029.218.218,0,0,1-.11-.189l-.014-5.086a.22.22,0,0,1,.109-.19l4.431-2.558a.219.219,0,0,1,.329.189l.014,5.086a.22.22,0,0,1-.109.19l-4.431,2.558a.224.224,0,0,1-.11.029Zm.205-5.178.013,4.581,3.993-2.305-.013-4.581Z" transform="translate(-10.15 -14.959)" fill="#f3f1fc"/>
          </g>
        </g>
        <g id="Grupo_1214617" data-name="Grupo 1214617" transform="translate(13.293 7.674)">
          <g id="Grupo_1214616" data-name="Grupo 1214616">
            <path id="Trazado_1283369" data-name="Trazado 1283369" d="M13.416,21.29a.212.212,0,0,1-.109-.029.218.218,0,0,1-.11-.189l-.014-5.086a.22.22,0,0,1,.109-.19l4.431-2.559a.219.219,0,0,1,.329.189l.014,5.086a.22.22,0,0,1-.109.19l-4.431,2.559a.224.224,0,0,1-.11.029Zm.205-5.178.013,4.581,3.993-2.306-.013-4.581Z" transform="translate(-13.183 -13.208)" fill="#f3f1fc"/>
          </g>
        </g>
        <g id="Grupo_1214619" data-name="Grupo 1214619" transform="translate(17.724 5.116)">
          <g id="Grupo_1214618" data-name="Grupo 1214618">
            <path id="Trazado_1283370" data-name="Trazado 1283370" d="M16.449,19.539a.212.212,0,0,1-.109-.029.218.218,0,0,1-.11-.189l-.014-5.086a.22.22,0,0,1,.109-.19l4.431-2.558a.219.219,0,0,1,.329.189l.014,5.086a.22.22,0,0,1-.109.19l-4.431,2.558a.224.224,0,0,1-.11.029Zm.205-5.178.013,4.581,3.993-2.305-.013-4.581Z" transform="translate(-16.216 -11.457)" fill="#f3f1fc"/>
          </g>
        </g>
        <g id="Grupo_1214621" data-name="Grupo 1214621" transform="translate(22.154 2.558)">
          <g id="Grupo_1214620" data-name="Grupo 1214620">
            <path id="Trazado_1283371" data-name="Trazado 1283371" d="M19.483,17.788a.212.212,0,0,1-.109-.029.218.218,0,0,1-.11-.189l-.014-5.086a.22.22,0,0,1,.109-.19l4.431-2.559a.219.219,0,0,1,.329.189l.014,5.086a.22.22,0,0,1-.109.19l-4.431,2.559A.224.224,0,0,1,19.483,17.788Zm.205-5.178L19.7,17.19l3.993-2.306L23.681,10.3Z" transform="translate(-19.249 -9.705)" fill="#f3f1fc"/>
          </g>
        </g>
        <g id="Grupo_1214623" data-name="Grupo 1214623" transform="translate(26.585)">
          <g id="Grupo_1214622" data-name="Grupo 1214622">
            <path id="Trazado_1283372" data-name="Trazado 1283372" d="M22.516,16.036a.212.212,0,0,1-.109-.029.218.218,0,0,1-.11-.189l-.014-5.086a.22.22,0,0,1,.109-.19l4.431-2.558a.219.219,0,0,1,.329.189l.014,5.085a.22.22,0,0,1-.109.19l-4.431,2.559a.224.224,0,0,1-.11.029Zm.205-5.178.013,4.581,3.993-2.306-.013-4.58Z" transform="translate(-22.283 -7.954)" fill="#f3f1fc"/>
          </g>
        </g>
        <g id="Grupo_1214625" data-name="Grupo 1214625" transform="translate(0.014 20.435)">
          <g id="Grupo_1214624" data-name="Grupo 1214624">
            <path id="Trazado_1283373" data-name="Trazado 1283373" d="M4.107,29.807l-.014-5.086a.22.22,0,0,1,.109-.19l4.431-2.558a.219.219,0,0,1,.329.189l.014,5.086a.22.22,0,0,1-.109.19L4.436,30a.219.219,0,0,1-.329-.189Zm.424-4.96.013,4.581,3.993-2.305-.013-4.581Z" transform="translate(-4.093 -21.943)" fill="#f3f1fc"/>
          </g>
        </g>
        <g id="Grupo_1214627" data-name="Grupo 1214627" transform="translate(4.445 17.876)">
          <g id="Grupo_1214626" data-name="Grupo 1214626">
            <path id="Trazado_1283374" data-name="Trazado 1283374" d="M7.36,28.274a.212.212,0,0,1-.109-.029.218.218,0,0,1-.11-.189L7.126,22.97a.22.22,0,0,1,.109-.19l4.431-2.559A.219.219,0,0,1,12,20.41l.014,5.086a.22.22,0,0,1-.109.19L7.469,28.245a.224.224,0,0,1-.11.029ZM7.565,23.1l.013,4.581,3.993-2.306-.013-4.581Z" transform="translate(-7.126 -20.192)" fill="#f3f1fc"/>
          </g>
        </g>
        <g id="Grupo_1214629" data-name="Grupo 1214629" transform="translate(8.876 15.319)">
          <g id="Grupo_1214628" data-name="Grupo 1214628">
            <path id="Trazado_1283375" data-name="Trazado 1283375" d="M10.393,26.523a.212.212,0,0,1-.109-.029.218.218,0,0,1-.11-.189l-.014-5.086a.22.22,0,0,1,.109-.19L14.7,18.47a.219.219,0,0,1,.329.189l.014,5.086a.22.22,0,0,1-.109.19L10.5,26.493A.224.224,0,0,1,10.393,26.523Zm.205-5.178.013,4.581L14.6,23.619l-.013-4.581Z" transform="translate(-10.16 -18.441)" fill="#f3f1fc"/>
          </g>
        </g>
        <g id="Grupo_1214631" data-name="Grupo 1214631" transform="translate(13.307 12.76)">
          <g id="Grupo_1214630" data-name="Grupo 1214630">
            <path id="Trazado_1283376" data-name="Trazado 1283376" d="M13.426,24.772a.212.212,0,0,1-.109-.029.218.218,0,0,1-.11-.189l-.014-5.086a.22.22,0,0,1,.109-.19l4.431-2.559a.219.219,0,0,1,.329.189l.014,5.086a.22.22,0,0,1-.109.19l-4.431,2.559a.224.224,0,0,1-.11.029Zm.205-5.178.013,4.581,3.993-2.306-.013-4.581Z" transform="translate(-13.193 -16.689)" fill="#f3f1fc"/>
          </g>
        </g>
        <g id="Grupo_1214633" data-name="Grupo 1214633" transform="translate(17.738 10.202)">
          <g id="Grupo_1214632" data-name="Grupo 1214632" transform="translate(0)">
            <path id="Trazado_1283377" data-name="Trazado 1283377" d="M16.459,23.02a.212.212,0,0,1-.109-.029.218.218,0,0,1-.11-.189l-.014-5.086a.22.22,0,0,1,.109-.19l4.431-2.558a.219.219,0,0,1,.329.189l.014,5.085a.22.22,0,0,1-.109.19l-4.431,2.559a.224.224,0,0,1-.11.029Zm.205-5.178.013,4.581,3.993-2.306-.013-4.58Z" transform="translate(-16.226 -14.938)" fill="#f3f1fc"/>
          </g>
        </g>
        <g id="Grupo_1214635" data-name="Grupo 1214635" transform="translate(22.169 7.644)">
          <g id="Grupo_1214634" data-name="Grupo 1214634" transform="translate(0)">
            <path id="Trazado_1283378" data-name="Trazado 1283378" d="M19.492,21.269a.212.212,0,0,1-.109-.029.218.218,0,0,1-.11-.189l-.014-5.085a.218.218,0,0,1,.109-.19L23.8,13.216a.219.219,0,0,1,.329.189l.015,5.086a.218.218,0,0,1-.109.19L19.6,21.239a.224.224,0,0,1-.11.029Zm.205-5.178.013,4.58L23.7,18.366l-.014-4.581Z" transform="translate(-19.259 -13.187)" fill="#f3f1fc"/>
          </g>
        </g>
        <g id="Grupo_1214637" data-name="Grupo 1214637" transform="translate(26.6 5.085)">
          <g id="Grupo_1214636" data-name="Grupo 1214636">
            <path id="Trazado_1283379" data-name="Trazado 1283379" d="M22.526,19.518a.212.212,0,0,1-.109-.029.217.217,0,0,1-.11-.189l-.015-5.086a.218.218,0,0,1,.109-.19l4.431-2.559a.219.219,0,0,1,.329.189l.015,5.086a.218.218,0,0,1-.109.19l-4.431,2.559a.224.224,0,0,1-.11.029Zm.2-5.178.014,4.581,3.993-2.306-.014-4.581Z" transform="translate(-22.292 -11.435)" fill="#f3f1fc"/>
          </g>
        </g>
        <g id="Grupo_1214639" data-name="Grupo 1214639" transform="translate(0.029 25.521)">
          <g id="Grupo_1214638" data-name="Grupo 1214638">
            <path id="Trazado_1283380" data-name="Trazado 1283380" d="M4.117,33.288,4.1,28.2a.22.22,0,0,1,.109-.19l4.431-2.558a.219.219,0,0,1,.329.189l.014,5.085a.22.22,0,0,1-.109.19L4.446,33.477a.219.219,0,0,1-.329-.189Zm.424-4.96.013,4.581L8.547,30.6l-.013-4.58Z" transform="translate(-4.103 -25.425)" fill="#f3f1fc"/>
          </g>
        </g>
        <g id="Grupo_1214641" data-name="Grupo 1214641" transform="translate(4.459 22.962)">
          <g id="Grupo_1214640" data-name="Grupo 1214640">
            <path id="Trazado_1283381" data-name="Trazado 1283381" d="M7.369,31.755a.212.212,0,0,1-.109-.029.218.218,0,0,1-.11-.189l-.014-5.085a.22.22,0,0,1,.109-.19L11.676,23.7a.219.219,0,0,1,.329.189l.014,5.086a.22.22,0,0,1-.109.19L7.479,31.726a.224.224,0,0,1-.11.029Zm.205-5.178.013,4.58,3.993-2.305-.013-4.581Z" transform="translate(-7.136 -23.673)" fill="#f3f1fc"/>
          </g>
        </g>
        <g id="Grupo_1214643" data-name="Grupo 1214643" transform="translate(8.89 20.404)">
          <g id="Grupo_1214642" data-name="Grupo 1214642">
            <path id="Trazado_1283382" data-name="Trazado 1283382" d="M10.4,30a.212.212,0,0,1-.109-.029.218.218,0,0,1-.11-.189L10.169,24.7a.218.218,0,0,1,.109-.19l4.431-2.558a.219.219,0,0,1,.329.189l.015,5.085a.218.218,0,0,1-.109.19l-4.432,2.559A.224.224,0,0,1,10.4,30Zm.205-5.178.013,4.581L14.615,27.1,14.6,22.52Z" transform="translate(-10.169 -21.922)" fill="#f3f1fc"/>
          </g>
        </g>
        <g id="Grupo_1214645" data-name="Grupo 1214645" transform="translate(13.321 17.846)">
          <g id="Grupo_1214644" data-name="Grupo 1214644">
            <path id="Trazado_1283383" data-name="Trazado 1283383" d="M13.437,28.253a.212.212,0,0,1-.109-.029.218.218,0,0,1-.11-.189L13.2,22.949a.218.218,0,0,1,.109-.19L17.743,20.2a.219.219,0,0,1,.329.189l.015,5.086a.218.218,0,0,1-.109.19l-4.431,2.558a.224.224,0,0,1-.11.029Zm.2-5.178.014,4.58,3.993-2.305-.014-4.581Z" transform="translate(-13.203 -20.171)" fill="#f3f1fc"/>
          </g>
        </g>
        <g id="Grupo_1214647" data-name="Grupo 1214647" transform="translate(17.752 15.287)">
          <g id="Grupo_1214646" data-name="Grupo 1214646" transform="translate(0)">
            <path id="Trazado_1283384" data-name="Trazado 1283384" d="M16.47,26.5a.212.212,0,0,1-.109-.029.218.218,0,0,1-.11-.189L16.236,21.2a.218.218,0,0,1,.109-.19l4.431-2.559a.219.219,0,0,1,.329.189l.015,5.086a.218.218,0,0,1-.109.19L16.58,26.472A.224.224,0,0,1,16.47,26.5Zm.2-5.178.014,4.581L20.681,23.6l-.014-4.581Z" transform="translate(-16.236 -18.419)" fill="#f3f1fc"/>
          </g>
        </g>
        <g id="Grupo_1214649" data-name="Grupo 1214649" transform="translate(22.183 12.729)">
          <g id="Grupo_1214648" data-name="Grupo 1214648" transform="translate(0)">
            <path id="Trazado_1283385" data-name="Trazado 1283385" d="M19.5,24.75a.212.212,0,0,1-.109-.029.218.218,0,0,1-.11-.189l-.015-5.086a.218.218,0,0,1,.109-.19L23.81,16.7a.219.219,0,0,1,.329.189l.014,5.086a.22.22,0,0,1-.109.19l-4.431,2.558a.224.224,0,0,1-.11.029Zm.2-5.178.014,4.581,3.993-2.305L23.7,17.266Z" transform="translate(-19.269 -16.668)" fill="#f3f1fc"/>
          </g>
        </g>
        <g id="Grupo_1214651" data-name="Grupo 1214651" transform="translate(26.615 10.171)">
          <g id="Grupo_1214650" data-name="Grupo 1214650">
            <path id="Trazado_1283386" data-name="Trazado 1283386" d="M22.536,23a.212.212,0,0,1-.109-.029.218.218,0,0,1-.11-.189L22.3,17.7a.22.22,0,0,1,.109-.19l4.431-2.559a.219.219,0,0,1,.329.189l.014,5.086a.22.22,0,0,1-.109.19L22.646,22.97a.224.224,0,0,1-.11.029Zm.205-5.178.013,4.581L26.747,20.1l-.013-4.581Z" transform="translate(-22.303 -14.917)" fill="#f3f1fc"/>
          </g>
        </g>
        <g id="Grupo_1214653" data-name="Grupo 1214653" transform="translate(0.043 30.606)">
          <g id="Grupo_1214652" data-name="Grupo 1214652">
            <path id="Trazado_1283387" data-name="Trazado 1283387" d="M4.128,36.77l-.015-5.086a.218.218,0,0,1,.109-.19l4.431-2.559a.219.219,0,0,1,.329.189L9,34.21a.218.218,0,0,1-.109.19L4.456,36.959a.219.219,0,0,1-.329-.189Zm.424-4.96.014,4.581,3.993-2.306L8.544,29.5Z" transform="translate(-4.113 -28.906)" fill="#f3f1fc"/>
          </g>
        </g>
        <g id="Grupo_1214655" data-name="Grupo 1214655" transform="translate(4.474 28.048)">
          <g id="Grupo_1214654" data-name="Grupo 1214654">
            <path id="Trazado_1283388" data-name="Trazado 1283388" d="M7.161,35.018l-.015-5.086a.218.218,0,0,1,.109-.19l4.431-2.558a.219.219,0,0,1,.329.189l.015,5.086a.218.218,0,0,1-.109.19L7.49,35.207a.219.219,0,0,1-.329-.189Zm.424-4.96L7.6,34.639l3.993-2.305-.014-4.581Z" transform="translate(-7.146 -27.155)" fill="#f3f1fc"/>
          </g>
        </g>
        <g id="Grupo_1214657" data-name="Grupo 1214657" transform="translate(8.905 25.489)">
          <g id="Grupo_1214656" data-name="Grupo 1214656">
            <path id="Trazado_1283389" data-name="Trazado 1283389" d="M10.194,33.267l-.015-5.086a.218.218,0,0,1,.109-.19l4.432-2.559a.219.219,0,0,1,.329.189l.014,5.086a.22.22,0,0,1-.109.19l-4.431,2.559a.219.219,0,0,1-.329-.189Zm.424-4.96.014,4.581,3.993-2.306L14.611,26Z" transform="translate(-10.179 -25.403)" fill="#f3f1fc"/>
          </g>
        </g>
        <g id="Grupo_1214659" data-name="Grupo 1214659" transform="translate(13.336 22.931)">
          <g id="Grupo_1214658" data-name="Grupo 1214658">
            <path id="Trazado_1283390" data-name="Trazado 1283390" d="M13.227,31.516l-.014-5.086a.22.22,0,0,1,.109-.19l4.431-2.558a.219.219,0,0,1,.329.189l.014,5.086a.22.22,0,0,1-.109.19L13.556,31.7a.219.219,0,0,1-.329-.189Zm.424-4.96.013,4.581,3.993-2.305-.013-4.581Z" transform="translate(-13.213 -23.652)" fill="#f3f1fc"/>
          </g>
        </g>
        <g id="Grupo_1214661" data-name="Grupo 1214661" transform="translate(17.767 20.373)">
          <g id="Grupo_1214660" data-name="Grupo 1214660" transform="translate(0 0)">
            <path id="Trazado_1283391" data-name="Trazado 1283391" d="M16.26,29.765l-.014-5.086a.22.22,0,0,1,.109-.19l4.431-2.559a.219.219,0,0,1,.329.189l.014,5.086a.22.22,0,0,1-.109.19l-4.431,2.559A.219.219,0,0,1,16.26,29.765Zm.424-4.96.013,4.581,3.993-2.306L20.678,22.5Z" transform="translate(-16.246 -21.901)" fill="#f3f1fc"/>
          </g>
        </g>
        <g id="Grupo_1214663" data-name="Grupo 1214663" transform="translate(22.198 17.815)">
          <g id="Grupo_1214662" data-name="Grupo 1214662">
            <path id="Trazado_1283392" data-name="Trazado 1283392" d="M19.293,28.013l-.014-5.086a.22.22,0,0,1,.109-.19l4.431-2.558a.219.219,0,0,1,.329.189l.014,5.086a.22.22,0,0,1-.109.19L19.622,28.2A.219.219,0,0,1,19.293,28.013Zm.424-4.96.013,4.581,3.993-2.305-.013-4.581Z" transform="translate(-19.279 -20.15)" fill="#f3f1fc"/>
          </g>
        </g>
        <g id="Grupo_1214665" data-name="Grupo 1214665" transform="translate(26.629 15.256)">
          <g id="Grupo_1214664" data-name="Grupo 1214664">
            <path id="Trazado_1283393" data-name="Trazado 1283393" d="M22.546,26.481a.212.212,0,0,1-.109-.029.218.218,0,0,1-.11-.189l-.014-5.086a.22.22,0,0,1,.109-.19l4.431-2.559a.219.219,0,0,1,.329.189L27.2,23.7a.22.22,0,0,1-.109.19l-4.431,2.559A.224.224,0,0,1,22.546,26.481Zm.205-5.178.013,4.581,3.993-2.306L26.744,19Z" transform="translate(-22.312 -18.398)" fill="#f3f1fc"/>
          </g>
        </g>
      </g>
      <g id="Grupo_1214681" data-name="Grupo 1214681" transform="translate(8.35 15.197)">
        <g id="Grupo_1214668" data-name="Grupo 1214668" transform="translate(1.68)">
          <g id="Grupo_1214667" data-name="Grupo 1214667">
            <path id="Trazado_1283394" data-name="Trazado 1283394" d="M31.063,10.906l-.657,4.468-1.078-.614L24.12,23.6l-7.431,3.45L7.954,38.389l-.616-.772L16.4,25.855,23.7,22.468l4.809-8.177-1-.574Z" transform="translate(-7.338 -10.906)" fill="#4c5c75"/>
          </g>
        </g>
        <g id="Grupo_1214670" data-name="Grupo 1214670" transform="translate(0 25.672)">
          <g id="Grupo_1214669" data-name="Grupo 1214669">
            <path id="Trazado_1283395" data-name="Trazado 1283395" d="M7.856,28.709c.926-.535,1.689-.1,1.692.948a3.7,3.7,0,0,1-1.681,2.9c-.912.527-1.675.108-1.678-.956a3.715,3.715,0,0,1,1.667-2.888Z" transform="translate(-6.189 -28.48)" fill="#72d561"/>
          </g>
        </g>
        <g id="Grupo_1214672" data-name="Grupo 1214672" transform="translate(0.566 26.398)">
          <g id="Grupo_1214671" data-name="Grupo 1214671">
            <path id="Trazado_1283396" data-name="Trazado 1283396" d="M7.681,29.128c.614-.354,1.119-.066,1.121.628a2.449,2.449,0,0,1-1.114,1.919c-.6.349-1.11.072-1.112-.634a2.462,2.462,0,0,1,1.1-1.914Z" transform="translate(-6.576 -28.976)" fill="#fff"/>
          </g>
        </g>
        <g id="Grupo_1214674" data-name="Grupo 1214674" transform="translate(9.349 13.55)">
          <g id="Grupo_1214673" data-name="Grupo 1214673">
            <path id="Trazado_1283397" data-name="Trazado 1283397" d="M14.256,20.411c.926-.535,1.689-.1,1.692.948a3.7,3.7,0,0,1-1.681,2.9c-.912.527-1.675.108-1.678-.956a3.715,3.715,0,0,1,1.667-2.888Z" transform="translate(-12.589 -20.182)" fill="#b28afd"/>
          </g>
        </g>
        <g id="Grupo_1214676" data-name="Grupo 1214676" transform="translate(9.916 14.275)">
          <g id="Grupo_1214675" data-name="Grupo 1214675">
            <path id="Trazado_1283398" data-name="Trazado 1283398" d="M14.081,20.83c.614-.354,1.119-.066,1.121.628a2.449,2.449,0,0,1-1.114,1.919c-.6.349-1.11.072-1.112-.634a2.462,2.462,0,0,1,1.1-1.914Z" transform="translate(-12.977 -20.678)" fill="#fff"/>
          </g>
        </g>
        <g id="Grupo_1214678" data-name="Grupo 1214678" transform="translate(16.447 9.833)">
          <g id="Grupo_1214677" data-name="Grupo 1214677">
            <path id="Trazado_1283399" data-name="Trazado 1283399" d="M19.115,17.866c.926-.535,1.689-.1,1.692.948a3.7,3.7,0,0,1-1.681,2.9c-.912.527-1.675.108-1.678-.956a3.715,3.715,0,0,1,1.667-2.888Z" transform="translate(-17.448 -17.637)" fill="#f45170"/>
          </g>
        </g>
        <g id="Grupo_1214680" data-name="Grupo 1214680" transform="translate(17.014 10.558)">
          <g id="Grupo_1214679" data-name="Grupo 1214679">
            <path id="Trazado_1283400" data-name="Trazado 1283400" d="M18.94,18.285c.614-.354,1.119-.066,1.121.628a2.449,2.449,0,0,1-1.114,1.919c-.6.349-1.11.072-1.112-.634a2.462,2.462,0,0,1,1.1-1.914Z" transform="translate(-17.835 -18.133)" fill="#fff"/>
          </g>
        </g>
      </g>
    </g>
  </g>
</svg>
