<svg id="Grupo_1220172" data-name="Grupo 1220172" xmlns="http://www.w3.org/2000/svg" xmlns:xlink="http://www.w3.org/1999/xlink" width="60.469" height="60.378" viewBox="0 0 60.469 60.378">
  <defs>
    <clipPath id="clip-path">
      <rect id="Rectángulo_430844" data-name="Rectángulo 430844" width="60.469" height="60.378" fill="#f4b400"/>
    </clipPath>
  </defs>
  <g id="Grupo_1220171" data-name="Grupo 1220171" clip-path="url(#clip-path)">
    <path id="Trazado_1289854" data-name="Trazado 1289854" d="M25.3,98.074c-.9-.249-2.358-1.432-2.358-2.417V77.793c-2.386.5-4.839-.03-5.074-2.824-1.77.191-4.336-.515-5.83.584-1.222.9-1.357,2.48-1.18,3.892a17.517,17.517,0,0,0,1.923,1.379c.876.338,2.957.213,3.508.854.481.56.424,2.518.7,3.312.29.847,1.695,1.971,1.868,2.849.18.911-1.578,2.332-1.87,3.155-.3.855-.166,2.966-.872,3.491-.649.482-2.524.38-3.392.735-.8.327-1.939,1.738-2.806,1.8-.963.069-2.134-1.476-3.014-1.825-.81-.321-3.063-.252-3.532-.83-.442-.545-.4-2.658-.76-3.484C2.282,90.131.774,88.758.774,87.992c0-.726,1.564-2.149,1.868-2.972.294-.793.317-2.926.769-3.417s2.7-.483,3.5-.8c.644-.26,1.2-.992,1.862-1.261-.078-2.23.294-4.38,2.224-5.735a7.635,7.635,0,0,1,1.985-.845h4.892V64.646a1.886,1.886,0,0,1,.476-.585.966.966,0,0,1,1.521.591c.218,3.246-.265,6.814,0,10.021.044.524.171,1.127.778,1.226.988.161,2.236.137,2.292-1.113l.025-12.237c.252-1.123,1.979-.7,1.979.211v10.2h8.429a2.965,2.965,0,0,1,.463.481,1.056,1.056,0,0,1-.817,1.524H24.947V91H29.9V79.031a3.138,3.138,0,0,1,.387-.85,1.09,1.09,0,0,1,1.735.85V91h4.951V62.759a2.17,2.17,0,0,1,.648-.884H42.04V58.514a2.494,2.494,0,0,0-1.709-1.71H34.967v2.3l-2.886,3.009c-.364,1.145.68,4.8-1.184,4.726-1.687-.065-.707-3.653-1.061-4.726L26.951,59.1V56.8h-3.36c-.351,0-.691-.737-.658-1.121.03-.346.454-.884.776-.884h2.3c-4.2-4.129-1.617-11.59,4.3-12.032A7.056,7.056,0,0,1,35.91,54.8h4.539c1.42,0,3,1.542,3.4,2.853a22.1,22.1,0,0,1,.194,5.335c-.057.362-.53.891-.877.891H38.975V75.022c0,.967,1.519.972,2.186.89a1,1,0,0,0,.883-1c.136-1.214-.121-2.669-.009-3.9.136-1.483,1.881-1.484,2.015,0a18.207,18.207,0,0,1-.271,5.164c-.837,1.952-3,1.93-4.8,1.622V95.656c0,.985-1.458,2.169-2.358,2.417H32.374l-1.468-.714-1.362.714Zm4.922-53.266c-6.713.86-4.927,11.667,2.125,9.79,5.772-1.537,4.216-10.6-2.125-9.79m2.74,12H28.955c.068.465-.125,1.239.061,1.649A14.78,14.78,0,0,0,31,60.333c.348-.475,1.7-1.448,1.9-1.88.186-.409-.007-1.184.061-1.649M14.671,83.238c-.081-.125-2.138-.329-2.541-.466A14.815,14.815,0,0,1,9.9,81.225c-.228-.04-1.767,1.318-2.247,1.5s-2.447.349-2.6.525c-.274.77-.206,1.785-.472,2.534a26.614,26.614,0,0,1-1.522,2.213c-.013.228,1.256,1.654,1.437,2.061a17.416,17.416,0,0,1,.535,2.825,7.148,7.148,0,0,1,4.787,1.874c.255.023,1.67-1.211,2.1-1.4a15.861,15.861,0,0,1,2.665-.518c.171-.12.37-2.251.575-2.727.213-.5,1.428-1.771,1.417-2.116-.294-.744-1.193-1.472-1.467-2.182a22.812,22.812,0,0,1-.434-2.572M29.9,93H24.947v2.417c0,.363.79.625,1.114.655a18.61,18.61,0,0,0,2.946-.014c.261-.04.892-.368.892-.641Zm7.073,0H32.02v2.417c0,.273.63.6.892.641a18.61,18.61,0,0,0,2.946.014c.324-.03,1.114-.292,1.114-.655Z" transform="translate(-0.683 -37.695)" fill="#f4b400"/>
    <path id="Trazado_1289855" data-name="Trazado 1289855" d="M361.424,11.092a12.918,12.918,0,0,1-.7,2.656,9.992,9.992,0,0,1-8.372,6.307c-.219,3.215.975,7.311-2.276,9.337-1.516.945-4.978,1-6.745.805a1.006,1.006,0,1,1,0-2.011c2.328-.259,6.608.958,7.017-2.65.193-1.7-.143-3.743,0-5.482a10.058,10.058,0,1,1,5.5-19.006c.874.433,4.482,2.741,2.835,3.82-1.022.669-1.908-.84-2.76-1.419a8.072,8.072,0,1,0,2.3,10.864c1.065-1.732.9-2.609,1.206-4.454a1.043,1.043,0,0,1,2-.065c-.03.42.042.885,0,1.3" transform="translate(-300.969 0)" fill="#f4b400"/>
    <path id="Trazado_1289856" data-name="Trazado 1289856" d="M375.162,325.32a3.229,3.229,0,0,1-2.534,2.359c-4.148-.307-8.889.41-12.966,0-1.719-.174-2.54-1.657-2.658-3.237a65.477,65.477,0,0,1,.02-8.715,3.013,3.013,0,0,1,2.854-3.041l.18-.174c.166-1.566-.166-3.408.013-4.939a.994.994,0,0,1,1.594-.763l6.189,6.19a.979.979,0,0,1-1.247,1.483l-4.529-4.371v3.832c0,1.117-3.161.081-3.034,1.8.146,2.774-.3,5.967-.03,8.693a1.269,1.269,0,0,0,.767,1.237l12.383.011a.988.988,0,0,0,1-1.008c.314-2.811-.234-6.2-.011-9.074-.2-1.329-1.752-.672-1.973-1.685a.989.989,0,0,1,1.054-1.261,3.134,3.134,0,0,1,2.931,2.408Z" transform="translate(-314.707 -270.366)" fill="#f4b400"/>
    <path id="Trazado_1289857" data-name="Trazado 1289857" d="M4.813,5.384A3.034,3.034,0,0,1,8.09.514c1.038.327,1.449,1.125,2.087,1.92a4.121,4.121,0,0,1,2-1.89A2.987,2.987,0,0,1,16.1,4.231c-.131.429-.439.739-.556,1.153h3.831a2.341,2.341,0,0,1,.635.426,2.164,2.164,0,0,1,.254,1.043c.366,4.987-.284,10.418,0,15.452.041.434-.463,1.238-.885,1.238H6.11v4.186a4.776,4.776,0,0,0,.538,1.466c1.4,2.058,4.38,1.068,6.476,1.3a1.006,1.006,0,0,1,.121,2.007A22.529,22.529,0,0,1,7.786,32.3a5.19,5.19,0,0,1-3.68-4.455v-4.3H.982a1.275,1.275,0,0,1-.859-.791,20.475,20.475,0,0,1,0-3.485c.262-1.3,1.977-.767,1.977-.145v2.417H7.171V9.393c-.927.547-2.054,3.222-3.212,3.044C1.572,11.357,5.52,8.791,5.992,7.388H2.1V13.7a1.041,1.041,0,0,1-2-.243c-.323-2.112.22-4.983,0-7.178a1.22,1.22,0,0,1,.877-.891Zm4.362,0c-.2-.939-1.453-4.017-2.792-2.791C4.994,3.863,8.216,5.323,9.175,5.383m4.8-1.333A1.019,1.019,0,0,0,12.86,2.407c-.737.319-1.556,2.182-1.68,2.976.232.215,2.508-1,2.791-1.333M11.179,7.388h-2V21.538h2Zm2,14.149h4.892l.177-.177V7.565l-.177-.177H14.362c.02.256.27.488.425.7.48.644,2.342,2.654,2.4,3.266a1.071,1.071,0,0,1-1.108,1.108c-.874-.091-2.107-2.556-2.9-3.065Z" transform="translate(0 -0.306)" fill="#f4b400"/>
    <path id="Trazado_1289858" data-name="Trazado 1289858" d="M403.158,30.211a1.053,1.053,0,0,0,.012,1.387c.386.428,1.323.324,1.919.557a3,3,0,0,1-.181,5.584c-.041.756.217,2.164-.9,2.232-1.211.074-1.161-1.393-1.139-2.232-1.26-.2-2.859-2.919-1.44-3.658,1.561-.813,1.261,1.43,2.079,1.781a1.006,1.006,0,0,0,1.107-1.637c-.369-.37-1.018-.262-1.543-.4-2.768-.742-2.933-4.828-.2-5.665.009-.923-.184-2.317,1.131-2.235,1.366.084.637,1.633.944,2.132a12.079,12.079,0,0,1,1.237.885c.716.829,1.278,2.988-.292,2.987-1.21,0-.757-1.479-1.428-1.856a1.122,1.122,0,0,0-1.3.141" transform="translate(-353.51 -22.856)" fill="#f4b400"/>
    <path id="Trazado_1289859" data-name="Trazado 1289859" d="M393.653,433.5a38.741,38.741,0,0,1,6.091-.018,1.014,1.014,0,0,1,.244,1.991l-6.474,0a.994.994,0,0,1,.139-1.969" transform="translate(-346.313 -382.168)" fill="#f4b400"/>
    <path id="Trazado_1289860" data-name="Trazado 1289860" d="M393.575,400.073a7.868,7.868,0,0,1,2.659.116,1,1,0,0,1-.335,1.854,10.864,10.864,0,0,1-2.616-.082,1.018,1.018,0,0,1,.292-1.889" transform="translate(-346.355 -352.756)" fill="#f4b400"/>
    <path id="Trazado_1289861" data-name="Trazado 1289861" d="M443.96,400.289c.412-.377,2.362-.353,2.918-.223a.99.99,0,0,1,.026,1.929,13.521,13.521,0,0,1-2.445.019,1.032,1.032,0,0,1-.5-1.725" transform="translate(-391.248 -352.725)" fill="#f4b400"/>
    <path id="Trazado_1289862" data-name="Trazado 1289862" d="M58.03,400.827a1.1,1.1,0,0,1-.023,1.5c-1.013,1.368-2.961,2.7-4.075,4.06-1.052.661-2.132-.437-1.235-1.589a45.4,45.4,0,0,1,4.01-4.006,1.119,1.119,0,0,1,1.323.035" transform="translate(-46.177 -353.266)" fill="#f4b400"/>
    <path id="Trazado_1289863" data-name="Trazado 1289863" d="M53.634,400.619c.969.887-.511,2.48-1.443,1.385a1,1,0,0,1,1.443-1.385" transform="translate(-45.792 -353.055)" fill="#f4b400"/>
    <path id="Trazado_1289864" data-name="Trazado 1289864" d="M87.762,434.675c1.019.859-.616,2.617-1.5,1.321a1.009,1.009,0,0,1,1.5-1.321" transform="translate(-75.909 -383.105)" fill="#f4b400"/>
  </g>
</svg>
