<svg xmlns="http://www.w3.org/2000/svg" width="45.59" height="57.301" viewBox="0 0 45.59 57.301">
  <g id="Grupo_1220176" data-name="Grupo 1220176" transform="translate(-886.857 -3638.572)">
    <path id="Trazado_1289876" data-name="Trazado 1289876" d="M379.967,244.823l1.841-10.769a1.1,1.1,0,0,0-1.668-1.122l-10.46,6.5c-27.659,6.092-23.112,38.48-23.063,38.808a1.1,1.1,0,0,0,1.09.937h30.528a1.1,1.1,0,0,0,1.1-1.132c-.12-4.418-2.66-8.347-4.786-10.878a83.418,83.418,0,0,0,10.862,2.245c4.282.382,6.091-3.7,6.446-5.9a1.094,1.094,0,0,0-.166-.778Zm5.636,22.4c-4.247-.37-14.241-3.188-14.342-3.216a1.1,1.1,0,0,0-1.007,1.9c.062.055,5.949,5.069,6.784,11.07H348.679c-.561-5.286-1.935-30.365,21.651-35.431a1.1,1.1,0,0,0,.351-.141l8.542-5.31-1.5,8.783a1.105,1.105,0,0,0,.163.789L389.6,263.563c-.27,1.072-1.255,3.893-4,3.66" transform="translate(540.575 3405.806)" fill="#b0c0d2"/>
    <path id="Trazado_1289877" data-name="Trazado 1289877" d="M372.248,251.793h-.023a2.214,2.214,0,1,0,.023,0" transform="translate(541.778 3406.771)" fill="#b0c0d2"/>
    <path id="Trazado_1289878" data-name="Trazado 1289878" d="M379.25,278.982H347.384a1.1,1.1,0,0,0-1.1,1.1v6.539a1.1,1.1,0,0,0,1.1,1.1H379.25a1.1,1.1,0,0,0,1.1-1.1v-6.539a1.1,1.1,0,0,0-1.1-1.1m-1.1,6.539H348.485v-4.336h29.664Z" transform="translate(540.574 3408.149)" fill="#b0c0d2"/>
  </g>
</svg>
