<svg xmlns="http://www.w3.org/2000/svg" xmlns:xlink="http://www.w3.org/1999/xlink" width="108.914" height="108.914" viewBox="0 0 108.914 108.914">
  <defs>
    <filter id="Trazado_874925" x="0" y="0" width="108.914" height="108.914" filterUnits="userSpaceOnUse">
      <feOffset dy="3" input="SourceAlpha"/>
      <feGaussianBlur stdDeviation="3" result="blur"/>
      <feFlood flood-opacity="0.161"/>
      <feComposite operator="in" in2="blur"/>
      <feComposite in="SourceGraphic"/>
    </filter>
  </defs>
  <g id="Grupo_1221374" data-name="Grupo 1221374" transform="translate(-851.294 -752.086)">
    <g transform="matrix(1, 0, 0, 1, 851.29, 752.09)" filter="url(#Trazado_874925)">
      <g id="Trazado_874925-2" data-name="Trazado 874925" transform="translate(9 6)" fill="#d7d9de" opacity="0.859">
        <path d="M 45.45676803588867 89.41407012939453 C 39.52198028564453 89.41407012939453 33.76551818847656 88.25206756591797 28.34726715087891 85.96034240722656 C 23.11311721801758 83.74648284912109 18.41204261779785 80.57682800292969 14.37464332580566 76.5394287109375 C 10.33724308013916 72.50202941894531 7.167593002319336 67.80095672607422 4.953730583190918 62.56679534912109 C 2.662005424499512 57.14855575561523 1.500005483627319 51.39208221435547 1.500005483627319 45.45729446411133 C 1.500005483627319 39.52198028564453 2.662005424499512 33.76551818847656 4.953730583190918 28.34726905822754 C 7.167593002319336 23.11310577392578 10.33724308013916 18.41203117370605 14.37464332580566 14.37464332580566 C 18.41204261779785 10.33724403381348 23.11311721801758 7.167593955993652 28.34726715087891 4.953731060028076 C 33.76551818847656 2.662006139755249 39.52198028564453 1.500006198883057 45.45676803588867 1.500006198883057 C 51.39155578613281 1.500006198883057 57.14802932739258 2.662006139755249 62.56626892089844 4.953731060028076 C 67.80043029785156 7.167593955993652 72.50150299072266 10.33724403381348 76.53890228271484 14.37464332580566 C 80.57630920410156 18.41203117370605 83.74595642089844 23.11310577392578 85.95981597900391 28.34726905822754 C 88.25154113769531 33.76551818847656 89.41354370117188 39.52198028564453 89.41354370117188 45.45676803588867 C 89.41354370117188 51.39208221435547 88.25154113769531 57.14855575561523 85.95981597900391 62.56679534912109 C 83.74595642089844 67.80095672607422 80.57630920410156 72.50202941894531 76.53890228271484 76.5394287109375 C 72.50150299072266 80.57682800292969 67.80043029785156 83.74648284912109 62.56626892089844 85.96034240722656 C 57.14802932739258 88.25206756591797 51.39155578613281 89.41407012939453 45.45676803588867 89.41407012939453 Z" stroke="none"/>
        <path d="M 45.45676803588867 3 C 39.72381210327148 3 34.1639404296875 4.12213134765625 28.93159484863281 6.335227966308594 C 23.87622833251953 8.473472595214844 19.33542633056641 11.53517150878906 15.43529510498047 15.435302734375 C 11.53517150878906 19.33543395996094 8.473464965820312 23.87622833251953 6.335227966308594 28.93160247802734 C 4.122123718261719 34.16394424438477 3 39.72381591796875 3 45.4572868347168 C 3 51.19024658203125 4.122123718261719 56.75011825561523 6.335227966308594 61.98246002197266 C 8.473464965820312 67.03782653808594 11.53517150878906 71.57862854003906 15.43529510498047 75.478759765625 C 19.33542633056641 79.37889099121094 23.87622833251953 82.44058990478516 28.93159484863281 84.57883453369141 C 34.1639404296875 86.79193115234375 39.72381210327148 87.9140625 45.45676803588867 87.9140625 C 51.18972396850586 87.9140625 56.74959564208984 86.79193115234375 61.98194122314453 84.57883453369141 C 67.03730773925781 82.44058990478516 71.57810974121094 79.37889099121094 75.47824096679688 75.478759765625 C 79.37837219238281 71.57862854003906 82.44007110595703 67.03782653808594 84.57830810546875 61.98246002197266 C 86.79141235351562 56.75011825561523 87.91353607177734 51.19024658203125 87.91353607177734 45.4567756652832 C 87.91353607177734 39.72381591796875 86.79141235351562 34.16394424438477 84.57830810546875 28.93160247802734 C 82.44007110595703 23.87622833251953 79.37837219238281 19.33543395996094 75.47824096679688 15.435302734375 C 71.57810974121094 11.53517150878906 67.03730773925781 8.473472595214844 61.98194122314453 6.335227966308594 C 56.74959564208984 4.12213134765625 51.18972396850586 3 45.45676803588867 3 M 45.45676803588867 0 C 70.56185150146484 0 90.91353607177734 20.35169219970703 90.91353607177734 45.4567756652832 L 90.91353607177734 45.4572868347168 C 90.91353607177734 70.5623779296875 70.56185150146484 90.9140625 45.45676803588867 90.9140625 C 20.3516845703125 90.9140625 0 70.5623779296875 0 45.4572868347168 L 0 45.4567756652832 C 0 20.35169219970703 20.3516845703125 0 45.45676803588867 0 Z" stroke="none" fill="#fff"/>
      </g>
    </g>
    <g id="Grupo_1214733" data-name="Grupo 1214733" transform="translate(872.076 769.314)">
      <g id="Grupo_1214702" data-name="Grupo 1214702">
        <g id="Grupo_1214701" data-name="Grupo 1214701">
          <g id="Grupo_1214700" data-name="Grupo 1214700">
            <g id="Grupo_1214699" data-name="Grupo 1214699">
              <path id="Trazado_1283401" data-name="Trazado 1283401" d="M43.746,47.713a6.167,6.167,0,0,1-2.784,4.83L18.375,65.613a1.815,1.815,0,0,1-2.225.01,1.352,1.352,0,0,0,.229.19l-4.29-2.5a1.967,1.967,0,0,1-.808-1.8l-.03-10.23-.1-30.99a5.819,5.819,0,0,1,.968-2.98,5.517,5.517,0,0,1,1.826-1.86L32.2,4.893l4.33-2.51a1.949,1.949,0,0,1,1.985-.19l4.29,2.5v-.01a1.972,1.972,0,0,1,.818,1.8Z" fill="#f0f0f7"/>
              <g id="Grupo_1214682" data-name="Grupo 1214682">
                <path id="Trazado_1283402" data-name="Trazado 1283402" d="M40.825,4.886c1.544-.894,2.8-.178,2.8,1.6l.117,41.224a6.146,6.146,0,0,1-2.784,4.833L18.37,65.615c-1.544.894-2.8.178-2.8-1.6l-.117-41.224a6.146,6.146,0,0,1,2.784-4.833Z" fill="#f0f0f7"/>
              </g>
              <g id="Grupo_1214684" data-name="Grupo 1214684">
                <g id="Grupo_1214683" data-name="Grupo 1214683">
                  <path id="Trazado_1283403" data-name="Trazado 1283403" d="M40.544,47,19.091,59.419a.336.336,0,0,1-.5-.291l-.1-37.8a.337.337,0,0,1,.168-.293l8.956-5.183a.648.648,0,0,0-.007.113c0,1.115.786,1.562,1.752,1A3.83,3.83,0,0,0,31.1,13.944a.554.554,0,0,0-.007-.107L40.1,8.621a.336.336,0,0,1,.5.291l.1,37.8a.337.337,0,0,1-.168.293Z" fill="#3293fc"/>
                </g>
              </g>
              <g id="Grupo_1214685" data-name="Grupo 1214685">
                <path id="Trazado_1283404" data-name="Trazado 1283404" d="M11.277,61.514a1.955,1.955,0,0,0,.81,1.8l4.3,2.5a1.982,1.982,0,0,1-.816-1.8l-.029-10.235-4.291-2.495Z" fill="#1d1e1e"/>
                <path id="Trazado_1283405" data-name="Trazado 1283405" d="M40.825,4.884a1.979,1.979,0,0,1,1.986-.2l-4.3-2.5a1.95,1.95,0,0,0-1.986.2l-4.325,2.5,4.3,2.5Z" fill="#1d1e1e"/>
              </g>
              <g id="Grupo_1214686" data-name="Grupo 1214686">
                <path id="Trazado_1283406" data-name="Trazado 1283406" d="M27,57.343a.7.7,0,0,1,.3.65,2.191,2.191,0,0,1-.988,1.73.7.7,0,0,1-.719.06l-.429-.25a.666.666,0,0,1-.289-.63,2.073,2.073,0,0,1,.339-1.06,1.841,1.841,0,0,1,.659-.67.715.715,0,0,1,.708-.07Z" fill="#3c4043"/>
                <path id="Trazado_1283407" data-name="Trazado 1283407" d="M31.265,54.883a.719.719,0,0,1,.3.65,2.228,2.228,0,0,1-1,1.73.7.7,0,0,1-.718.06l-.419-.25a.663.663,0,0,1-.3-.63,2.045,2.045,0,0,1,.339-1.06,2.011,2.011,0,0,1,.658-.67.708.708,0,0,1,.719-.07Z" fill="#3c4043"/>
                <path id="Trazado_1283408" data-name="Trazado 1283408" d="M35.815,53.073a2.2,2.2,0,0,1-1,1.73.619.619,0,0,1-.778-.01.23.23,0,0,0,.07.07l-.429-.25a.684.684,0,0,1-.289-.64,2.041,2.041,0,0,1,.339-1.05,1.955,1.955,0,0,1,.658-.68.71.71,0,0,1,.708-.06l.419.24a.7.7,0,0,1,.3.65Z" fill="#3c4043"/>
              </g>
              <g id="Grupo_1214696" data-name="Grupo 1214696">
                <g id="Grupo_1214689" data-name="Grupo 1214689">
                  <g id="Grupo_1214687" data-name="Grupo 1214687">
                    <path id="Trazado_1283409" data-name="Trazado 1283409" d="M34.816,52.5a.706.706,0,0,1,.709-.066l-.427-.25a.717.717,0,0,0-.715.066,2.021,2.021,0,0,0-.659.677l.429.252A1.994,1.994,0,0,1,34.816,52.5Z" fill="#303335"/>
                    <path id="Trazado_1283410" data-name="Trazado 1283410" d="M33.819,54.227a2.08,2.08,0,0,1,.335-1.051l-.429-.252a2.08,2.08,0,0,0-.339,1.053.678.678,0,0,0,.3.638l.427.25A.688.688,0,0,1,33.819,54.227Z" fill="#1d1e1e"/>
                  </g>
                  <g id="Grupo_1214688" data-name="Grupo 1214688">
                    <path id="Trazado_1283411" data-name="Trazado 1283411" d="M34.814,52.5c.552-.32,1-.063,1,.568a2.2,2.2,0,0,1-1,1.73c-.552.32-1,.063-1-.573a2.2,2.2,0,0,1,1-1.725Z" fill="#3c4043"/>
                  </g>
                </g>
                <g id="Grupo_1214692" data-name="Grupo 1214692">
                  <g id="Grupo_1214690" data-name="Grupo 1214690">
                    <path id="Trazado_1283412" data-name="Trazado 1283412" d="M30.562,54.959a.706.706,0,0,1,.709-.066l-.427-.25a.717.717,0,0,0-.715.066,2.021,2.021,0,0,0-.659.677l.429.252A1.994,1.994,0,0,1,30.562,54.959Z" fill="#303335"/>
                    <path id="Trazado_1283413" data-name="Trazado 1283413" d="M29.565,56.688a2.08,2.08,0,0,1,.335-1.051l-.429-.252a2.08,2.08,0,0,0-.339,1.053.678.678,0,0,0,.3.638l.427.25A.688.688,0,0,1,29.565,56.688Z" fill="#1d1e1e"/>
                  </g>
                  <g id="Grupo_1214691" data-name="Grupo 1214691">
                    <path id="Trazado_1283414" data-name="Trazado 1283414" d="M30.56,54.961c.552-.32,1-.063,1,.568a2.2,2.2,0,0,1-1,1.73c-.552.32-1,.063-1-.573a2.2,2.2,0,0,1,1-1.725Z" fill="#3c4043"/>
                  </g>
                </g>
                <g id="Grupo_1214695" data-name="Grupo 1214695">
                  <g id="Grupo_1214693" data-name="Grupo 1214693">
                    <path id="Trazado_1283415" data-name="Trazado 1283415" d="M26.308,57.419a.706.706,0,0,1,.709-.066l-.427-.25a.717.717,0,0,0-.715.066,2.021,2.021,0,0,0-.659.677l.429.252A1.994,1.994,0,0,1,26.308,57.419Z" fill="#303335"/>
                    <path id="Trazado_1283416" data-name="Trazado 1283416" d="M25.31,59.149a2.08,2.08,0,0,1,.335-1.051l-.429-.252a2.08,2.08,0,0,0-.339,1.053.678.678,0,0,0,.3.638l.427.25A.688.688,0,0,1,25.31,59.149Z" fill="#1d1e1e"/>
                  </g>
                  <g id="Grupo_1214694" data-name="Grupo 1214694">
                    <path id="Trazado_1283417" data-name="Trazado 1283417" d="M26.305,57.422c.552-.32,1-.063,1,.568a2.2,2.2,0,0,1-1,1.73c-.552.32-1,.063-1-.573a2.2,2.2,0,0,1,1-1.725Z" fill="#3c4043"/>
                  </g>
                </g>
              </g>
              <g id="Grupo_1214697" data-name="Grupo 1214697">
                <path id="Trazado_1283418" data-name="Trazado 1283418" d="M12.12,17.311a5.834,5.834,0,0,0-.965,2.98l.092,30.992,4.291,2.495L15.45,22.788a5.784,5.784,0,0,1,.964-2.98Z" fill="#252728"/>
                <path id="Trazado_1283419" data-name="Trazado 1283419" d="M18.235,17.958,36.5,7.386l-4.3-2.5L13.94,15.454a5.59,5.59,0,0,0-1.819,1.856l4.294,2.5a5.565,5.565,0,0,1,1.82-1.85Z" fill="#303335"/>
              </g>
              <g id="Grupo_1214698" data-name="Grupo 1214698" opacity="0.15">
                <path id="Trazado_1283420" data-name="Trazado 1283420" d="M32.981,12.742,18.575,54.417l-.013-5.908L29.491,16.881A3.867,3.867,0,0,0,31.1,13.944a.554.554,0,0,0-.007-.107Z" fill="#fff"/>
                <path id="Trazado_1283421" data-name="Trazado 1283421" d="M40.653,25.652l-9.2,26.615L21.119,58.242l16.69-48.29,2.3-1.328a.33.33,0,0,1,.5.287Z" fill="#fff"/>
              </g>
            </g>
          </g>
        </g>
      </g>
      <g id="Grupo_1214732" data-name="Grupo 1214732">
        <g id="Grupo_1214704" data-name="Grupo 1214704">
          <g id="Grupo_1214703" data-name="Grupo 1214703">
            <path id="Trazado_1283422" data-name="Trazado 1283422" d="M49.245,40.606a.949.949,0,0,1-.169-.015L29.927,37.146a.95.95,0,0,1-.593-1.5L48.4,10.134a.95.95,0,0,1,1.521,1.138L31.777,35.549l17.635,3.172a.95.95,0,0,1-.167,1.885Z" fill="#3c4043"/>
          </g>
        </g>
        <g id="Grupo_1214713" data-name="Grupo 1214713">
          <path id="Trazado_1283423" data-name="Trazado 1283423" d="M38.746,30.268A17.077,17.077,0,0,1,31,43.69c-2.167,1.251-4.129,1.363-5.544.534l.012.008-1.752-1.018c-1.4-.811-2.261-2.536-2.268-4.988a13.52,13.52,0,0,1,.725-4.217,18.1,18.1,0,0,1,5.355-8.031,12.144,12.144,0,0,1,1.67-1.174c2.16-1.248,4.118-1.363,5.532-.542l1.733,1.007c1.407.807,2.28,2.536,2.287,5Z" fill="#ffc239"/>
          <g id="Grupo_1214705" data-name="Grupo 1214705">
            <path id="Trazado_1283424" data-name="Trazado 1283424" d="M30.946,25.822c4.294-2.479,7.786-.489,7.8,4.445A17.08,17.08,0,0,1,31,43.69c-4.294,2.479-7.786.488-7.8-4.446a17.08,17.08,0,0,1,7.749-13.423Z" fill="#ffc239"/>
          </g>
          <g id="Grupo_1214706" data-name="Grupo 1214706">
            <path id="Trazado_1283425" data-name="Trazado 1283425" d="M30.945,25.822c2.161-1.248,4.119-1.364,5.533-.542l-1.752-1.018c-1.414-.821-3.371-.706-5.532.542a12.124,12.124,0,0,0-1.67,1.174L29.275,27a12.122,12.122,0,0,1,1.67-1.174Z" fill="#efa003"/>
            <path id="Trazado_1283426" data-name="Trazado 1283426" d="M29.275,27l-1.752-1.018a18.1,18.1,0,0,0-5.355,8.032l1.752,1.018A18.107,18.107,0,0,1,29.275,27Z" fill="#f9ac00"/>
            <path id="Trazado_1283427" data-name="Trazado 1283427" d="M22.169,34.01a13.542,13.542,0,0,0-.724,4.217c.007,2.452.873,4.177,2.268,4.988l1.752,1.018c-1.4-.812-2.261-2.536-2.268-4.988a13.543,13.543,0,0,1,.724-4.217Z" fill="#efa003"/>
          </g>
          <g id="Grupo_1214709" data-name="Grupo 1214709">
            <g id="Grupo_1214707" data-name="Grupo 1214707">
              <path id="Trazado_1283428" data-name="Trazado 1283428" d="M30.376,33.311c2.128-1.229,3.9-.5,4.288,1.606A1.437,1.437,0,0,1,34,36.225L26.779,40.4c-.425.245-.744-.015-.667-.54a9.709,9.709,0,0,1,4.265-6.544Z" fill="#efa003"/>
            </g>
            <g id="Grupo_1214708" data-name="Grupo 1214708">
              <path id="Trazado_1283429" data-name="Trazado 1283429" d="M30.365,29.235c.847-.489,1.536-.1,1.538.877a3.369,3.369,0,0,1-1.528,2.647c-.847.489-1.535.1-1.538-.877a3.368,3.368,0,0,1,1.528-2.647Z" fill="#efa003"/>
            </g>
          </g>
          <g id="Grupo_1214712" data-name="Grupo 1214712">
            <g id="Grupo_1214710" data-name="Grupo 1214710">
              <path id="Trazado_1283430" data-name="Trazado 1283430" d="M30.977,33.311c2.128-1.229,3.9-.5,4.288,1.606a1.437,1.437,0,0,1-.662,1.307L27.379,40.4c-.425.245-.744-.015-.667-.54a9.709,9.709,0,0,1,4.265-6.544Z" fill="#fff"/>
            </g>
            <g id="Grupo_1214711" data-name="Grupo 1214711">
              <path id="Trazado_1283431" data-name="Trazado 1283431" d="M30.965,29.235c.847-.489,1.536-.1,1.538.877a3.369,3.369,0,0,1-1.528,2.647c-.847.489-1.535.1-1.538-.877a3.368,3.368,0,0,1,1.528-2.647Z" fill="#fff"/>
            </g>
          </g>
        </g>
        <g id="Grupo_1214722" data-name="Grupo 1214722">
          <path id="Trazado_1283432" data-name="Trazado 1283432" d="M55.926,10.056a17.077,17.077,0,0,1-7.75,13.422c-2.167,1.251-4.129,1.363-5.544.534l.012.008L40.892,23c-1.4-.811-2.261-2.536-2.268-4.988a13.52,13.52,0,0,1,.725-4.217A18.1,18.1,0,0,1,44.7,5.767a12.144,12.144,0,0,1,1.67-1.174c2.16-1.248,4.118-1.363,5.532-.542l1.733,1.007c1.407.807,2.28,2.536,2.287,5Z" fill="#34a853"/>
          <g id="Grupo_1214714" data-name="Grupo 1214714">
            <path id="Trazado_1283433" data-name="Trazado 1283433" d="M48.125,5.611c4.294-2.479,7.786-.489,7.8,4.445a17.08,17.08,0,0,1-7.75,13.423c-4.294,2.479-7.786.488-7.8-4.446A17.08,17.08,0,0,1,48.125,5.611Z" fill="#34a853"/>
          </g>
          <g id="Grupo_1214715" data-name="Grupo 1214715">
            <path id="Trazado_1283434" data-name="Trazado 1283434" d="M48.125,5.611c2.161-1.248,4.119-1.364,5.533-.542L51.906,4.05c-1.414-.821-3.371-.706-5.532.542A12.124,12.124,0,0,0,44.7,5.766l1.752,1.018A12.123,12.123,0,0,1,48.125,5.611Z" fill="#238230"/>
            <path id="Trazado_1283435" data-name="Trazado 1283435" d="M46.455,6.784,44.7,5.766A18.1,18.1,0,0,0,39.348,13.8L41.1,14.816a18.107,18.107,0,0,1,5.355-8.032Z" fill="#2f9b48"/>
            <path id="Trazado_1283436" data-name="Trazado 1283436" d="M39.348,13.8a13.542,13.542,0,0,0-.724,4.217c.007,2.452.873,4.177,2.268,4.988l1.752,1.018c-1.4-.812-2.261-2.536-2.268-4.988a13.543,13.543,0,0,1,.724-4.217Z" fill="#238230"/>
          </g>
          <g id="Grupo_1214718" data-name="Grupo 1214718">
            <g id="Grupo_1214716" data-name="Grupo 1214716">
              <path id="Trazado_1283437" data-name="Trazado 1283437" d="M47.556,13.1c2.128-1.229,3.9-.5,4.288,1.606a1.437,1.437,0,0,1-.662,1.307l-7.224,4.171c-.425.245-.744-.015-.667-.54A9.709,9.709,0,0,1,47.556,13.1Z" fill="#238230"/>
            </g>
            <g id="Grupo_1214717" data-name="Grupo 1214717">
              <path id="Trazado_1283438" data-name="Trazado 1283438" d="M47.544,9.023c.847-.489,1.536-.1,1.538.877a3.369,3.369,0,0,1-1.528,2.647c-.847.489-1.535.1-1.538-.877a3.368,3.368,0,0,1,1.528-2.647Z" fill="#238230"/>
            </g>
          </g>
          <g id="Grupo_1214721" data-name="Grupo 1214721">
            <g id="Grupo_1214719" data-name="Grupo 1214719">
              <path id="Trazado_1283439" data-name="Trazado 1283439" d="M48.156,13.1c2.128-1.229,3.9-.5,4.288,1.606a1.437,1.437,0,0,1-.662,1.307l-7.224,4.171c-.425.245-.744-.015-.667-.54A9.709,9.709,0,0,1,48.156,13.1Z" fill="#fff"/>
            </g>
            <g id="Grupo_1214720" data-name="Grupo 1214720">
              <path id="Trazado_1283440" data-name="Trazado 1283440" d="M48.145,9.023c.847-.489,1.536-.1,1.538.877a3.369,3.369,0,0,1-1.528,2.647c-.847.489-1.535.1-1.538-.877a3.368,3.368,0,0,1,1.528-2.647Z" fill="#fff"/>
            </g>
          </g>
        </g>
        <g id="Grupo_1214731" data-name="Grupo 1214731">
          <path id="Trazado_1283441" data-name="Trazado 1283441" d="M56.849,35.149A17.077,17.077,0,0,1,49.1,48.571c-2.167,1.251-4.129,1.363-5.544.534l.012.008-1.752-1.018c-1.4-.811-2.261-2.536-2.268-4.988a13.52,13.52,0,0,1,.725-4.217,18.1,18.1,0,0,1,5.355-8.031,12.144,12.144,0,0,1,1.67-1.174c2.16-1.248,4.118-1.363,5.532-.542l1.733,1.007c1.407.807,2.28,2.536,2.287,5Z" fill="#eb4336"/>
          <g id="Grupo_1214723" data-name="Grupo 1214723">
            <path id="Trazado_1283442" data-name="Trazado 1283442" d="M49.049,30.7c4.294-2.479,7.786-.489,7.8,4.445A17.08,17.08,0,0,1,49.1,48.571c-4.294,2.479-7.786.488-7.8-4.446A17.08,17.08,0,0,1,49.049,30.7Z" fill="#eb4336"/>
          </g>
          <g id="Grupo_1214724" data-name="Grupo 1214724">
            <path id="Trazado_1283443" data-name="Trazado 1283443" d="M49.048,30.7c2.161-1.248,4.119-1.364,5.533-.542l-1.752-1.018c-1.414-.821-3.371-.706-5.532.542a12.123,12.123,0,0,0-1.67,1.174l1.752,1.018a12.123,12.123,0,0,1,1.67-1.174Z" fill="#d32626"/>
            <path id="Trazado_1283444" data-name="Trazado 1283444" d="M47.378,31.877l-1.752-1.018a18.1,18.1,0,0,0-5.355,8.032l1.752,1.018a18.107,18.107,0,0,1,5.355-8.032Z" fill="#e5372e"/>
            <path id="Trazado_1283445" data-name="Trazado 1283445" d="M40.272,38.89a13.542,13.542,0,0,0-.724,4.217c.007,2.452.873,4.177,2.268,4.988l1.752,1.018c-1.4-.812-2.261-2.536-2.268-4.988a13.543,13.543,0,0,1,.724-4.217Z" fill="#d32626"/>
          </g>
          <g id="Grupo_1214727" data-name="Grupo 1214727">
            <g id="Grupo_1214725" data-name="Grupo 1214725">
              <path id="Trazado_1283446" data-name="Trazado 1283446" d="M48.479,38.192c2.128-1.229,3.9-.5,4.288,1.606a1.437,1.437,0,0,1-.662,1.307l-7.224,4.171c-.425.245-.744-.015-.667-.54a9.709,9.709,0,0,1,4.265-6.544Z" fill="#d32626"/>
            </g>
            <g id="Grupo_1214726" data-name="Grupo 1214726">
              <path id="Trazado_1283447" data-name="Trazado 1283447" d="M48.468,34.115c.847-.489,1.536-.1,1.538.877a3.369,3.369,0,0,1-1.528,2.647c-.847.489-1.535.1-1.538-.877a3.368,3.368,0,0,1,1.528-2.647Z" fill="#d32626"/>
            </g>
          </g>
          <g id="Grupo_1214730" data-name="Grupo 1214730">
            <g id="Grupo_1214728" data-name="Grupo 1214728">
              <path id="Trazado_1283448" data-name="Trazado 1283448" d="M49.08,38.192c2.128-1.229,3.9-.5,4.288,1.606a1.437,1.437,0,0,1-.662,1.307l-7.224,4.171c-.425.245-.744-.015-.667-.54a9.709,9.709,0,0,1,4.265-6.544Z" fill="#fff"/>
            </g>
            <g id="Grupo_1214729" data-name="Grupo 1214729">
              <path id="Trazado_1283449" data-name="Trazado 1283449" d="M49.068,34.115c.847-.489,1.536-.1,1.538.877a3.369,3.369,0,0,1-1.528,2.647c-.847.489-1.535.1-1.538-.877a3.368,3.368,0,0,1,1.528-2.647Z" fill="#fff"/>
            </g>
          </g>
        </g>
      </g>
    </g>
  </g>
</svg>
