<svg xmlns="http://www.w3.org/2000/svg" width="127.514" height="148.599" viewBox="0 0 127.514 148.599">
  <g id="Grupo_1221189" data-name="Grupo 1221189" transform="translate(-6.146 -1.623)">
    <g id="Grupo_1220738" data-name="Grupo 1220738" transform="translate(6.146 1.623)">
      <g id="Grupo_1220717" data-name="Grupo 1220717">
        <g id="Grupo_1220687" data-name="Grupo 1220687" transform="translate(0 17.166)">
          <g id="Grupo_1220686" data-name="Grupo 1220686">
            <g id="Grupo_1220685" data-name="Grupo 1220685">
              <path id="Trazado_1291759" data-name="Trazado 1291759" d="M51.987,47.463,51.95,57.956,21.694,75.531l.037-10.456Z" transform="translate(14.545 42.215)" fill="#cfd2d3"/>
              <path id="Trazado_1291760" data-name="Trazado 1291760" d="M20.121,62.919,47.452,47.036l4.886,3.214L25.007,66.132Z" transform="translate(12.451 41.647)" fill="#eaf0f6"/>
              <path id="Trazado_1291761" data-name="Trazado 1291761" d="M26.569,72.327,56.842,54.734l-.015,7.213L26.555,79.54Z" transform="translate(21.014 51.892)" fill="#a2a4a5"/>
              <path id="Trazado_1291762" data-name="Trazado 1291762" d="M21.691,69.561,51.964,51.969l11.351,6.447L33.042,76.008Z" transform="translate(14.541 48.211)" fill="#b6b9ba"/>
              <path id="Trazado_1291763" data-name="Trazado 1291763" d="M25.451,57.43,25.421,67.9,36.772,74.35l-.015,7.213L18.888,70.9l.044-17.686Z" transform="translate(10.811 49.869)" fill="#909293"/>
              <path id="Trazado_1291764" data-name="Trazado 1291764" d="M67.042,66.785l-.029,7.239L36.764,91.591,18.891,80.95l.029-17.684L49.2,45.67l6.523,4.2-.029,10.475Z" transform="translate(10.815 39.829)" fill="none"/>
              <path id="Trazado_1291765" data-name="Trazado 1291765" d="M99.48,14.432a3.661,3.661,0,0,0-3.45.374L19.683,58.881A10.331,10.331,0,0,0,15,66.949l.167,55.668v5.323a3.288,3.288,0,0,0,1.372,2.979l-1.372-.8-7.478-4.257a3.344,3.344,0,0,1-1.372-3.046l-.034-5.289-.134-55.7A10.439,10.439,0,0,1,10.8,53.754L87.256,9.634A3.3,3.3,0,0,1,90.57,9.3Z" transform="translate(-6.146 -8.988)" fill="#494948"/>
              <path id="Trazado_1291766" data-name="Trazado 1291766" d="M64.983,22.124l-45.3,26.157A10.332,10.332,0,0,0,15,56.35l.169,55.666v5.323a3.283,3.283,0,0,0,1.37,2.981l-1.37-.8-7.481-4.256a3.35,3.35,0,0,1-1.37-3.048l-.036-5.287-.133-55.7A10.446,10.446,0,0,1,10.8,43.155l45.409-26.2Z" transform="translate(-6.146 1.611)" fill="#383736"/>
              <path id="Trazado_1291767" data-name="Trazado 1291767" d="M15,41.389l.169,55.666-8.887-5.1L6.146,36.264A10.446,10.446,0,0,1,10.8,28.194l8.882,5.126A10.332,10.332,0,0,0,15,41.389Z" transform="translate(-6.146 16.572)" fill="#2d2c2b"/>
              <path id="Trazado_1291768" data-name="Trazado 1291768" d="M95.823,70.162l-85.712,49.53L9.944,64.024a10.384,10.384,0,0,1,4.686-8.068l76.456-44.12c2.578-1.506,4.686-.3,4.686,2.644Z" transform="translate(-1.093 -6.063)" fill="#21201f"/>
              <path id="Trazado_1291769" data-name="Trazado 1291769" d="M11.3,61.3a7.44,7.44,0,0,1,3.167-5.409L87.928,13.5a2.042,2.042,0,0,1,3.064,1.767c.011,11.995.046,50.412.046,50.412l-79.59,45.993Z" transform="translate(0.708 -3.351)" fill="#fff"/>
              <path id="Trazado_1291770" data-name="Trazado 1291770" d="M16.461,68.953l-1.372-.8-7.48-4.264a2.662,2.662,0,0,1-.569-.5,3.591,3.591,0,0,1-.8-2.511L6.2,55.551l8.886,5.1v5.323a3.288,3.288,0,0,0,1.372,2.979Z" transform="translate(-6.07 52.978)" fill="#c4c2c0"/>
              <path id="Trazado_1291771" data-name="Trazado 1291771" d="M16.439,65.914l-1.362-.79-7.5-4.27a3.2,3.2,0,0,1-.572-.49,3.712,3.712,0,0,1-.79-2.534l8.858,5.114a3.232,3.232,0,0,0,1.362,2.97Z" transform="translate(-6.049 56.01)" fill="#b2b0af"/>
              <path id="Trazado_1291772" data-name="Trazado 1291772" d="M95.735,36.489l.015,5.31a10.271,10.271,0,0,1-4.662,8.075L14.732,93.958c-2.6,1.5-4.7.3-4.707-2.666l-.015-5.31Z" transform="translate(-1.004 27.61)" fill="#e9e8e6"/>
              <path id="Trazado_1291773" data-name="Trazado 1291773" d="M33.365,49.815a7.071,7.071,0,0,1-3.2,5.534c-1.765,1.017-3.2.209-3.2-1.825a7,7,0,0,1,3.2-5.563c1.765-.987,3.2-.15,3.2,1.854Z" transform="translate(21.559 42.326)" fill="#c4c2c0"/>
            </g>
          </g>
        </g>
        <g id="Grupo_1220702" data-name="Grupo 1220702" transform="translate(19.911)">
          <g id="Grupo_1220699" data-name="Grupo 1220699">
            <g id="Grupo_1220691" data-name="Grupo 1220691" transform="translate(0.03 10.752)">
              <g id="Grupo_1220688" data-name="Grupo 1220688" transform="translate(0 35.52)">
                <path id="Trazado_1291774" data-name="Trazado 1291774" d="M18.338,88.543l-3.452-2.006L14.7,21.476l3.452,2.006Z" transform="translate(-14.702 -21.476)" fill="#c4c2c0"/>
              </g>
              <g id="Grupo_1220689" data-name="Grupo 1220689" transform="translate(0)">
                <path id="Trazado_1291775" data-name="Trazado 1291775" d="M18.154,43.762,14.7,41.756,76.224,6.236l3.452,2.006Z" transform="translate(-14.702 -6.236)" fill="#c2c3c5"/>
              </g>
              <g id="Grupo_1220690" data-name="Grupo 1220690" transform="translate(3.454 2.014)">
                <path id="Trazado_1291776" data-name="Trazado 1291776" d="M77.88,72.154,16.37,107.675l-.186-65.053L77.694,7.1Z" transform="translate(-16.184 -7.101)" fill="#e9e8e6"/>
                <path id="Trazado_1291777" data-name="Trazado 1291777" d="M17.185,41.663,74.041,8.83l.172,59.678L17.356,101.343Z" transform="translate(-14.851 -4.799)" fill="#fff"/>
              </g>
            </g>
            <g id="Grupo_1220698" data-name="Grupo 1220698">
              <g id="Grupo_1220692" data-name="Grupo 1220692" transform="translate(0 35.52)">
                <path id="Trazado_1291778" data-name="Trazado 1291778" d="M18.171,29.621l-3.452-2.006-.03-10.752,3.452,2.006Z" transform="translate(-14.689 -16.862)" fill="#6d797a"/>
              </g>
              <g id="Grupo_1220693" data-name="Grupo 1220693">
                <path id="Trazado_1291779" data-name="Trazado 1291779" d="M18.141,39.149l-3.452-2.006L76.211,1.623l3.452,2.006Z" transform="translate(-14.689 -1.623)" fill="#a0a8aa"/>
              </g>
              <g id="Grupo_1220694" data-name="Grupo 1220694" transform="translate(0 8.746)">
                <path id="Trazado_1291780" data-name="Trazado 1291780" d="M18.141,34.155l-3.452-2.006L61.062,5.376l3.452,2.006Z" transform="translate(-14.689 -5.376)" fill="#7e8a8c"/>
              </g>
              <g id="Grupo_1220695" data-name="Grupo 1220695" transform="translate(0 17.493)">
                <path id="Trazado_1291781" data-name="Trazado 1291781" d="M18.141,29.161l-3.452-2.006L45.913,9.128l3.452,2.006Z" transform="translate(-14.689 -9.128)" fill="#a0a8aa"/>
              </g>
              <g id="Grupo_1220696" data-name="Grupo 1220696" transform="translate(0 26.239)">
                <path id="Trazado_1291782" data-name="Trazado 1291782" d="M18.141,24.168l-3.452-2.006,16.075-9.281,3.452,2.006Z" transform="translate(-14.689 -12.881)" fill="#7e8a8c"/>
              </g>
              <g id="Grupo_1220697" data-name="Grupo 1220697" transform="translate(3.452 2.006)">
                <path id="Trazado_1291783" data-name="Trazado 1291783" d="M77.692,2.484l.031,10.752L16.2,48.756,16.17,38Z" transform="translate(-16.17 -2.484)" fill="#8d9799"/>
              </g>
            </g>
          </g>
          <g id="Grupo_1220701" data-name="Grupo 1220701" transform="translate(6.421 29.509)">
            <g id="Grupo_1220700" data-name="Grupo 1220700">
              <path id="Trazado_1291784" data-name="Trazado 1291784" d="M21.826,19.044a4.839,4.839,0,0,1-2.191,3.776c-1.212.7-2.191.14-2.191-1.259a4.783,4.783,0,0,1,2.191-3.8c1.189-.7,2.191-.14,2.191,1.282Z" transform="translate(-17.444 -10.054)" fill="#fff"/>
              <path id="Trazado_1291785" data-name="Trazado 1291785" d="M27.326,15.862a4.878,4.878,0,0,1-2.168,3.776c-1.235.7-2.191.14-2.214-1.259a4.881,4.881,0,0,1,2.191-3.8c1.212-.7,2.191-.117,2.191,1.282Z" transform="translate(-10.124 -14.284)" fill="#fff"/>
              <path id="Trazado_1291786" data-name="Trazado 1291786" d="M24.576,17.454a4.838,4.838,0,0,1-2.191,3.776c-1.212.7-2.191.14-2.191-1.259a4.883,4.883,0,0,1,2.168-3.8c1.235-.7,2.214-.14,2.214,1.282Z" transform="translate(-13.784 -12.17)" fill="#fff"/>
            </g>
          </g>
        </g>
        <g id="Grupo_1220716" data-name="Grupo 1220716" transform="translate(31.73 32.347)">
          <g id="Grupo_1220703" data-name="Grupo 1220703" transform="translate(34.984 11.432)">
            <path id="Trazado_1291787" data-name="Trazado 1291787" d="M34.769,21.027c2.572-1.459,4.658-.264,4.667,2.707A10.323,10.323,0,0,1,34.8,31.813Z" transform="translate(-34.769 -20.406)" fill="#3f9ae0"/>
          </g>
          <g id="Grupo_1220704" data-name="Grupo 1220704" transform="translate(16.399 31.19)">
            <path id="Trazado_1291788" data-name="Trazado 1291788" d="M26.969,29.576l16.351-.694.012,4.4-7.746-.25-8.792-.284a.981.981,0,0,0,.173-.52l-.007-2.509Z" transform="translate(-26.795 -28.883)" fill="#efc348"/>
          </g>
          <g id="Grupo_1220705" data-name="Grupo 1220705" transform="translate(4.713 53.965)">
            <path id="Trazado_1291789" data-name="Trazado 1291789" d="M30.111,38.733c.321-.185.592-.031.593.338l0,1.465a1.3,1.3,0,0,1-.589,1.02L22.387,46.02c-.329.19-.6.045-.6-.333l0-1.465a1.321,1.321,0,0,1,.6-1.025l.76-.439,6.137-3.543Z" transform="translate(-21.781 -38.654)" fill="#414141"/>
          </g>
          <g id="Grupo_1220706" data-name="Grupo 1220706" transform="translate(6.022 36.912)">
            <path id="Trazado_1291790" data-name="Trazado 1291790" d="M29.7,31.338,28.528,48.952,22.391,52.5l-.048-16.907Z" transform="translate(-22.343 -31.338)" fill="#ddb040"/>
          </g>
          <g id="Grupo_1220707" data-name="Grupo 1220707" transform="translate(12.767 40.153)">
            <path id="Trazado_1291791" data-name="Trazado 1291791" d="M27.342,32.757c.127-.073.22,0,.195.16l-.562,4.609a.466.466,0,0,1-.2.311l-1.536.887.333-4.943Z" transform="translate(-25.236 -32.728)" fill="#f25a5a"/>
          </g>
          <g id="Grupo_1220710" data-name="Grupo 1220710" transform="translate(0 21.321)">
            <g id="Grupo_1220708" data-name="Grupo 1220708" transform="translate(4.869)">
              <path id="Trazado_1291792" data-name="Trazado 1291792" d="M33.058,24.712a.345.345,0,0,1,.294-.048.3.3,0,0,1,.164.308l.029,10.383.007,2.509a.981.981,0,0,1-.173.52.888.888,0,0,1-.281.277l-10.746,6.2c-.253.146-.465.026-.466-.266l-.037-12.892a1.014,1.014,0,0,1,.463-.792Z" transform="translate(-21.848 -24.649)" fill="#383736"/>
            </g>
            <g id="Grupo_1220709" data-name="Grupo 1220709" transform="translate(0 8.194)">
              <path id="Trazado_1291793" data-name="Trazado 1291793" d="M24.632,28.164l.03,10.622-.262.151c-2.549,1.472-4.633.294-4.641-2.635a10.2,10.2,0,0,1,4.611-7.987Z" transform="translate(-19.759 -28.164)" fill="#3f9ae0"/>
            </g>
          </g>
          <g id="Grupo_1220711" data-name="Grupo 1220711" transform="translate(32.841)">
            <path id="Trazado_1291794" data-name="Trazado 1291794" d="M35.324,15.591c.355-.2.634-.045.635.352l.033,11.612.031,10.785.033,11.6a1.389,1.389,0,0,1-.631,1.093l-.844.487c-.346.2-.634.036-.635-.362l-.013-4.47-.083-29.455a1.411,1.411,0,0,1,.631-1.158Z" transform="translate(-33.849 -15.501)" fill="#383736"/>
          </g>
          <g id="Grupo_1220712" data-name="Grupo 1220712" transform="translate(16.372 1.734)">
            <path id="Trazado_1291795" data-name="Trazado 1291795" d="M26.783,35.848l16.469-19.6L43.336,45.7l-16.351.694-.008.144-.029-10.383a.3.3,0,0,0-.164-.308Z" transform="translate(-26.783 -16.245)" fill="#ffd651"/>
          </g>
          <g id="Grupo_1220713" data-name="Grupo 1220713" transform="translate(41.042 10.909)">
            <path id="Trazado_1291796" data-name="Trazado 1291796" d="M41.352,20.181l0,1.057-3.985,2.3,0-1.057Z" transform="translate(-37.368 -20.181)" fill="#383736"/>
          </g>
          <g id="Grupo_1220714" data-name="Grupo 1220714" transform="translate(40.157 19.21)">
            <path id="Trazado_1291797" data-name="Trazado 1291797" d="M37.56,23.743l3.622,1.222-.286.573-.286.583-3.622-1.212.286-.583Z" transform="translate(-36.988 -23.743)" fill="#383736"/>
          </g>
          <g id="Grupo_1220715" data-name="Grupo 1220715" transform="translate(40.123 2.769)">
            <path id="Trazado_1291798" data-name="Trazado 1291798" d="M40.577,16.689l.288.251.288.251-3.6,5.374-.288-.242-.288-.251Z" transform="translate(-36.973 -16.689)" fill="#383736"/>
          </g>
        </g>
      </g>
      <g id="Grupo_1220737" data-name="Grupo 1220737" transform="translate(82.88 67.566)">
        <g id="Grupo_1220722" data-name="Grupo 1220722" transform="translate(0 11.086)">
          <g id="Grupo_1220718" data-name="Grupo 1220718" transform="translate(0 4.034)">
            <path id="Trazado_1291799" data-name="Trazado 1291799" d="M41.7,37.132l.077,41.47a3.474,3.474,0,0,0,2.033,2.844,10.886,10.886,0,0,0,9.893,0,3.5,3.5,0,0,0,2.062-2.882L55.693,37.1a3.5,3.5,0,0,1-2.062,2.882,10.886,10.886,0,0,1-9.893,0A3.474,3.474,0,0,1,41.7,37.132Z" transform="translate(-41.705 -37.098)" fill="#dd4a4a"/>
          </g>
          <g id="Grupo_1220719" data-name="Grupo 1220719" transform="translate(4.318 4.034)">
            <path id="Trazado_1291800" data-name="Trazado 1291800" d="M53.228,37.1a3.5,3.5,0,0,1-2.062,2.882,10.977,10.977,0,0,1-7.608.88V82.307a10.981,10.981,0,0,0,7.686-.857,3.5,3.5,0,0,0,2.062-2.882Z" transform="translate(-43.557 -37.098)" fill="#cc4848"/>
          </g>
          <g id="Grupo_1220720" data-name="Grupo 1220720" transform="translate(10.674 4.034)">
            <path id="Trazado_1291801" data-name="Trazado 1291801" d="M49.6,37.1a3.5,3.5,0,0,1-2.062,2.882,7.974,7.974,0,0,1-1.252.533v41.5a8.005,8.005,0,0,0,1.33-.564,3.5,3.5,0,0,0,2.062-2.882Z" transform="translate(-46.284 -37.098)" fill="#c44141"/>
          </g>
          <g id="Grupo_1220721" data-name="Grupo 1220721">
            <path id="Trazado_1291802" data-name="Trazado 1291802" d="M43.77,36.553c-2.745,1.585-2.753,4.145-.032,5.726a10.886,10.886,0,0,0,9.893,0c2.738-1.581,2.753-4.145.025-5.73a10.9,10.9,0,0,0-9.886,0Z" transform="translate(-41.705 -35.367)" fill="#f25a5a"/>
          </g>
        </g>
        <g id="Grupo_1220731" data-name="Grupo 1220731" transform="translate(30.567)">
          <g id="Grupo_1220724" data-name="Grupo 1220724" transform="translate(0 4.034)">
            <g id="Grupo_1220723" data-name="Grupo 1220723">
              <path id="Trazado_1291803" data-name="Trazado 1291803" d="M54.819,32.376l.077,35.3a3.474,3.474,0,0,0,2.033,2.844,10.886,10.886,0,0,0,9.893,0,3.5,3.5,0,0,0,2.062-2.882l-.077-35.3a3.5,3.5,0,0,1-2.062,2.882,10.886,10.886,0,0,1-9.893,0,3.474,3.474,0,0,1-2.033-2.844Z" transform="translate(-54.819 -32.342)" fill="#6dcb60"/>
            </g>
          </g>
          <g id="Grupo_1220726" data-name="Grupo 1220726" transform="translate(4.318 4.034)">
            <g id="Grupo_1220725" data-name="Grupo 1220725">
              <path id="Trazado_1291804" data-name="Trazado 1291804" d="M66.342,32.342a3.5,3.5,0,0,1-2.062,2.882,10.977,10.977,0,0,1-7.608.88V71.376a10.981,10.981,0,0,0,7.686-.857,3.5,3.5,0,0,0,2.062-2.882Z" transform="translate(-56.672 -32.342)" fill="#3db542"/>
            </g>
          </g>
          <g id="Grupo_1220728" data-name="Grupo 1220728" transform="translate(10.674 4.034)">
            <g id="Grupo_1220727" data-name="Grupo 1220727">
              <path id="Trazado_1291805" data-name="Trazado 1291805" d="M62.713,32.342a3.5,3.5,0,0,1-2.062,2.882,7.974,7.974,0,0,1-1.252.533V71.084a8,8,0,0,0,1.33-.564,3.5,3.5,0,0,0,2.062-2.882Z" transform="translate(-59.399 -32.342)" fill="#2c9a2c"/>
            </g>
          </g>
          <g id="Grupo_1220730" data-name="Grupo 1220730">
            <g id="Grupo_1220729" data-name="Grupo 1220729">
              <path id="Trazado_1291806" data-name="Trazado 1291806" d="M56.885,31.8c-2.745,1.585-2.753,4.145-.032,5.726a10.886,10.886,0,0,0,9.893,0c2.738-1.581,2.753-4.145.025-5.73a10.9,10.9,0,0,0-9.886,0Z" transform="translate(-54.819 -30.611)" fill="#81d672"/>
            </g>
          </g>
        </g>
        <g id="Grupo_1220736" data-name="Grupo 1220736" transform="translate(15.284 14.804)">
          <g id="Grupo_1220732" data-name="Grupo 1220732" transform="translate(0 4.034)">
            <path id="Trazado_1291807" data-name="Trazado 1291807" d="M48.262,38.727l.077,29.122a3.474,3.474,0,0,0,2.033,2.844,10.886,10.886,0,0,0,9.893,0,3.5,3.5,0,0,0,2.062-2.882L62.25,38.693a3.5,3.5,0,0,1-2.062,2.882,10.886,10.886,0,0,1-9.893,0,3.474,3.474,0,0,1-2.033-2.844Z" transform="translate(-48.262 -38.693)" fill="#d6d4d2"/>
          </g>
          <g id="Grupo_1220733" data-name="Grupo 1220733" transform="translate(4.318 4.034)">
            <path id="Trazado_1291808" data-name="Trazado 1291808" d="M59.785,38.693a3.5,3.5,0,0,1-2.062,2.882,10.977,10.977,0,0,1-7.608.88v29.1A10.981,10.981,0,0,0,57.8,70.7a3.5,3.5,0,0,0,2.062-2.882Z" transform="translate(-50.114 -38.693)" fill="#c4c2c0"/>
          </g>
          <g id="Grupo_1220734" data-name="Grupo 1220734" transform="translate(10.674 4.034)">
            <path id="Trazado_1291809" data-name="Trazado 1291809" d="M56.156,38.693a3.5,3.5,0,0,1-2.062,2.882,7.974,7.974,0,0,1-1.252.533V71.261a8,8,0,0,0,1.33-.564,3.5,3.5,0,0,0,2.062-2.882Z" transform="translate(-52.841 -38.693)" fill="#b2b0af"/>
          </g>
          <g id="Grupo_1220735" data-name="Grupo 1220735" transform="translate(0)">
            <path id="Trazado_1291810" data-name="Trazado 1291810" d="M50.328,38.148c-2.745,1.585-2.753,4.145-.032,5.726a10.886,10.886,0,0,0,9.893,0c2.738-1.581,2.753-4.145.025-5.73A10.9,10.9,0,0,0,50.328,38.148Z" transform="translate(-48.262 -36.963)" fill="#e9e8e6"/>
          </g>
        </g>
      </g>
    </g>
  </g>
</svg>
